  0
SECTION
  2
HEADER
  9
$ACADVER
  1
AC1014
  9
$HANDSEED
  5
FFFF
  9
$MEASUREMENT
 70
     1
  0
ENDSEC
  0
SECTION
  2
TABLES
  0
TABLE
  2
VPORT
  5
8
330
0
100
AcDbSymbolTable
 70
     4
  0
VPORT
  5
2E
330
8
100
AcDbSymbolTableRecord
100
AcDbViewportTableRecord
  2
*ACTIVE
 70
     0
 10
0.0
 20
0.0
 11
1.0
 21
1.0
 12
210.0
 22
148.5
 13
0.0
 23
0.0
 14
10.0
 24
10.0
 15
10.0
 25
10.0
 16
0.0
 26
0.0
 36
1.0
 17
0.0
 27
0.0
 37
0.0
 40
341.0
 41
1.24
 42
50.0
 43
0.0
 44
0.0
 50
0.0
 51
0.0
 71
     0
 72
   100
 73
     1
 74
     3
 75
     0
 76
     0
 77
     0
 78
     0
  0
ENDTAB
  0
TABLE
  2
LTYPE
  5
5
330
0
100
AcDbSymbolTable
 70
     1
  0
LTYPE
  5
14
330
5
100
AcDbSymbolTableRecord
100
AcDbLinetypeTableRecord
  2
BYBLOCK
 70
     0
  3

 72
    65
 73
     0
 40
0.0
  0
LTYPE
  5
15
330
5
100
AcDbSymbolTableRecord
100
AcDbLinetypeTableRecord
  2
BYLAYER
 70
     0
  3

 72
    65
 73
     0
 40
0.0
  0
LTYPE
  5
16
330
5
100
AcDbSymbolTableRecord
100
AcDbLinetypeTableRecord
  2
CONTINUOUS
 70
     0
  3
Solid line
 72
    65
 73
     0
 40
0.0
  0
ENDTAB
  0
TABLE
  2
LAYER
  5
2
100
AcDbSymbolTable
 70
2
  0
LAYER
  5
50
100
AcDbSymbolTableRecord
100
AcDbLayerTableRecord
  2
0
 70
0
  6
CONTINUOUS
  0
LAYER
  5
51
100
AcDbSymbolTableRecord
100
AcDbLayerTableRecord
  2
Layer_1
 70
0
  6
CONTINUOUS
  0
ENDTAB
  0
TABLE
  2
STYLE
  5
3
330
0
100
AcDbSymbolTable
 70
     1
  0
STYLE
  5
11
330
3
100
AcDbSymbolTableRecord
100
AcDbTextStyleTableRecord
  2
STANDARD
 70
     0
 40
0.0
 41
1.0
 50
0.0
 71
     0
 42
2.5
  3
txt
  4

  0
ENDTAB
  0
TABLE
  2
VIEW
  5
6
330
0
100
AcDbSymbolTable
 70
     0
  0
ENDTAB
  0
TABLE
  2
UCS
  5
7
330
0
100
AcDbSymbolTable
 70
     0
  0
ENDTAB
  0
TABLE
  2
APPID
  5
9
330
0
100
AcDbSymbolTable
 70
     2
  0
APPID
  5
12
330
9
100
AcDbSymbolTableRecord
100
AcDbRegAppTableRecord
  2
ACAD
 70
     0
  0
ENDTAB
  0
TABLE
  2
DIMSTYLE
  5
A
330
0
100
AcDbSymbolTable
 70
     1
  0
DIMSTYLE
105
27
330
A
100
AcDbSymbolTableRecord
100
AcDbDimStyleTableRecord
  2
ISO-25
 70
     0
  3

  4

  5

  6

  7

 40
1.0
 41
2.5
 42
0.625
 43
3.75
 44
1.25
 45
0.0
 46
0.0
 47
0.0
 48
0.0
140
2.5
141
2.5
142
0.0
143
0.03937007874016
144
1.0
145
0.0
146
1.0
147
0.625
 71
     0
 72
     0
 73
     0
 74
     0
 75
     0
 76
     0
 77
     1
 78
     8
170
     0
171
     3
172
     1
173
     0
174
     0
175
     0
176
     0
177
     0
178
     0
270
     2
271
     2
272
     2
273
     2
274
     3
340
11
275
     0
280
     0
281
     0
282
     0
283
     0
284
     8
285
     0
286
     0
287
     3
288
     0
  0
ENDTAB
  0
TABLE
  2
BLOCK_RECORD
  5
1
330
0
100
AcDbSymbolTable
 70
     1
  0
BLOCK_RECORD
  5
1F
330
1
100
AcDbSymbolTableRecord
100
AcDbBlockTableRecord
  2
*MODEL_SPACE
  0
BLOCK_RECORD
  5
1B
330
1
100
AcDbSymbolTableRecord
100
AcDbBlockTableRecord
  2
*PAPER_SPACE
  0
ENDTAB
  0
ENDSEC
  0
SECTION
  2
BLOCKS
  0
BLOCK
  5
20
330
1F
100
AcDbEntity
  8
0
100
AcDbBlockBegin
  2
*MODEL_SPACE
 70
     0
 10
0.0
 20
0.0
 30
0.0
  3
*MODEL_SPACE
  1

  0
ENDBLK
  5
21
330
1F
100
AcDbEntity
  8
0
100
AcDbBlockEnd
  0
BLOCK
  5
1C
330
1B
100
AcDbEntity
 67
     1
  8
0
100
AcDbBlockBegin
  2
*PAPER_SPACE
  1

  0
ENDBLK
  5
1D
330
1B
100
AcDbEntity
 67
     1
  8
0
100
AcDbBlockEnd
  0
ENDSEC
  0
SECTION
  2
ENTITIES
  0
SPLINE
  5
100
100
AcDbEntity
  8
Layer_1
 62
7
100
AcDbSpline
 70
8
 71
3
 72
8
 73
4
 74
0
 40
0
 40
0
 40
0
 40
0
 40
1
 40
1
 40
1
 40
1
 10
122.007440
 20
276.867560
 30
0.0
 10
122.007440
 20
276.337127
 30
0.0
 10
121.796726
 20
275.828419
 30
0.0
 10
121.421654
 20
275.453346
 30
0.0
  0
SPLINE
  5
101
100
AcDbEntity
  8
Layer_1
 62
7
100
AcDbSpline
 70
8
 71
3
 72
8
 73
4
 74
0
 40
0
 40
0
 40
0
 40
0
 40
1
 40
1
 40
1
 40
1
 10
121.421654
 20
275.453346
 30
0.0
 10
121.046581
 20
275.078274
 30
0.0
 10
120.537873
 20
274.867560
 30
0.0
 10
120.007440
 20
274.867560
 30
0.0
  0
SPLINE
  5
102
100
AcDbEntity
  8
Layer_1
 62
7
100
AcDbSpline
 70
8
 71
3
 72
8
 73
4
 74
0
 40
0
 40
0
 40
0
 40
0
 40
1
 40
1
 40
1
 40
1
 10
120.007440
 20
274.867560
 30
0.0
 10
119.477007
 20
274.867560
 30
0.0
 10
118.968299
 20
275.078274
 30
0.0
 10
118.593226
 20
275.453346
 30
0.0
  0
SPLINE
  5
103
100
AcDbEntity
  8
Layer_1
 62
7
100
AcDbSpline
 70
8
 71
3
 72
8
 73
4
 74
0
 40
0
 40
0
 40
0
 40
0
 40
1
 40
1
 40
1
 40
1
 10
118.593226
 20
275.453346
 30
0.0
 10
118.218154
 20
275.828419
 30
0.0
 10
118.007440
 20
276.337127
 30
0.0
 10
118.007440
 20
276.867560
 30
0.0
  0
SPLINE
  5
104
100
AcDbEntity
  8
Layer_1
 62
7
100
AcDbSpline
 70
8
 71
3
 72
8
 73
4
 74
0
 40
0
 40
0
 40
0
 40
0
 40
1
 40
1
 40
1
 40
1
 10
118.007440
 20
276.867560
 30
0.0
 10
118.007440
 20
277.397993
 30
0.0
 10
118.218154
 20
277.906701
 30
0.0
 10
118.593226
 20
278.281774
 30
0.0
  0
SPLINE
  5
105
100
AcDbEntity
  8
Layer_1
 62
7
100
AcDbSpline
 70
8
 71
3
 72
8
 73
4
 74
0
 40
0
 40
0
 40
0
 40
0
 40
1
 40
1
 40
1
 40
1
 10
118.593226
 20
278.281774
 30
0.0
 10
118.968299
 20
278.656846
 30
0.0
 10
119.477007
 20
278.867560
 30
0.0
 10
120.007440
 20
278.867560
 30
0.0
  0
SPLINE
  5
106
100
AcDbEntity
  8
Layer_1
 62
7
100
AcDbSpline
 70
8
 71
3
 72
8
 73
4
 74
0
 40
0
 40
0
 40
0
 40
0
 40
1
 40
1
 40
1
 40
1
 10
120.007440
 20
278.867560
 30
0.0
 10
120.537873
 20
278.867560
 30
0.0
 10
121.046581
 20
278.656846
 30
0.0
 10
121.421654
 20
278.281774
 30
0.0
  0
SPLINE
  5
107
100
AcDbEntity
  8
Layer_1
 62
7
100
AcDbSpline
 70
8
 71
3
 72
8
 73
4
 74
0
 40
0
 40
0
 40
0
 40
0
 40
1
 40
1
 40
1
 40
1
 10
121.421654
 20
278.281774
 30
0.0
 10
121.796726
 20
277.906701
 30
0.0
 10
122.007440
 20
277.397993
 30
0.0
 10
122.007440
 20
276.867560
 30
0.0
  0
LWPOLYLINE
  5
108
100
AcDbEntity
  8
Layer_1
 62
7
100
AcDbPolyline
 90
152
 70
1
 10
125.392970
 20
277.394740
 30
0.0
 10
125.663560
 20
277.421230
 30
0.0
 10
126.034670
 20
277.366990
 30
0.0
 10
126.688350
 20
277.086700
 30
0.0
 10
126.688350
 20
276.648420
 30
0.0
 10
126.034670
 20
276.368130
 30
0.0
 10
125.663560
 20
276.313890
 30
0.0
 10
125.392970
 20
276.340380
 30
0.0
 10
125.272340
 20
275.617500
 30
0.0
 10
125.536870
 20
275.554690
 30
0.0
 10
125.870260
 20
275.382890
 30
0.0
 10
126.397520
 20
274.905540
 30
0.0
 10
126.255210
 20
274.491010
 30
0.0
 10
125.545930
 20
274.438150
 30
0.0
 10
125.177320
 20
274.507350
 30
0.0
 10
124.929990
 20
274.620260
 30
0.0
 10
124.581180
 20
273.975720
 30
0.0
 10
124.810990
 20
273.830420
 30
0.0
 10
125.070530
 20
273.559680
 30
0.0
 10
125.414220
 20
272.936990
 30
0.0
 10
125.145020
 20
272.591130
 30
0.0
 10
124.457020
 20
272.771440
 30
0.0
 10
124.130840
 20
272.956570
 30
0.0
 10
123.933580
 20
273.143680
 30
0.0
 10
123.394380
 20
272.647320
 30
0.0
 10
123.564560
 20
272.435270
 30
0.0
 10
123.722130
 20
272.094930
 30
0.0
 10
123.845010
 20
271.394380
 30
0.0
 10
123.478100
 20
271.154660
 30
0.0
 10
122.885920
 20
271.548600
 30
0.0
 10
122.637530
 20
271.829620
 30
0.0
 10
122.511700
 20
272.070640
 30
0.0
 10
121.840560
 20
271.776240
 30
0.0
 10
121.932660
 20
271.520430
 30
0.0
 10
121.971190
 20
271.147360
 30
0.0
 10
121.859940
 20
270.444870
 30
0.0
 10
121.435070
 20
270.337280
 30
0.0
 10
121.002890
 20
270.902160
 30
0.0
 10
120.859210
 20
271.248600
 30
0.0
 10
120.818460
 20
271.517410
 30
0.0
 10
120.088090
 20
271.456890
 30
0.0
 10
120.092140
 20
271.185040
 30
0.0
 10
120.007440
 20
270.819670
 30
0.0
 10
119.674120
 20
270.191370
 30
0.0
 10
119.237340
 20
270.227560
 30
0.0
 10
119.011990
 20
270.902160
 30
0.0
 10
118.988580
 20
271.276480
 30
0.0
 10
119.037320
 20
271.543960
 30
0.0
 10
118.326880
 20
271.723870
 30
0.0
 10
118.242440
 20
271.465430
 30
0.0
 10
118.043690
 20
271.147360
 30
0.0
 10
117.524430
 20
270.661330
 30
0.0
 10
117.123070
 20
270.837380
 30
0.0
 10
117.128960
 20
271.548600
 30
0.0
 10
117.228370
 20
271.910240
 30
0.0
 10
117.361320
 20
272.147400
 30
0.0
 10
116.747780
 20
272.548250
 30
0.0
 10
116.584000
 20
272.331230
 30
0.0
 10
116.292750
 20
272.094930
 30
0.0
 10
115.643810
 20
271.803830
 30
0.0
 10
115.321350
 20
272.100670
 30
0.0
 10
115.557860
 20
272.771440
 30
0.0
 10
115.769300
 20
273.081210
 30
0.0
 10
115.972060
 20
273.262350
 30
0.0
 10
115.521920
 20
273.840690
 30
0.0
 10
115.296550
 20
273.688610
 30
0.0
 10
114.944350
 20
273.559680
 30
0.0
 10
114.236050
 20
273.495070
 30
0.0
 10
114.027450
 20
273.880520
 30
0.0
 10
114.468950
 20
274.438150
 30
0.0
 10
114.769510
 20
274.662480
 30
0.0
 10
115.020100
 20
274.767980
 30
0.0
 10
114.782140
 20
275.461140
 30
0.0
 10
114.519590
 20
275.390470
 30
0.0
 10
114.144620
 20
275.382890
 30
0.0
 10
113.453710
 20
275.551770
 30
0.0
 10
113.381580
 20
275.984070
 30
0.0
 10
113.980210
 20
276.368130
 30
0.0
 10
114.337330
 20
276.482710
 30
0.0
 10
114.608590
 20
276.501120
 30
0.0
 10
114.608590
 20
277.234000
 30
0.0
 10
114.337330
 20
277.252410
 30
0.0
 10
113.980210
 20
277.366990
 30
0.0
 10
113.381580
 20
277.751050
 30
0.0
 10
113.453710
 20
278.183350
 30
0.0
 10
114.144620
 20
278.352230
 30
0.0
 10
114.519590
 20
278.344650
 30
0.0
 10
114.782140
 20
278.273980
 30
0.0
 10
115.020100
 20
278.967140
 30
0.0
 10
114.769510
 20
279.072640
 30
0.0
 10
114.468950
 20
279.296970
 30
0.0
 10
114.027450
 20
279.854600
 30
0.0
 10
114.236050
 20
280.240050
 30
0.0
 10
114.944350
 20
280.175440
 30
0.0
 10
115.296550
 20
280.046510
 30
0.0
 10
115.521920
 20
279.894430
 30
0.0
 10
115.972060
 20
280.472770
 30
0.0
 10
115.769300
 20
280.653910
 30
0.0
 10
115.557860
 20
280.963680
 30
0.0
 10
115.321350
 20
281.634450
 30
0.0
 10
115.643810
 20
281.931290
 30
0.0
 10
116.292750
 20
281.640190
 30
0.0
 10
116.584000
 20
281.403890
 30
0.0
 10
116.747780
 20
281.186870
 30
0.0
 10
117.361320
 20
281.587720
 30
0.0
 10
117.228370
 20
281.824880
 30
0.0
 10
117.128960
 20
282.186520
 30
0.0
 10
117.123070
 20
282.897740
 30
0.0
 10
117.524430
 20
283.073790
 30
0.0
 10
118.043690
 20
282.587760
 30
0.0
 10
118.242440
 20
282.269690
 30
0.0
 10
118.326880
 20
282.011250
 30
0.0
 10
119.037320
 20
282.191160
 30
0.0
 10
118.988580
 20
282.458640
 30
0.0
 10
119.011990
 20
282.832960
 30
0.0
 10
119.237340
 20
283.507560
 30
0.0
 10
119.674120
 20
283.543750
 30
0.0
 10
120.007440
 20
282.915450
 30
0.0
 10
120.092140
 20
282.550080
 30
0.0
 10
120.088090
 20
282.278230
 30
0.0
 10
120.818460
 20
282.217710
 30
0.0
 10
120.859210
 20
282.486520
 30
0.0
 10
121.002890
 20
282.832960
 30
0.0
 10
121.435070
 20
283.397840
 30
0.0
 10
121.859940
 20
283.290250
 30
0.0
 10
121.971190
 20
282.587760
 30
0.0
 10
121.932660
 20
282.214690
 30
0.0
 10
121.840560
 20
281.958880
 30
0.0
 10
122.511700
 20
281.664480
 30
0.0
 10
122.637530
 20
281.905500
 30
0.0
 10
122.885920
 20
282.186520
 30
0.0
 10
123.478100
 20
282.580460
 30
0.0
 10
123.845010
 20
282.340740
 30
0.0
 10
123.722130
 20
281.640190
 30
0.0
 10
123.564560
 20
281.299850
 30
0.0
 10
123.394380
 20
281.087800
 30
0.0
 10
123.933580
 20
280.591440
 30
0.0
 10
124.130840
 20
280.778550
 30
0.0
 10
124.457020
 20
280.963680
 30
0.0
 10
125.145020
 20
281.143990
 30
0.0
 10
125.414220
 20
280.798130
 30
0.0
 10
125.070530
 20
280.175440
 30
0.0
 10
124.810990
 20
279.904700
 30
0.0
 10
124.581180
 20
279.759400
 30
0.0
 10
124.929990
 20
279.114860
 30
0.0
 10
125.177320
 20
279.227770
 30
0.0
 10
125.545930
 20
279.296970
 30
0.0
 10
126.255210
 20
279.244110
 30
0.0
 10
126.397520
 20
278.829580
 30
0.0
 10
125.870260
 20
278.352230
 30
0.0
 10
125.536870
 20
278.180430
 30
0.0
 10
125.272340
 20
278.117620
 30
0.0
  0
LWPOLYLINE
  5
109
100
AcDbEntity
  8
Layer_1
 62
7
100
AcDbPolyline
 90
1
 70
1
 10
122.007440
 20
276.867560
 30
0.0
  0
SPLINE
  5
10a
100
AcDbEntity
  8
Layer_1
 62
7
100
AcDbSpline
 70
8
 71
3
 72
8
 73
4
 74
0
 40
0
 40
0
 40
0
 40
0
 40
1
 40
1
 40
1
 40
1
 10
75.875183
 20
242.198985
 30
0.0
 10
74.984294
 20
240.704506
 30
0.0
 10
73.208576
 20
239.984363
 30
0.0
 10
71.528383
 20
240.436139
 30
0.0
  0
SPLINE
  5
10b
100
AcDbEntity
  8
Layer_1
 62
7
100
AcDbSpline
 70
8
 71
3
 72
8
 73
4
 74
0
 40
0
 40
0
 40
0
 40
0
 40
1
 40
1
 40
1
 40
1
 10
71.528383
 20
240.436139
 30
0.0
 10
69.848187
 20
240.887917
 30
0.0
 10
68.673079
 20
242.401493
 30
0.0
 10
68.651823
 20
244.141237
 30
0.0
  0
SPLINE
  5
10c
100
AcDbEntity
  8
Layer_1
 62
7
100
AcDbSpline
 70
8
 71
3
 72
8
 73
4
 74
0
 40
0
 40
0
 40
0
 40
0
 40
1
 40
1
 40
1
 40
1
 10
68.651823
 20
244.141237
 30
0.0
 10
68.630567
 20
245.880981
 30
0.0
 10
69.768346
 20
247.422816
 30
0.0
 10
71.437003
 20
247.915509
 30
0.0
  0
SPLINE
  5
10d
100
AcDbEntity
  8
Layer_1
 62
7
100
AcDbSpline
 70
8
 71
3
 72
8
 73
4
 74
0
 40
0
 40
0
 40
0
 40
0
 40
1
 40
1
 40
1
 40
1
 10
71.437003
 20
247.915509
 30
0.0
 10
73.105656
 20
248.408200
 30
0.0
 10
74.898437
 20
247.731657
 30
0.0
 10
75.825573
 20
246.259391
 30
0.0
  0
SPLINE
  5
10e
100
AcDbEntity
  8
Layer_1
 62
7
100
AcDbSpline
 70
8
 71
3
 72
8
 73
4
 74
0
 40
0
 40
0
 40
0
 40
0
 40
1
 40
1
 40
1
 40
1
 10
75.825573
 20
246.259391
 30
0.0
 10
75.825573
 20
242.259391
 30
0.0
 10
75.825573
 20
242.259391
 30
0.0
 10
75.825573
 20
242.259391
 30
0.0
  0
LWPOLYLINE
  5
10f
100
AcDbEntity
  8
Layer_1
 62
7
100
AcDbPolyline
 90
798
 70
1
 10
114.264030
 20
244.879589
 30
0.0
 10
114.903690
 20
244.672609
 30
0.0
 10
115.542480
 20
244.432239
 30
0.0
 10
115.542480
 20
243.912999
 30
0.0
 10
114.903690
 20
243.672629
 30
0.0
 10
114.264030
 20
243.465649
 30
0.0
 10
114.250930
 20
242.909889
 30
0.0
 10
114.880100
 20
242.672929
 30
0.0
 10
115.506830
 20
242.402669
 30
0.0
 10
115.482330
 20
241.883999
 30
0.0
 10
114.832900
 20
241.674069
 30
0.0
 10
114.184180
 20
241.497529
 30
0.0
 10
114.144780
 20
240.943009
 30
0.0
 10
114.762060
 20
240.676609
 30
0.0
 10
115.375320
 20
240.377049
 30
0.0
 10
115.326320
 20
239.860119
 30
0.0
 10
114.667710
 20
239.681089
 30
0.0
 10
114.011370
 20
239.535379
 30
0.0
 10
113.945870
 20
238.983329
 30
0.0
 10
114.549880
 20
238.688079
 30
0.0
 10
115.148310
 20
238.359889
 30
0.0
 10
115.075010
 20
237.845849
 30
0.0
 10
114.408670
 20
237.698129
 30
0.0
 10
113.746190
 20
237.583579
 30
0.0
 10
113.654690
 20
237.035239
 30
0.0
 10
114.244080
 20
236.711789
 30
0.0
 10
114.826350
 20
236.355709
 30
0.0
 10
114.728850
 20
235.845709
 30
0.0
 10
114.056280
 20
235.729609
 30
0.0
 10
113.389130
 20
235.646479
 30
0.0
 10
113.271830
 20
235.103069
 30
0.0
 10
113.845290
 20
234.752149
 30
0.0
 10
114.410090
 20
234.368969
 30
0.0
 10
114.288580
 20
233.864139
 30
0.0
 10
113.611280
 20
233.779939
 30
0.0
 10
112.940940
 20
233.728399
 30
0.0
 10
112.798120
 20
233.191139
 30
0.0
 10
113.354370
 20
232.813529
 30
0.0
 10
113.900440
 20
232.404099
 30
0.0
 10
113.755220
 20
231.905579
 30
0.0
 10
113.074700
 20
231.853449
 30
0.0
 10
112.402680
 20
231.833629
 30
0.0
 10
112.234640
 20
231.303709
 30
0.0
 10
112.772440
 20
230.900249
 30
0.0
 10
113.298570
 20
230.465499
 30
0.0
 10
113.129970
 20
229.974389
 30
0.0
 10
112.447750
 20
229.954459
 30
0.0
 10
111.775540
 20
229.966389
 30
0.0
 10
111.582660
 20
229.444999
 30
0.0
 10
112.100810
 20
229.016599
 30
0.0
 10
112.605820
 20
228.557479
 30
0.0
 10
112.414220
 20
228.074879
 30
0.0
 10
111.731810
 20
228.087189
 30
0.0
 10
111.060920
 20
228.130859
 30
0.0
 10
110.843640
 20
227.619159
 30
0.0
 10
111.340970
 20
227.166759
 30
0.0
 10
111.823740
 20
226.684299
 30
0.0
 10
111.609560
 20
226.211289
 30
0.0
 10
110.928500
 20
226.255809
 30
0.0
 10
110.260410
 20
226.331109
 30
0.0
 10
110.019210
 20
225.830249
 30
0.0
 10
110.494620
 20
225.354869
 30
0.0
 10
110.954070
 20
224.850149
 30
0.0
 10
110.717790
 20
224.387779
 30
0.0
 10
110.039590
 20
224.464419
 30
0.0
 10
109.375810
 20
224.571179
 30
0.0
 10
109.111220
 20
224.082259
 30
0.0
 10
109.563660
 20
223.584959
 30
0.0
 10
109.998750
 20
223.059119
 30
0.0
 10
109.740900
 20
222.608419
 30
0.0
 10
109.067080
 20
222.716999
 30
0.0
 10
108.409080
 20
222.854989
 30
0.0
 10
108.121700
 20
222.379109
 30
0.0
 10
108.550140
 20
221.860999
 30
0.0
 10
108.959920
 20
221.315189
 30
0.0
 10
108.681080
 20
220.877169
 30
0.0
 10
108.013130
 20
221.017449
 30
0.0
 10
107.362380
 20
221.186369
 30
0.0
 10
107.052850
 20
220.724589
 30
0.0
 10
107.456350
 20
220.186819
 30
0.0
 10
107.839890
 20
219.622269
 30
0.0
 10
107.540670
 20
219.197909
 30
0.0
 10
106.880100
 20
219.369579
 30
0.0
 10
106.238060
 20
219.569029
 30
0.0
 10
105.907060
 20
219.122389
 30
0.0
 10
106.284710
 20
218.566169
 30
0.0
 10
106.641170
 20
217.984129
 30
0.0
 10
106.322240
 20
217.574379
 30
0.0
 10
105.670510
 20
217.777049
 30
0.0
 10
105.038600
 20
218.006599
 30
0.0
 10
104.686880
 20
217.576089
 30
0.0
 10
105.037850
 20
217.002649
 30
0.0
 10
105.366420
 20
216.404429
 30
0.0
 10
105.028500
 20
216.010189
 30
0.0
 10
104.387070
 20
216.243409
 30
0.0
 10
103.766710
 20
216.502549
 30
0.0
 10
103.395050
 20
216.089129
 30
0.0
 10
103.718540
 20
215.499759
 30
0.0
 10
104.018500
 20
214.886689
 30
0.0
 10
103.662330
 20
214.508849
 30
0.0
 10
103.032630
 20
214.772099
 30
0.0
 10
102.425200
 20
215.060249
 30
0.0
 10
102.034430
 20
214.664839
 30
0.0
 10
102.329730
 20
214.060849
 30
0.0
 10
102.600400
 20
213.434299
 30
0.0
 10
102.226790
 20
213.073699
 30
0.0
 10
101.610220
 20
213.366399
 30
0.0
 10
101.017080
 20
213.682909
 30
0.0
 10
100.608070
 20
213.306389
 30
0.0
 10
100.874520
 20
212.689129
 30
0.0
 10
101.115300
 20
212.050499
 30
0.0
 10
100.725080
 20
211.707939
 30
0.0
 10
100.123020
 20
212.029429
 30
0.0
 10
99.545479
 20
212.373599
 30
0.0
 10
99.119149
 20
212.016819
 30
0.0
 10
99.356149
 20
211.387659
 30
0.0
 10
99.566499
 20
210.738369
 30
0.0
 10
99.160539
 20
210.414629
 30
0.0
 10
98.574339
 20
210.764189
 30
0.0
 10
98.013689
 20
211.135249
 30
0.0
 10
97.570989
 20
210.798999
 30
0.0
 10
97.778019
 20
210.159349
 30
0.0
 10
97.957469
 20
209.500849
 30
0.0
 10
97.536669
 20
209.196639
 30
0.0
 10
96.967629
 20
209.573489
 30
0.0
 10
96.425139
 20
209.970609
 30
0.0
 10
95.967049
 20
209.655639
 30
0.0
 10
96.143639
 20
209.006939
 30
0.0
 10
96.291789
 20
208.340699
 30
0.0
 10
95.857099
 20
208.056699
 30
0.0
 10
95.306489
 20
208.459999
 30
0.0
 10
94.783349
 20
208.882299
 30
0.0
 10
94.310899
 20
208.589309
 30
0.0
 10
94.456659
 20
207.932989
 30
0.0
 10
94.573189
 20
207.260499
 30
0.0
 10
94.125569
 20
206.997339
 30
0.0
 10
93.594619
 20
207.426199
 30
0.0
 10
93.092009
 20
207.872729
 30
0.0
 10
92.606249
 20
207.602379
 30
0.0
 10
92.720849
 20
206.939909
 30
0.0
 10
92.805489
 20
206.262659
 30
0.0
 10
92.345939
 20
206.020939
 30
0.0
 10
91.835829
 20
206.474389
 30
0.0
 10
91.354869
 20
206.944159
 30
0.0
 10
90.856889
 20
206.697059
 30
0.0
 10
90.940069
 20
206.029909
 30
0.0
 10
90.992639
 20
205.349419
 30
0.0
 10
90.522179
 20
205.129669
 30
0.0
 10
90.034059
 20
205.606709
 30
0.0
 10
89.575819
 20
206.098659
 30
0.0
 10
89.066719
 20
205.875349
 30
0.0
 10
89.118309
 20
205.205019
 30
0.0
 10
89.138679
 20
204.522809
 30
0.0
 10
88.658379
 20
204.325519
 30
0.0
 10
88.193329
 20
204.825079
 30
0.0
 10
87.758829
 20
205.338119
 30
0.0
 10
87.239749
 20
205.139099
 30
0.0
 10
87.259629
 20
204.467079
 30
0.0
 10
87.247759
 20
203.784669
 30
0.0
 10
86.758669
 20
203.610279
 30
0.0
 10
86.317729
 20
204.131239
 30
0.0
 10
85.907949
 20
204.664239
 30
0.0
 10
85.380049
 20
204.489949
 30
0.0
 10
85.368169
 20
203.817739
 30
0.0
 10
85.324089
 20
203.136659
 30
0.0
 10
84.827309
 20
202.985559
 30
0.0
 10
84.411459
 20
203.526759
 30
0.0
 10
84.027309
 20
204.078509
 30
0.0
 10
83.491769
 20
203.929349
 30
0.0
 10
83.448149
 20
203.258449
 30
0.0
 10
83.371959
 20
202.580209
 30
0.0
 10
82.868599
 20
202.452739
 30
0.0
 10
82.478779
 20
203.012969
 30
0.0
 10
82.121109
 20
203.582249
 30
0.0
 10
81.579119
 20
203.458549
 30
0.0
 10
81.503869
 20
202.790459
 30
0.0
 10
81.395729
 20
202.116569
 30
0.0
 10
80.886919
 20
202.013009
 30
0.0
 10
80.523979
 20
202.591029
 30
0.0
 10
80.193589
 20
203.176559
 30
0.0
 10
79.646369
 20
203.078589
 30
0.0
 10
79.539659
 20
202.414799
 30
0.0
 10
79.399809
 20
201.746769
 30
0.0
 10
78.886669
 20
201.667359
 30
0.0
 10
78.551439
 20
202.261869
 30
0.0
 10
78.249079
 20
202.862349
 30
0.0
 10
77.697839
 20
202.790329
 30
0.0
 10
77.559889
 20
202.132319
 30
0.0
 10
77.388659
 20
201.471639
 30
0.0
 10
76.872339
 20
201.416549
 30
0.0
 10
76.565559
 20
202.026229
 30
0.0
 10
76.291889
 20
202.640319
 30
0.0
 10
75.737859
 20
202.594419
 30
0.0
 10
75.568999
 20
201.943659
 30
0.0
 10
75.366749
 20
201.291789
 30
0.0
 10
74.848409
 20
201.261149
 30
0.0
 10
74.570769
 20
201.884639
 30
0.0
 10
74.326399
 20
202.510969
 30
0.0
 10
73.770829
 20
202.491279
 30
0.0
 10
73.571419
 20
201.849219
 30
0.0
 10
73.338609
 20
201.207629
 30
0.0
 10
72.819399
 20
201.201529
 30
0.0
 10
72.571509
 20
201.837439
 30
0.0
 10
72.356989
 20
202.474609
 30
0.0
 10
71.801109
 20
202.481209
 30
0.0
 10
71.571599
 20
201.849289
 30
0.0
 10
71.308759
 20
201.219409
 30
0.0
 10
70.789839
 20
201.237809
 30
0.0
 10
70.572249
 20
201.884709
 30
0.0
 10
70.388069
 20
202.531299
 30
0.0
 10
69.833109
 20
202.564109
 30
0.0
 10
69.574019
 20
201.943729
 30
0.0
 10
69.281719
 20
201.326969
 30
0.0
 10
68.764249
 20
201.369849
 30
0.0
 10
68.577459
 20
202.026299
 30
0.0
 10
68.424009
 20
202.680869
 30
0.0
 10
67.871229
 20
202.739849
 30
0.0
 10
67.583129
 20
202.132389
 30
0.0
 10
67.262029
 20
201.530129
 30
0.0
 10
66.747159
 20
201.597399
 30
0.0
 10
66.591579
 20
202.261939
 30
0.0
 10
66.469209
 20
202.923029
 30
0.0
 10
65.919829
 20
203.008049
 30
0.0
 10
65.603359
 20
202.414869
 30
0.0
 10
65.254179
 20
201.828439
 30
0.0
 10
64.743069
 20
201.919949
 30
0.0
 10
64.619039
 20
202.591099
 30
0.0
 10
64.528029
 20
203.257229
 30
0.0
 10
63.983269
 20
203.368089
 30
0.0
 10
63.639149
 20
202.790529
 30
0.0
 10
63.262669
 20
202.221239
 30
0.0
 10
62.756439
 20
202.336789
 30
0.0
 10
62.664239
 20
203.013039
 30
0.0
 10
62.604789
 20
203.682719
 30
0.0
 10
62.065879
 20
203.819189
 30
0.0
 10
61.694869
 20
203.258519
 30
0.0
 10
61.291919
 20
202.707649
 30
0.0
 10
60.791709
 20
202.846969
 30
0.0
 10
60.731559
 20
203.526829
 30
0.0
 10
60.703799
 20
204.198569
 30
0.0
 10
60.171929
 20
204.360339
 30
0.0
 10
59.774849
 20
203.817809
 30
0.0
 10
59.346339
 20
203.286589
 30
0.0
 10
58.853269
 20
203.449369
 30
0.0
 10
58.825289
 20
204.131309
 30
0.0
 10
58.829289
 20
204.803619
 30
0.0
 10
58.305659
 20
204.990319
 30
0.0
 10
57.883399
 20
204.467149
 30
0.0
 10
57.430279
 20
203.956749
 30
0.0
 10
56.945449
 20
204.142639
 30
0.0
 10
56.949749
 20
204.825149
 30
0.0
 10
56.985489
 20
205.496509
 30
0.0
 10
56.471259
 20
205.707729
 30
0.0
 10
56.024769
 20
205.205089
 30
0.0
 10
55.548049
 20
204.716659
 30
0.0
 10
55.072539
 20
204.925239
 30
0.0
 10
55.109019
 20
205.606779
 30
0.0
 10
55.176419
 20
206.275699
 30
0.0
 10
54.672739
 20
206.510979
 30
0.0
 10
54.203009
 20
206.029979
 30
0.0
 10
53.703759
 20
205.564609
 30
0.0
 10
53.238629
 20
205.795409
 30
0.0
 10
53.307249
 20
206.474459
 30
0.0
 10
53.406169
 20
207.139459
 30
0.0
 10
52.914159
 20
207.398259
 30
0.0
 10
52.422229
 20
206.939979
 30
0.0
 10
51.901559
 20
206.498699
 30
0.0
 10
51.447849
 20
206.751209
 30
0.0
 10
51.548459
 20
207.426269
 30
0.0
 10
51.678679
 20
208.085849
 30
0.0
 10
51.199439
 20
208.367599
 30
0.0
 10
50.686419
 20
207.933059
 30
0.0
 10
50.145489
 20
207.516859
 30
0.0
 10
49.704209
 20
207.790519
 30
0.0
 10
49.836589
 20
208.460069
 30
0.0
 10
49.997809
 20
209.112769
 30
0.0
 10
49.532409
 20
209.416829
 30
0.0
 10
48.999439
 20
209.007009
 30
0.0
 10
48.439459
 20
208.616819
 30
0.0
 10
48.011599
 20
208.911009
 30
0.0
 10
48.175449
 20
209.573559
 30
0.0
 10
48.367309
 20
210.217919
 30
0.0
 10
47.916789
 20
210.543619
 30
0.0
 10
47.365059
 20
210.159419
 30
0.0
 10
46.787279
 20
209.796109
 30
0.0
 10
46.373779
 20
210.110179
 30
0.0
 10
46.568739
 20
210.764259
 30
0.0
 10
46.790819
 20
211.398829
 30
0.0
 10
46.356179
 20
211.745449
 30
0.0
 10
45.786929
 20
211.387729
 30
0.0
 10
45.192629
 20
211.052119
 30
0.0
 10
44.794429
 20
211.385359
 30
0.0
 10
45.020059
 20
212.029499
 30
0.0
 10
45.271849
 20
212.652879
 30
0.0
 10
44.854069
 20
213.019629
 30
0.0
 10
44.268559
 20
212.689199
 30
0.0
 10
43.659079
 20
212.382019
 30
0.0
 10
43.277059
 20
212.733699
 30
0.0
 10
43.532859
 20
213.366469
 30
0.0
 10
43.813809
 20
213.977259
 30
0.0
 10
43.413809
 20
214.363329
 30
0.0
 10
42.813349
 20
214.060919
 30
0.0
 10
42.190039
 20
213.782869
 30
0.0
 10
41.825049
 20
214.152189
 30
0.0
 10
42.110449
 20
214.772169
 30
0.0
 10
42.419929
 20
215.369019
 30
0.0
 10
42.038609
 20
215.773549
 30
0.0
 10
41.424539
 20
215.499829
 30
0.0
 10
40.788799
 20
215.251519
 30
0.0
 10
40.441659
 20
215.637669
 30
0.0
 10
40.756009
 20
216.243479
 30
0.0
 10
41.093329
 20
216.825049
 30
0.0
 10
40.731539
 20
217.247129
 30
0.0
 10
40.105229
 20
217.002719
 30
0.0
 10
39.458469
 20
216.784709
 30
0.0
 10
39.129949
 20
217.186819
 30
0.0
 10
39.472569
 20
217.777119
 30
0.0
 10
39.836979
 20
218.342099
 30
0.0
 10
39.495519
 20
218.780799
 30
0.0
 10
38.858369
 20
218.566239
 30
0.0
 10
38.202029
 20
218.379019
 30
0.0
 10
37.892869
 20
218.796189
 30
0.0
 10
38.262979
 20
219.369649
 30
0.0
 10
38.653659
 20
219.916789
 30
0.0
 10
38.333309
 20
220.371129
 30
0.0
 10
37.686729
 20
220.186889
 30
0.0
 10
37.022289
 20
220.030879
 30
0.0
 10
36.733169
 20
220.462189
 30
0.0
 10
37.129949
 20
221.017519
 30
0.0
 10
37.546039
 20
221.545609
 30
0.0
 10
37.247489
 20
222.014569
 30
0.0
 10
36.592939
 20
221.861069
 30
0.0
 10
35.921869
 20
221.736609
 30
0.0
 10
35.653439
 20
222.181089
 30
0.0
 10
36.075999
 20
222.717069
 30
0.0
 10
36.516559
 20
223.224909
 30
0.0
 10
36.240499
 20
223.707449
 30
0.0
 10
35.579419
 20
223.585029
 30
0.0
 10
34.903229
 20
223.492399
 30
0.0
 10
34.656089
 20
223.949059
 30
0.0
 10
35.103489
 20
224.464489
 30
0.0
 10
35.567539
 20
224.950959
 30
0.0
 10
35.314569
 20
225.445989
 30
0.0
 10
34.648459
 20
225.354939
 30
0.0
 10
33.968639
 20
225.294339
 30
0.0
 10
33.743349
 20
225.762159
 30
0.0
 10
34.214579
 20
226.255879
 30
0.0
 10
34.701089
 20
226.719899
 30
0.0
 10
34.471779
 20
227.226329
 30
0.0
 10
33.802109
 20
227.166829
 30
0.0
 10
33.120189
 20
227.138399
 30
0.0
 10
32.917239
 20
227.616339
 30
0.0
 10
33.411269
 20
228.087259
 30
0.0
 10
33.919149
 20
228.527789
 30
0.0
 10
33.714009
 20
229.044479
 30
0.0
 10
33.042269
 20
229.016669
 30
0.0
 10
32.359769
 20
229.020469
 30
0.0
 10
32.179619
 20
229.507459
 30
0.0
 10
32.695329
 20
229.954519
 30
0.0
 10
33.223449
 20
230.370569
 30
0.0
 10
33.042939
 20
230.896369
 30
0.0
 10
32.370639
 20
230.900269
 30
0.0
 10
31.689079
 20
230.936309
 30
0.0
 10
31.532129
 20
231.431269
 30
0.0
 10
32.068379
 20
231.853469
 30
0.0
 10
32.615549
 20
232.244119
 30
0.0
 10
32.460079
 20
232.777859
 30
0.0
 10
31.788709
 20
232.813549
 30
0.0
 10
31.109609
 20
232.881729
 30
0.0
 10
30.976209
 20
233.383549
 30
0.0
 10
31.531799
 20
233.779959
 30
0.0
 10
32.096809
 20
234.144329
 30
0.0
 10
31.966719
 20
234.684809
 30
0.0
 10
31.297789
 20
234.752169
 30
0.0
 10
30.622659
 20
234.852339
 30
0.0
 10
30.513109
 20
235.359899
 30
0.0
 10
31.086799
 20
235.729629
 30
0.0
 10
31.668389
 20
236.066909
 30
0.0
 10
31.563959
 20
236.612939
 30
0.0
 10
30.898959
 20
236.711809
 30
0.0
 10
30.229319
 20
236.843759
 30
0.0
 10
30.143859
 20
237.355919
 30
0.0
 10
30.734369
 20
237.698149
 30
0.0
 10
31.331239
 20
238.007589
 30
0.0
 10
31.252709
 20
238.557929
 30
0.0
 10
30.593119
 20
238.688099
 30
0.0
 10
29.930459
 20
238.851519
 30
0.0
 10
29.869279
 20
239.367149
 30
0.0
 10
30.475289
 20
239.681109
 30
0.0
 10
31.086109
 20
239.962019
 30
0.0
 10
31.033659
 20
240.515459
 30
0.0
 10
30.380949
 20
240.676629
 30
0.0
 10
29.726749
 20
240.871159
 30
0.0
 10
29.689979
 20
241.389099
 30
0.0
 10
30.310149
 20
241.674089
 30
0.0
 10
30.933549
 20
241.925839
 30
0.0
 10
30.907299
 20
242.481139
 30
0.0
 10
30.262929
 20
242.672949
 30
0.0
 10
29.618639
 20
242.898159
 30
0.0
 10
29.606369
 20
243.417269
 30
0.0
 10
30.239309
 20
243.672649
 30
0.0
 10
30.873899
 20
243.894679
 30
0.0
 10
30.873899
 20
244.450599
 30
0.0
 10
30.239309
 20
244.672629
 30
0.0
 10
29.606369
 20
244.928009
 30
0.0
 10
29.618639
 20
245.447119
 30
0.0
 10
30.262929
 20
245.672329
 30
0.0
 10
30.907299
 20
245.864139
 30
0.0
 10
30.933549
 20
246.419439
 30
0.0
 10
30.310149
 20
246.671189
 30
0.0
 10
29.689979
 20
246.956179
 30
0.0
 10
29.726749
 20
247.474119
 30
0.0
 10
30.380949
 20
247.668649
 30
0.0
 10
31.033659
 20
247.829819
 30
0.0
 10
31.086109
 20
248.383259
 30
0.0
 10
30.475289
 20
248.664169
 30
0.0
 10
29.869279
 20
248.978129
 30
0.0
 10
29.930459
 20
249.493759
 30
0.0
 10
30.593119
 20
249.657179
 30
0.0
 10
31.252709
 20
249.787349
 30
0.0
 10
31.331239
 20
250.337689
 30
0.0
 10
30.734369
 20
250.647129
 30
0.0
 10
30.143859
 20
250.989359
 30
0.0
 10
30.229319
 20
251.501519
 30
0.0
 10
30.898959
 20
251.633469
 30
0.0
 10
31.563959
 20
251.732339
 30
0.0
 10
31.668389
 20
252.278369
 30
0.0
 10
31.086799
 20
252.615649
 30
0.0
 10
30.513109
 20
252.985379
 30
0.0
 10
30.622659
 20
253.492939
 30
0.0
 10
31.297789
 20
253.593109
 30
0.0
 10
31.966719
 20
253.660469
 30
0.0
 10
32.096809
 20
254.200949
 30
0.0
 10
31.531799
 20
254.565319
 30
0.0
 10
30.976209
 20
254.961729
 30
0.0
 10
31.109609
 20
255.463549
 30
0.0
 10
31.788709
 20
255.531729
 30
0.0
 10
32.460079
 20
255.567419
 30
0.0
 10
32.615549
 20
256.101159
 30
0.0
 10
32.068379
 20
256.491809
 30
0.0
 10
31.532129
 20
256.914009
 30
0.0
 10
31.689079
 20
257.408969
 30
0.0
 10
32.370639
 20
257.445009
 30
0.0
 10
33.042939
 20
257.448909
 30
0.0
 10
33.223449
 20
257.974709
 30
0.0
 10
32.695329
 20
258.390759
 30
0.0
 10
32.179619
 20
258.837819
 30
0.0
 10
32.359769
 20
259.324809
 30
0.0
 10
33.042269
 20
259.328609
 30
0.0
 10
33.714009
 20
259.300799
 30
0.0
 10
33.919149
 20
259.817489
 30
0.0
 10
33.411269
 20
260.258019
 30
0.0
 10
32.917239
 20
260.728939
 30
0.0
 10
33.120189
 20
261.206879
 30
0.0
 10
33.802109
 20
261.178449
 30
0.0
 10
34.471779
 20
261.118949
 30
0.0
 10
34.701089
 20
261.625379
 30
0.0
 10
34.214579
 20
262.089399
 30
0.0
 10
33.743349
 20
262.583119
 30
0.0
 10
33.968639
 20
263.050939
 30
0.0
 10
34.648459
 20
262.990339
 30
0.0
 10
35.314569
 20
262.899289
 30
0.0
 10
35.567539
 20
263.394319
 30
0.0
 10
35.103489
 20
263.880789
 30
0.0
 10
34.656089
 20
264.396219
 30
0.0
 10
34.903229
 20
264.852879
 30
0.0
 10
35.579419
 20
264.760249
 30
0.0
 10
36.240499
 20
264.637829
 30
0.0
 10
36.516559
 20
265.120369
 30
0.0
 10
36.075999
 20
265.628209
 30
0.0
 10
35.653439
 20
266.164189
 30
0.0
 10
35.921869
 20
266.608669
 30
0.0
 10
36.592939
 20
266.484209
 30
0.0
 10
37.247489
 20
266.330709
 30
0.0
 10
37.546039
 20
266.799669
 30
0.0
 10
37.129949
 20
267.327759
 30
0.0
 10
36.733169
 20
267.883089
 30
0.0
 10
37.022289
 20
268.314399
 30
0.0
 10
37.686729
 20
268.158389
 30
0.0
 10
38.333309
 20
267.974149
 30
0.0
 10
38.653659
 20
268.428489
 30
0.0
 10
38.262979
 20
268.975629
 30
0.0
 10
37.892869
 20
269.549089
 30
0.0
 10
38.202029
 20
269.966259
 30
0.0
 10
38.858369
 20
269.779039
 30
0.0
 10
39.495519
 20
269.564479
 30
0.0
 10
39.836979
 20
270.003179
 30
0.0
 10
39.472569
 20
270.568159
 30
0.0
 10
39.129949
 20
271.158459
 30
0.0
 10
39.458469
 20
271.560569
 30
0.0
 10
40.105229
 20
271.342559
 30
0.0
 10
40.731539
 20
271.098149
 30
0.0
 10
41.093329
 20
271.520229
 30
0.0
 10
40.756009
 20
272.101799
 30
0.0
 10
40.441659
 20
272.707609
 30
0.0
 10
40.788799
 20
273.093759
 30
0.0
 10
41.424539
 20
272.845449
 30
0.0
 10
42.038609
 20
272.571729
 30
0.0
 10
42.419929
 20
272.976259
 30
0.0
 10
42.110449
 20
273.573109
 30
0.0
 10
41.825049
 20
274.193089
 30
0.0
 10
42.190039
 20
274.562409
 30
0.0
 10
42.813349
 20
274.284359
 30
0.0
 10
43.413809
 20
273.981949
 30
0.0
 10
43.813809
 20
274.368019
 30
0.0
 10
43.532859
 20
274.978809
 30
0.0
 10
43.277059
 20
275.611579
 30
0.0
 10
43.659079
 20
275.963259
 30
0.0
 10
44.268559
 20
275.656079
 30
0.0
 10
44.854069
 20
275.325649
 30
0.0
 10
45.271849
 20
275.692399
 30
0.0
 10
45.020059
 20
276.315779
 30
0.0
 10
44.794429
 20
276.959919
 30
0.0
 10
45.192629
 20
277.293159
 30
0.0
 10
45.786929
 20
276.957549
 30
0.0
 10
46.356179
 20
276.599829
 30
0.0
 10
46.790819
 20
276.946449
 30
0.0
 10
46.568739
 20
277.581019
 30
0.0
 10
46.373779
 20
278.235099
 30
0.0
 10
46.787279
 20
278.549169
 30
0.0
 10
47.365059
 20
278.185859
 30
0.0
 10
47.916789
 20
277.801659
 30
0.0
 10
48.367309
 20
278.127359
 30
0.0
 10
48.175449
 20
278.771719
 30
0.0
 10
48.011599
 20
279.434269
 30
0.0
 10
48.439459
 20
279.728459
 30
0.0
 10
48.999439
 20
279.338269
 30
0.0
 10
49.532409
 20
278.928449
 30
0.0
 10
49.997809
 20
279.232509
 30
0.0
 10
49.836589
 20
279.885209
 30
0.0
 10
49.704209
 20
280.554759
 30
0.0
 10
50.145489
 20
280.828419
 30
0.0
 10
50.686419
 20
280.412219
 30
0.0
 10
51.199439
 20
279.977679
 30
0.0
 10
51.678679
 20
280.259429
 30
0.0
 10
51.548459
 20
280.919009
 30
0.0
 10
51.447849
 20
281.594069
 30
0.0
 10
51.901559
 20
281.846579
 30
0.0
 10
52.422229
 20
281.405299
 30
0.0
 10
52.914159
 20
280.947019
 30
0.0
 10
53.406169
 20
281.205819
 30
0.0
 10
53.307249
 20
281.870819
 30
0.0
 10
53.238629
 20
282.549869
 30
0.0
 10
53.703759
 20
282.780669
 30
0.0
 10
54.203009
 20
282.315299
 30
0.0
 10
54.672739
 20
281.834299
 30
0.0
 10
55.176419
 20
282.069579
 30
0.0
 10
55.109019
 20
282.738499
 30
0.0
 10
55.072539
 20
283.420039
 30
0.0
 10
55.548049
 20
283.628619
 30
0.0
 10
56.024769
 20
283.140189
 30
0.0
 10
56.471259
 20
282.637549
 30
0.0
 10
56.985489
 20
282.848769
 30
0.0
 10
56.949749
 20
283.520129
 30
0.0
 10
56.945449
 20
284.202639
 30
0.0
 10
57.430279
 20
284.388529
 30
0.0
 10
57.883399
 20
283.878129
 30
0.0
 10
58.305659
 20
283.354959
 30
0.0
 10
58.829289
 20
283.541659
 30
0.0
 10
58.825289
 20
284.213969
 30
0.0
 10
58.853269
 20
284.895909
 30
0.0
 10
59.346339
 20
285.058689
 30
0.0
 10
59.774849
 20
284.527469
 30
0.0
 10
60.171929
 20
283.984939
 30
0.0
 10
60.703799
 20
284.146709
 30
0.0
 10
60.731559
 20
284.818449
 30
0.0
 10
60.791709
 20
285.498309
 30
0.0
 10
61.291919
 20
285.637629
 30
0.0
 10
61.694869
 20
285.086759
 30
0.0
 10
62.065879
 20
284.526089
 30
0.0
 10
62.604789
 20
284.662559
 30
0.0
 10
62.664239
 20
285.332239
 30
0.0
 10
62.756439
 20
286.008489
 30
0.0
 10
63.262669
 20
286.124039
 30
0.0
 10
63.639149
 20
285.554749
 30
0.0
 10
63.983269
 20
284.977189
 30
0.0
 10
64.528029
 20
285.088049
 30
0.0
 10
64.619039
 20
285.754179
 30
0.0
 10
64.743069
 20
286.425329
 30
0.0
 10
65.254179
 20
286.516839
 30
0.0
 10
65.603359
 20
285.930409
 30
0.0
 10
65.919829
 20
285.337229
 30
0.0
 10
66.469209
 20
285.422249
 30
0.0
 10
66.591579
 20
286.083339
 30
0.0
 10
66.747159
 20
286.747879
 30
0.0
 10
67.262029
 20
286.815149
 30
0.0
 10
67.583129
 20
286.212889
 30
0.0
 10
67.871229
 20
285.605429
 30
0.0
 10
68.424009
 20
285.664409
 30
0.0
 10
68.577459
 20
286.318979
 30
0.0
 10
68.764249
 20
286.975429
 30
0.0
 10
69.281719
 20
287.018309
 30
0.0
 10
69.574019
 20
286.401549
 30
0.0
 10
69.833109
 20
285.781169
 30
0.0
 10
70.388069
 20
285.813979
 30
0.0
 10
70.572249
 20
286.460569
 30
0.0
 10
70.789839
 20
287.107469
 30
0.0
 10
71.308759
 20
287.125869
 30
0.0
 10
71.571599
 20
286.495989
 30
0.0
 10
71.801109
 20
285.864069
 30
0.0
 10
72.356989
 20
285.870669
 30
0.0
 10
72.571509
 20
286.507859
 30
0.0
 10
72.819399
 20
287.143769
 30
0.0
 10
73.338609
 20
287.137669
 30
0.0
 10
73.571419
 20
286.496079
 30
0.0
 10
73.770829
 20
285.854019
 30
0.0
 10
74.326399
 20
285.834329
 30
0.0
 10
74.570769
 20
286.460659
 30
0.0
 10
74.848409
 20
287.084149
 30
0.0
 10
75.366749
 20
287.053509
 30
0.0
 10
75.568999
 20
286.401639
 30
0.0
 10
75.737859
 20
285.750879
 30
0.0
 10
76.291889
 20
285.704979
 30
0.0
 10
76.565559
 20
286.319069
 30
0.0
 10
76.872339
 20
286.928749
 30
0.0
 10
77.388659
 20
286.873659
 30
0.0
 10
77.559889
 20
286.212979
 30
0.0
 10
77.697839
 20
285.554969
 30
0.0
 10
78.249079
 20
285.482949
 30
0.0
 10
78.551439
 20
286.083429
 30
0.0
 10
78.886669
 20
286.677939
 30
0.0
 10
79.399809
 20
286.598529
 30
0.0
 10
79.539659
 20
285.930499
 30
0.0
 10
79.646369
 20
285.266709
 30
0.0
 10
80.193589
 20
285.168739
 30
0.0
 10
80.523979
 20
285.754269
 30
0.0
 10
80.886919
 20
286.332289
 30
0.0
 10
81.395729
 20
286.228729
 30
0.0
 10
81.503869
 20
285.554839
 30
0.0
 10
81.579119
 20
284.886749
 30
0.0
 10
82.121109
 20
284.763049
 30
0.0
 10
82.478779
 20
285.332329
 30
0.0
 10
82.868599
 20
285.892559
 30
0.0
 10
83.371959
 20
285.765089
 30
0.0
 10
83.448149
 20
285.086849
 30
0.0
 10
83.491769
 20
284.415949
 30
0.0
 10
84.027309
 20
284.266789
 30
0.0
 10
84.411459
 20
284.818539
 30
0.0
 10
84.827309
 20
285.359739
 30
0.0
 10
85.324089
 20
285.208639
 30
0.0
 10
85.368169
 20
284.527559
 30
0.0
 10
85.380049
 20
283.855349
 30
0.0
 10
85.907949
 20
283.681059
 30
0.0
 10
86.317729
 20
284.214059
 30
0.0
 10
86.758669
 20
284.735019
 30
0.0
 10
87.247759
 20
284.560629
 30
0.0
 10
87.259629
 20
283.878219
 30
0.0
 10
87.239749
 20
283.206199
 30
0.0
 10
87.758829
 20
283.007179
 30
0.0
 10
88.193329
 20
283.520219
 30
0.0
 10
88.658379
 20
284.019779
 30
0.0
 10
89.138679
 20
283.822489
 30
0.0
 10
89.118309
 20
283.140279
 30
0.0
 10
89.066719
 20
282.469949
 30
0.0
 10
89.575819
 20
282.246639
 30
0.0
 10
90.034059
 20
282.738589
 30
0.0
 10
90.522179
 20
283.215629
 30
0.0
 10
90.992639
 20
282.995879
 30
0.0
 10
90.940069
 20
282.315389
 30
0.0
 10
90.856889
 20
281.648239
 30
0.0
 10
91.354869
 20
281.401139
 30
0.0
 10
91.835829
 20
281.870909
 30
0.0
 10
92.345939
 20
282.324359
 30
0.0
 10
92.805489
 20
282.082639
 30
0.0
 10
92.720849
 20
281.405389
 30
0.0
 10
92.606249
 20
280.742919
 30
0.0
 10
93.092009
 20
280.472569
 30
0.0
 10
93.594619
 20
280.919099
 30
0.0
 10
94.125569
 20
281.347959
 30
0.0
 10
94.573189
 20
281.084799
 30
0.0
 10
94.456659
 20
280.412309
 30
0.0
 10
94.310899
 20
279.755989
 30
0.0
 10
94.783349
 20
279.462999
 30
0.0
 10
95.306489
 20
279.885299
 30
0.0
 10
95.857099
 20
280.288599
 30
0.0
 10
96.291789
 20
280.004599
 30
0.0
 10
96.143639
 20
279.338359
 30
0.0
 10
95.967049
 20
278.689659
 30
0.0
 10
96.425139
 20
278.374689
 30
0.0
 10
96.967629
 20
278.771809
 30
0.0
 10
97.536669
 20
279.148659
 30
0.0
 10
97.957469
 20
278.844449
 30
0.0
 10
97.778019
 20
278.185949
 30
0.0
 10
97.570989
 20
277.546299
 30
0.0
 10
98.013689
 20
277.210049
 30
0.0
 10
98.574339
 20
277.581109
 30
0.0
 10
99.160539
 20
277.930669
 30
0.0
 10
99.566499
 20
277.606929
 30
0.0
 10
99.356149
 20
276.957639
 30
0.0
 10
99.119149
 20
276.328479
 30
0.0
 10
99.545479
 20
275.971699
 30
0.0
 10
100.123020
 20
276.315869
 30
0.0
 10
100.725080
 20
276.637359
 30
0.0
 10
101.115300
 20
276.294799
 30
0.0
 10
100.874520
 20
275.656169
 30
0.0
 10
100.608070
 20
275.038909
 30
0.0
 10
101.017080
 20
274.662389
 30
0.0
 10
101.610220
 20
274.978899
 30
0.0
 10
102.226790
 20
275.271599
 30
0.0
 10
102.600400
 20
274.910999
 30
0.0
 10
102.329730
 20
274.284449
 30
0.0
 10
102.034430
 20
273.680459
 30
0.0
 10
102.425200
 20
273.285049
 30
0.0
 10
103.032630
 20
273.573199
 30
0.0
 10
103.662330
 20
273.836449
 30
0.0
 10
104.018500
 20
273.458609
 30
0.0
 10
103.718540
 20
272.845539
 30
0.0
 10
103.395050
 20
272.256169
 30
0.0
 10
103.766710
 20
271.842749
 30
0.0
 10
104.387070
 20
272.101889
 30
0.0
 10
105.028500
 20
272.335109
 30
0.0
 10
105.366420
 20
271.940869
 30
0.0
 10
105.037850
 20
271.342649
 30
0.0
 10
104.686880
 20
270.769209
 30
0.0
 10
105.038600
 20
270.338699
 30
0.0
 10
105.670510
 20
270.568249
 30
0.0
 10
106.322240
 20
270.770919
 30
0.0
 10
106.641170
 20
270.361169
 30
0.0
 10
106.284710
 20
269.779129
 30
0.0
 10
105.907060
 20
269.222909
 30
0.0
 10
106.238060
 20
268.776269
 30
0.0
 10
106.880100
 20
268.975719
 30
0.0
 10
107.540670
 20
269.147389
 30
0.0
 10
107.839890
 20
268.723029
 30
0.0
 10
107.456350
 20
268.158479
 30
0.0
 10
107.052850
 20
267.620709
 30
0.0
 10
107.362380
 20
267.158929
 30
0.0
 10
108.013130
 20
267.327849
 30
0.0
 10
108.681080
 20
267.468129
 30
0.0
 10
108.959920
 20
267.030109
 30
0.0
 10
108.550140
 20
266.484299
 30
0.0
 10
108.121700
 20
265.966189
 30
0.0
 10
108.409080
 20
265.490309
 30
0.0
 10
109.067080
 20
265.628299
 30
0.0
 10
109.740900
 20
265.736879
 30
0.0
 10
109.998750
 20
265.286179
 30
0.0
 10
109.563660
 20
264.760339
 30
0.0
 10
109.111220
 20
264.263039
 30
0.0
 10
109.375810
 20
263.774119
 30
0.0
 10
110.039590
 20
263.880879
 30
0.0
 10
110.717790
 20
263.957519
 30
0.0
 10
110.954070
 20
263.495149
 30
0.0
 10
110.494620
 20
262.990429
 30
0.0
 10
110.019210
 20
262.515049
 30
0.0
 10
110.260410
 20
262.014189
 30
0.0
 10
110.928500
 20
262.089489
 30
0.0
 10
111.609560
 20
262.134009
 30
0.0
 10
111.823740
 20
261.660999
 30
0.0
 10
111.340970
 20
261.178539
 30
0.0
 10
110.843640
 20
260.726139
 30
0.0
 10
111.060920
 20
260.214439
 30
0.0
 10
111.731810
 20
260.258109
 30
0.0
 10
112.414220
 20
260.270419
 30
0.0
 10
112.605820
 20
259.787819
 30
0.0
 10
112.100810
 20
259.328699
 30
0.0
 10
111.582660
 20
258.900299
 30
0.0
 10
111.775540
 20
258.378909
 30
0.0
 10
112.447750
 20
258.390839
 30
0.0
 10
113.129970
 20
258.370909
 30
0.0
 10
113.298570
 20
257.879799
 30
0.0
 10
112.772440
 20
257.445049
 30
0.0
 10
112.234640
 20
257.041589
 30
0.0
 10
112.402680
 20
256.511669
 30
0.0
 10
113.074700
 20
256.491849
 30
0.0
 10
113.755220
 20
256.439719
 30
0.0
 10
113.900440
 20
255.941199
 30
0.0
 10
113.354370
 20
255.531769
 30
0.0
 10
112.798120
 20
255.154159
 30
0.0
 10
112.940940
 20
254.616899
 30
0.0
 10
113.611280
 20
254.565359
 30
0.0
 10
114.288580
 20
254.481159
 30
0.0
 10
114.410090
 20
253.976329
 30
0.0
 10
113.845290
 20
253.593149
 30
0.0
 10
113.271830
 20
253.242229
 30
0.0
 10
113.389130
 20
252.698819
 30
0.0
 10
114.056280
 20
252.615689
 30
0.0
 10
114.728850
 20
252.499589
 30
0.0
 10
114.826350
 20
251.989589
 30
0.0
 10
114.244080
 20
251.633509
 30
0.0
 10
113.654690
 20
251.310059
 30
0.0
 10
113.746190
 20
250.761719
 30
0.0
 10
114.408670
 20
250.647169
 30
0.0
 10
115.075010
 20
250.499449
 30
0.0
 10
115.148310
 20
249.985409
 30
0.0
 10
114.549880
 20
249.657219
 30
0.0
 10
113.945870
 20
249.361969
 30
0.0
 10
114.011370
 20
248.809919
 30
0.0
 10
114.667710
 20
248.664209
 30
0.0
 10
115.326320
 20
248.485179
 30
0.0
 10
115.375320
 20
247.968249
 30
0.0
 10
114.762060
 20
247.668689
 30
0.0
 10
114.144780
 20
247.402289
 30
0.0
 10
114.184180
 20
246.847769
 30
0.0
 10
114.832900
 20
246.671229
 30
0.0
 10
115.482330
 20
246.461299
 30
0.0
 10
115.506830
 20
245.942629
 30
0.0
 10
114.880100
 20
245.672369
 30
0.0
 10
114.250930
 20
245.435409
 30
0.0
  0
SPLINE
  5
110
100
AcDbEntity
  8
Layer_1
 62
7
100
AcDbSpline
 70
8
 71
3
 72
8
 73
4
 74
0
 40
0
 40
0
 40
0
 40
0
 40
1
 40
1
 40
1
 40
1
 10
125.225479
 20
261.334831
 30
0.0
 10
125.225479
 20
256.834832
 30
0.0
 10
125.225479
 20
256.834832
 30
0.0
 10
125.225479
 20
256.834832
 30
0.0
  0
SPLINE
  5
111
100
AcDbEntity
  8
Layer_1
 62
7
100
AcDbSpline
 70
8
 71
3
 72
8
 73
4
 74
0
 40
0
 40
0
 40
0
 40
0
 40
1
 40
1
 40
1
 40
1
 10
127.885479
 20
261.352678
 30
0.0
 10
127.885479
 20
256.852678
 30
0.0
 10
127.885479
 20
256.852678
 30
0.0
 10
127.885479
 20
256.852678
 30
0.0
  0
SPLINE
  5
112
100
AcDbEntity
  8
Layer_1
 62
7
100
AcDbSpline
 70
8
 71
3
 72
8
 73
4
 74
0
 40
0
 40
0
 40
0
 40
0
 40
1
 40
1
 40
1
 40
1
 10
127.976699
 20
257.054702
 30
0.0
 10
127.119025
 20
256.524562
 30
0.0
 10
125.996962
 20
256.534507
 30
0.0
 10
125.150469
 20
257.079752
 30
0.0
  0
SPLINE
  5
113
100
AcDbEntity
  8
Layer_1
 62
7
100
AcDbSpline
 70
8
 71
3
 72
8
 73
4
 74
0
 40
0
 40
0
 40
0
 40
0
 40
1
 40
1
 40
1
 40
1
 10
125.125669
 20
261.334834
 30
0.0
 10
125.983343
 20
261.864974
 30
0.0
 10
127.105406
 20
261.855029
 30
0.0
 10
127.951899
 20
261.309784
 30
0.0
  0
LWPOLYLINE
  5
114
100
AcDbEntity
  8
Layer_1
 62
7
100
AcDbPolyline
 90
152
 70
1
 10
131.891809
 20
259.724353
 30
0.0
 10
132.162399
 20
259.750843
 30
0.0
 10
132.533509
 20
259.696603
 30
0.0
 10
133.187189
 20
259.416313
 30
0.0
 10
133.187189
 20
258.978033
 30
0.0
 10
132.533509
 20
258.697743
 30
0.0
 10
132.162399
 20
258.643503
 30
0.0
 10
131.891809
 20
258.669993
 30
0.0
 10
131.771179
 20
257.947113
 30
0.0
 10
132.035709
 20
257.884303
 30
0.0
 10
132.369099
 20
257.712503
 30
0.0
 10
132.896359
 20
257.235153
 30
0.0
 10
132.754049
 20
256.820623
 30
0.0
 10
132.044769
 20
256.767763
 30
0.0
 10
131.676159
 20
256.836963
 30
0.0
 10
131.428829
 20
256.949873
 30
0.0
 10
131.080019
 20
256.305333
 30
0.0
 10
131.309829
 20
256.160033
 30
0.0
 10
131.569369
 20
255.889293
 30
0.0
 10
131.913059
 20
255.266603
 30
0.0
 10
131.643859
 20
254.920743
 30
0.0
 10
130.955859
 20
255.101053
 30
0.0
 10
130.629679
 20
255.286183
 30
0.0
 10
130.432419
 20
255.473293
 30
0.0
 10
129.893219
 20
254.976933
 30
0.0
 10
130.063399
 20
254.764883
 30
0.0
 10
130.220969
 20
254.424543
 30
0.0
 10
130.343849
 20
253.723993
 30
0.0
 10
129.976939
 20
253.484273
 30
0.0
 10
129.384759
 20
253.878213
 30
0.0
 10
129.136369
 20
254.159233
 30
0.0
 10
129.010539
 20
254.400253
 30
0.0
 10
128.339399
 20
254.105853
 30
0.0
 10
128.431499
 20
253.850043
 30
0.0
 10
128.469999
 20
253.476973
 30
0.0
 10
128.358749
 20
252.774483
 30
0.0
 10
127.933879
 20
252.666893
 30
0.0
 10
127.501699
 20
253.231773
 30
0.0
 10
127.358019
 20
253.578213
 30
0.0
 10
127.317219
 20
253.847023
 30
0.0
 10
126.586849
 20
253.786503
 30
0.0
 10
126.590849
 20
253.514653
 30
0.0
 10
126.506149
 20
253.149283
 30
0.0
 10
126.172829
 20
252.520983
 30
0.0
 10
125.736049
 20
252.557173
 30
0.0
 10
125.510699
 20
253.231773
 30
0.0
 10
125.487299
 20
253.606093
 30
0.0
 10
125.535999
 20
253.873573
 30
0.0
 10
124.825559
 20
254.053483
 30
0.0
 10
124.741159
 20
253.795043
 30
0.0
 10
124.542409
 20
253.476973
 30
0.0
 10
124.023149
 20
252.990943
 30
0.0
 10
123.621789
 20
253.166993
 30
0.0
 10
123.627789
 20
253.878213
 30
0.0
 10
123.727189
 20
254.239853
 30
0.0
 10
123.860139
 20
254.477013
 30
0.0
 10
123.246599
 20
254.877863
 30
0.0
 10
123.082819
 20
254.660843
 30
0.0
 10
122.791569
 20
254.424543
 30
0.0
 10
122.142629
 20
254.133443
 30
0.0
 10
121.820169
 20
254.430283
 30
0.0
 10
122.056679
 20
255.101053
 30
0.0
 10
122.268119
 20
255.410823
 30
0.0
 10
122.470879
 20
255.591963
 30
0.0
 10
122.020739
 20
256.170303
 30
0.0
 10
121.795369
 20
256.018223
 30
0.0
 10
121.443169
 20
255.889293
 30
0.0
 10
120.734869
 20
255.824683
 30
0.0
 10
120.526269
 20
256.210133
 30
0.0
 10
120.967769
 20
256.767763
 30
0.0
 10
121.268329
 20
256.992093
 30
0.0
 10
121.518919
 20
257.097593
 30
0.0
 10
121.280959
 20
257.790753
 30
0.0
 10
121.018409
 20
257.720083
 30
0.0
 10
120.643439
 20
257.712483
 30
0.0
 10
119.952529
 20
257.881363
 30
0.0
 10
119.880429
 20
258.313663
 30
0.0
 10
120.479059
 20
258.697723
 30
0.0
 10
120.836179
 20
258.812303
 30
0.0
 10
121.107439
 20
258.830713
 30
0.0
 10
121.107439
 20
259.563593
 30
0.0
 10
120.836179
 20
259.582003
 30
0.0
 10
120.479059
 20
259.696583
 30
0.0
 10
119.880429
 20
260.080643
 30
0.0
 10
119.952529
 20
260.512943
 30
0.0
 10
120.643439
 20
260.681823
 30
0.0
 10
121.018409
 20
260.674223
 30
0.0
 10
121.280959
 20
260.603553
 30
0.0
 10
121.518919
 20
261.296713
 30
0.0
 10
121.268329
 20
261.402213
 30
0.0
 10
120.967769
 20
261.626543
 30
0.0
 10
120.526269
 20
262.184173
 30
0.0
 10
120.734869
 20
262.569623
 30
0.0
 10
121.443169
 20
262.505013
 30
0.0
 10
121.795369
 20
262.376083
 30
0.0
 10
122.020739
 20
262.224003
 30
0.0
 10
122.470879
 20
262.802343
 30
0.0
 10
122.268119
 20
262.983483
 30
0.0
 10
122.056679
 20
263.293253
 30
0.0
 10
121.820169
 20
263.964023
 30
0.0
 10
122.142629
 20
264.260863
 30
0.0
 10
122.791569
 20
263.969763
 30
0.0
 10
123.082819
 20
263.733463
 30
0.0
 10
123.246599
 20
263.516443
 30
0.0
 10
123.860139
 20
263.917293
 30
0.0
 10
123.727189
 20
264.154453
 30
0.0
 10
123.627789
 20
264.516093
 30
0.0
 10
123.621789
 20
265.227313
 30
0.0
 10
124.023149
 20
265.403363
 30
0.0
 10
124.542409
 20
264.917333
 30
0.0
 10
124.741159
 20
264.599263
 30
0.0
 10
124.825559
 20
264.340823
 30
0.0
 10
125.535999
 20
264.520733
 30
0.0
 10
125.487299
 20
264.788213
 30
0.0
 10
125.510699
 20
265.162533
 30
0.0
 10
125.736049
 20
265.837133
 30
0.0
 10
126.172829
 20
265.873323
 30
0.0
 10
126.506149
 20
265.245023
 30
0.0
 10
126.590849
 20
264.879653
 30
0.0
 10
126.586849
 20
264.607803
 30
0.0
 10
127.317219
 20
264.547283
 30
0.0
 10
127.358019
 20
264.816093
 30
0.0
 10
127.501699
 20
265.162533
 30
0.0
 10
127.933879
 20
265.727413
 30
0.0
 10
128.358749
 20
265.619823
 30
0.0
 10
128.469999
 20
264.917333
 30
0.0
 10
128.431499
 20
264.544263
 30
0.0
 10
128.339399
 20
264.288453
 30
0.0
 10
129.010539
 20
263.994053
 30
0.0
 10
129.136369
 20
264.235073
 30
0.0
 10
129.384759
 20
264.516093
 30
0.0
 10
129.976939
 20
264.910033
 30
0.0
 10
130.343849
 20
264.670313
 30
0.0
 10
130.220969
 20
263.969763
 30
0.0
 10
130.063399
 20
263.629423
 30
0.0
 10
129.893219
 20
263.417373
 30
0.0
 10
130.432419
 20
262.921013
 30
0.0
 10
130.629679
 20
263.108123
 30
0.0
 10
130.955859
 20
263.293253
 30
0.0
 10
131.643859
 20
263.473563
 30
0.0
 10
131.913059
 20
263.127703
 30
0.0
 10
131.569369
 20
262.505013
 30
0.0
 10
131.309829
 20
262.234273
 30
0.0
 10
131.080019
 20
262.088973
 30
0.0
 10
131.428829
 20
261.444433
 30
0.0
 10
131.676159
 20
261.557343
 30
0.0
 10
132.044769
 20
261.626543
 30
0.0
 10
132.754049
 20
261.573683
 30
0.0
 10
132.896359
 20
261.159153
 30
0.0
 10
132.369099
 20
260.681803
 30
0.0
 10
132.035709
 20
260.510003
 30
0.0
 10
131.771179
 20
260.447193
 30
0.0
  0
ENDSEC
  0
SECTION
  2
OBJECTS
  0
DICTIONARY
  5
C
330
0
100
AcDbDictionary
  3
ACAD_GROUP
350
D
  3
ACAD_MLINESTYLE
350
17
  0
DICTIONARY
  5
D
330
C
100
AcDbDictionary
  0
DICTIONARY
  5
1A
330
C
100
AcDbDictionary
  0
DICTIONARY
  5
17
330
C
100
AcDbDictionary
  3
STANDARD
350
18
  0
DICTIONARY
  5
19
330
C
100
AcDbDictionary
  0
ENDSEC
  0
EOF
