<?xml version="1.0" encoding="UTF-8" standalone="no"?>
<!-- Created with Inkscape (http://www.inkscape.org/) -->

<svg
   xmlns:dc="http://purl.org/dc/elements/1.1/"
   xmlns:cc="http://creativecommons.org/ns#"
   xmlns:rdf="http://www.w3.org/1999/02/22-rdf-syntax-ns#"
   xmlns:svg="http://www.w3.org/2000/svg"
   xmlns="http://www.w3.org/2000/svg"
   xmlns:sodipodi="http://sodipodi.sourceforge.net/DTD/sodipodi-0.dtd"
   xmlns:inkscape="http://www.inkscape.org/namespaces/inkscape"
   width="210mm"
   height="297mm"
   viewBox="0 0 210 297"
   version="1.1"
   id="svg848"
   inkscape:version="0.92.2 (5c3e80d, 2017-08-06)"
   sodipodi:docname="cogs2.svg">
  <sodipodi:namedview
     id="base"
     pagecolor="#ffffff"
     bordercolor="#666666"
     borderopacity="1.0"
     inkscape:pageopacity="0.0"
     inkscape:pageshadow="2"
     inkscape:zoom="1.4"
     inkscape:cx="492.54258"
     inkscape:cy="964.80262"
     inkscape:document-units="mm"
     inkscape:current-layer="layer1"
     showgrid="false"
     inkscape:window-width="1440"
     inkscape:window-height="825"
     inkscape:window-x="-9"
     inkscape:window-y="-9"
     inkscape:window-maximized="1"
     inkscape:measure-start="631.071,932.946"
     inkscape:measure-end="601.429,925.625" />
  <defs
     id="defs842" />
  <metadata
     id="metadata845">
    <rdf:RDF>
      <cc:Work
         rdf:about="">
        <dc:format>image/svg+xml</dc:format>
        <dc:type
           rdf:resource="http://purl.org/dc/dcmitype/StillImage" />
        <dc:title></dc:title>
      </cc:Work>
    </rdf:RDF>
  </metadata>
  <g
     id="layer1"
     inkscape:groupmode="layer"
     inkscape:label="Layer 1">
    <g
       id="g1400"
       inkscape:label="Gear19"
       transform="translate(120.00744,20.13244)">
      <path
         id="path1396"
         style="fill:none;stroke:#000000;stroke-width:0.26458332"
         d="m 5.38553,-0.52718 0.27059,-0.02649 0.37111,0.05424 0.65368,0.28029 V 0.21914 L 6.02723,0.49943 5.65612,0.55367 5.38553,0.52718 5.2649,1.25006 5.52943,1.31287 5.86282,1.48467 6.39008,1.96202 6.24777,2.37655 5.53849,2.42941 5.16988,2.36021 4.92255,2.2473 4.57374,2.89184 4.80355,3.03714 5.06309,3.30788 5.40678,3.93057 5.13758,4.27643 4.44958,4.09612 4.1234,3.91099 3.92614,3.72388 3.38694,4.22024 3.55712,4.43229 3.71469,4.77263 3.83757,5.47318 3.47066,5.7129 2.87848,5.31896 2.63009,5.03794 2.50426,4.79692 1.83312,5.09132 1.92522,5.34713 1.96375,5.7202 1.8525,6.42269 1.42763,6.53028 0.99545,5.9654 0.85177,5.61896 0.81102,5.35015 0.08065,5.41067 0.0847,5.68252 0,6.04789 -0.33332,6.67619 -0.7701,6.64 -0.99545,5.9654 -1.01886,5.59108 -0.97012,5.3236 -1.68056,5.14369 -1.765,5.40213 -1.96375,5.7202 -2.48301,6.20623 -2.88437,6.03018 -2.87848,5.31896 -2.77907,4.95732 -2.64612,4.72016 -3.25966,4.31931 -3.42344,4.53633 -3.71469,4.77263 -4.36363,5.06373 -4.68609,4.76689 -4.44958,4.09612 -4.23814,3.78635 -4.03538,3.60521 -4.48552,3.02687 -4.71089,3.17895 -5.06309,3.30788 -5.77139,3.37249 -5.97999,2.98704 -5.53849,2.42941 -5.23793,2.20508 -4.98734,2.09958 -5.2253,1.40642 -5.48785,1.47709 -5.86282,1.48467 -6.55373,1.31579 -6.62586,0.88349 -6.02723,0.49943 -5.67011,0.38485 -5.39885,0.36644 v -0.73288 l -0.27126,-0.01841 -0.35712,-0.11458 -0.59863,-0.38406 0.07213,-0.4323 0.69091,-0.16888 0.37497,0.00758 0.26255,0.07067 0.23796,-0.69316 -0.25059,-0.1055 -0.30056,-0.22433 -0.4415,-0.55763 0.2086,-0.38545 0.7083,0.06461 0.3522,0.12893 0.22537,0.15208 0.45014,-0.57834 -0.20276,-0.18114 -0.21144,-0.30977 -0.23651,-0.67077 0.32246,-0.29684 0.64894,0.2911 0.29125,0.2363 0.16378,0.21702 0.61354,-0.40085 -0.13295,-0.23716 -0.09941,-0.36164 -0.00589,-0.71122 0.40136,-0.17605 0.51926,0.48603 0.19875,0.31807 0.08444,0.25844 L -0.97012,-5.3236 -1.01886,-5.59108 -0.99545,-5.9654 -0.7701,-6.64 -0.33332,-6.67619 0,-6.04789 l 0.0847,0.36537 -0.00405,0.27185 0.73037,0.06052 0.04075,-0.26881 0.14368,-0.34644 0.43218,-0.56488 0.42487,0.10759 0.11125,0.70249 -0.03853,0.37307 -0.0921,0.25581 0.67114,0.2944 0.12583,-0.24102 0.24839,-0.28102 0.59218,-0.39394 0.36691,0.23972 -0.12288,0.70055 -0.15757,0.34034 -0.17018,0.21205 0.5392,0.49636 0.19726,-0.18711 0.32618,-0.18513 0.688,-0.18031 0.2692,0.34586 -0.34369,0.62269 -0.25954,0.27074 -0.22981,0.1453 0.34881,0.64454 0.24733,-0.11291 0.36861,-0.0692 0.70928,0.05286 0.14231,0.41453 -0.52726,0.47735 -0.33339,0.1718 -0.26453,0.06281 z"
         inkscape:connector-curvature="0" />
      <circle
         id="path1398"
         style="fill:none;stroke:#000000;stroke-width:0.26458332"
         cx="0"
         cy="0"
         r="2" />
    </g>
    <path
       id="path1416"
       style="fill:none;stroke:#000000;stroke-width:0.26458332"
       d="m 114.26403,52.120411 0.63966,0.20698 0.63879,0.24037 v 0.51924 l -0.63879,0.24037 -0.63966,0.20698 -0.0131,0.55576 0.62917,0.23696 0.62673,0.27026 -0.0245,0.51867 -0.64943,0.20993 -0.64872,0.17654 -0.0394,0.55452 0.61728,0.2664 0.61326,0.29956 -0.049,0.51693 -0.65861,0.17903 -0.65634,0.14571 -0.0655,0.55205 0.60401,0.29525 0.59843,0.32819 -0.0733,0.51404 -0.66634,0.14772 -0.66248,0.11455 -0.0915,0.54834 0.58939,0.32345 0.58227,0.35608 -0.0975,0.51 -0.67257,0.1161 -0.66715,0.08313 -0.1173,0.54341 0.57346,0.35092 0.5648,0.38318 -0.12151,0.50483 -0.6773,0.0842 -0.67034,0.05154 -0.14282,0.53726 0.55625,0.37761 0.54607,0.40943 -0.14522,0.49852 -0.68052,0.05213 -0.67202,0.01982 -0.16804,0.52992 0.5378,0.40346 0.52613,0.43475 -0.1686,0.49111 -0.68222,0.01993 -0.67221,-0.01193 -0.19288,0.52139 0.51815,0.4284 0.50501,0.45912 -0.1916,0.4826 -0.68241,-0.01231 -0.67089,-0.04367 -0.21728,0.5117 0.49733,0.4524 0.48277,0.48246 -0.21418,0.47301 -0.68106,-0.04452 -0.66809,-0.0753 -0.2412,0.50086 0.47541,0.47538 0.45945,0.50472 -0.23628,0.46237 -0.6782,-0.07664 -0.66378,-0.10676 -0.26459,0.48892 0.45244,0.4973 0.43509,0.52584 -0.25785,0.4507 -0.67382,-0.10858 -0.658,-0.13799 -0.28738,0.47588 0.42844,0.51811 0.40978,0.54581 -0.27884,0.43802 -0.66795,-0.14028 -0.65075,-0.16892 -0.30953,0.46178 0.4035,0.53777 0.38354,0.56455 -0.29922,0.42436 -0.66057,-0.17167 -0.64204,-0.19945 -0.331,0.44664 0.37765,0.55622 0.35646,0.58204 -0.31893,0.40975 -0.65173,-0.20267 -0.63191,-0.22955 -0.35172,0.43051 0.35097,0.57344 0.32857,0.59822 -0.33792,0.39424 -0.64143,-0.23322 -0.62036,-0.25914 -0.37166,0.41342 0.32349,0.58937 0.29996,0.61307 -0.35617,0.37784 -0.6297,-0.26325 -0.60743,-0.28815 -0.39077,0.39541 0.2953,0.60399 0.27067,0.62655 -0.37361,0.3606 -0.61657,-0.2927 -0.59314,-0.31651 -0.40901,0.37652 0.26645,0.61726 0.24078,0.63863 -0.39022,0.34256 -0.60206,-0.32149 -0.577541,-0.34417 -0.42633,0.35678 0.237,0.62916 0.21035,0.64929 -0.40596,0.32374 -0.5862,-0.34956 -0.56065,-0.37106 -0.4427,0.33625 0.20703,0.63965 0.17945,0.6585 -0.4208,0.30421 -0.56904,-0.37685 -0.54249,-0.39712 -0.45809,0.31497 0.17659,0.6487 0.14815,0.66624 -0.43469,0.284 -0.55061,-0.4033 -0.52314,-0.4223 -0.47245,0.29299 0.14576,0.65632 0.11653,0.67249 -0.44762,0.26316 -0.53095,-0.42886 -0.50261,-0.44653 -0.48576,0.27035 0.1146,0.66247 0.08464,0.67725 -0.45955,0.24172 -0.51011,-0.45345 -0.48096,-0.46977 -0.49798,0.2471 0.08318,0.66715 0.05257,0.68049 -0.47046,0.21975 -0.48812,-0.47704 -0.45824,-0.49195 -0.5091,0.22331 0.05159,0.67033 0.02037,0.68221 -0.4803,0.19729 -0.46505,-0.49956 -0.4345,-0.51304 -0.51908,0.19902 0.01988,0.67202 -0.01187,0.68241 -0.48909,0.17439 -0.44094,-0.52096 -0.40978,-0.533 -0.5279,0.17429 -0.01188,0.67221 -0.04408,0.68108 -0.49678,0.1511 -0.41585,-0.5412 -0.38415,-0.55175 -0.53554,0.14916 -0.04362,0.6709 -0.07619,0.67824 -0.50336,0.12747 -0.38982,-0.56023 -0.35767,-0.56928 -0.54199,0.1237 -0.07525,0.66809 -0.10814,0.67389 -0.50881,0.10356 -0.36294,-0.57802 -0.33039,-0.58553 -0.54722,0.09797 -0.10671,0.66379 -0.13985,0.66803 -0.51314,0.07941 -0.33523,-0.59451 -0.30236,-0.60048 -0.55124,0.07202 -0.13795,0.65801 -0.17123,0.66068 -0.51632,0.05509 -0.30678,-0.60968 -0.27367,-0.61409 -0.55403,0.0459 -0.16886,0.65076 -0.20225,0.65187 -0.51834,0.03064 -0.27764,-0.62349 -0.24437,-0.62633 -0.55557,0.01969 -0.19941,0.64206 -0.23281,0.64159 -0.51921,0.0061 -0.24789,-0.63591 -0.21452,-0.63717 -0.55588,-0.0066 -0.22951,0.63192 -0.26284,0.62988 -0.51892,-0.0184 -0.21759,-0.6469 -0.18418,-0.64659 -0.55496,-0.03281 -0.25909,0.62038 -0.2923,0.61676 -0.51747,-0.04288 -0.18679,-0.65645 -0.15345,-0.65457 -0.55278,-0.05898 -0.2881,0.60746 -0.3211,0.60226 -0.51487,-0.06727 -0.15558,-0.66454 -0.12237,-0.66109 -0.54938,-0.08502 -0.31647,0.59318 -0.34918,0.58643 -0.51111,-0.09151 -0.12403,-0.67115 -0.09101,-0.66613 -0.54476,-0.11086 -0.34412,0.57756 -0.37648,0.56929 -0.50623,-0.11555 -0.0922,-0.67625 -0.05945,-0.66968 -0.53891,-0.13647 -0.37101,0.56067 -0.40295,0.55087 -0.50021,-0.13932 -0.06015,-0.67986 -0.02776,-0.67174 -0.53187,-0.16177 -0.39708,0.54253 -0.42851,0.53122 -0.49307,-0.16278 -0.02798,-0.68194 0.004,-0.67231 -0.52363,-0.1867 -0.42226,0.52317 -0.45312,0.5104 -0.48483,-0.18589 0.0043,-0.68251 0.03574,-0.67136 -0.51423,-0.21122 -0.44649,0.50264 -0.47672,0.48843 -0.47551,-0.20858 0.03648,-0.68154 0.0674,-0.66892 -0.50368,-0.23528 -0.46973,0.481 -0.49925,0.46537 -0.46513,-0.2308 0.06862,-0.67905 0.09892,-0.665 -0.49201,-0.2588 -0.49193,0.45828 -0.52067,0.44128 -0.45371,-0.25251 0.10061,-0.67506 0.13022,-0.65958 -0.47924,-0.28175 -0.51302,0.43454 -0.54093,0.4162 -0.44128,-0.27366 0.13238,-0.66955 0.16122,-0.6527 -0.4654,-0.30406 -0.53297,0.40982 -0.55998,0.39019 -0.42786,-0.29419 0.16385,-0.66255 0.19186,-0.64436 -0.45052,-0.3257 -0.55173,0.3842 -0.57778,0.36331 -0.4135,-0.31407 0.19496,-0.65408 0.22208,-0.63457 -0.43464,-0.34662 -0.56925,0.35772 -0.5943,0.33561 -0.3982,-0.33324 0.22563,-0.64414 0.25179,-0.62338 -0.41778,-0.36675 -0.58551,0.33043 -0.60948,0.30718 -0.38202,-0.35168 0.2558,-0.63277 0.28095,-0.61079 -0.4,-0.38607 -0.60046,0.30241 -0.62331,0.27805 -0.36499,-0.36932 0.2854,-0.61998 0.30948,-0.59685 -0.38132,-0.40453 -0.61407,0.27372 -0.63574,0.24831 -0.34714,-0.38615 0.31435,-0.60581 0.33732,-0.58157 -0.36179,-0.42208 -0.62631,0.24441 -0.64676,0.21801 -0.32852,-0.40211 0.34262,-0.5903 0.36441,-0.56498 -0.34146,-0.4387 -0.63715,0.21456 -0.65634,0.18722 -0.30916,-0.41717 0.37011,-0.57346 0.39068,-0.54714 -0.32035,-0.45434 -0.64658,0.18424 -0.66444,0.15601 -0.28912,-0.43131 0.39678,-0.55533 0.41609,-0.52809 -0.29855,-0.46896 -0.65455,0.1535 -0.67107,0.12446 -0.26843,-0.44448 0.42256,-0.53598 0.44056,-0.50784 -0.27606,-0.48254 -0.66108,0.12242 -0.67619,0.09263 -0.24714,-0.45666 0.4474,-0.51543 0.46405,-0.48647 -0.25297,-0.49503 -0.66611,0.09105 -0.67982,0.0606 -0.22529,-0.46782 0.47123,-0.49372 0.48651,-0.46402 -0.22931,-0.50643 -0.66967,0.0595 -0.68192,0.02843 -0.20295,-0.47794 0.49403,-0.47092 0.50788,-0.44053 -0.20514,-0.51669 -0.67174,0.02781 -0.6825,-0.0038 -0.18015,-0.48699 0.51571,-0.44706 0.52812,-0.41605 -0.18051,-0.5258 -0.6723,-0.0039 -0.68156,-0.03604 -0.15695,-0.49496 0.53625,-0.4222 0.54717,-0.39065 -0.15547,-0.53374 -0.67137,-0.03569 -0.6791,-0.06818 -0.1334,-0.50182 0.55559,-0.39641 0.56501,-0.36437 -0.13009,-0.54048 -0.66893,-0.06736 -0.67513,-0.10017 -0.10955,-0.50756 0.57369,-0.36973 0.58159,-0.33728 -0.10443,-0.54603 -0.665,-0.09887 -0.66964,-0.13195 -0.08546,-0.51216 0.59051,-0.34223 0.59687,-0.30944 -0.07853,-0.55034 -0.65959,-0.13017 -0.66266,-0.16342 -0.06118,-0.51563 0.60601,-0.31396 0.61082,-0.28091 -0.05245,-0.55344 -0.65271,-0.16117 -0.6542,-0.19453 -0.03677,-0.51794 0.62017,-0.28499 0.6234,-0.25175 -0.02625,-0.5553 -0.64437,-0.19181 -0.64429,-0.22521 -0.01227,-0.51911 0.63294,-0.25538 0.63459,-0.22203 v -0.55592 l -0.63459,-0.22203 -0.63294,-0.25538 0.01227,-0.51911 0.64429,-0.22521 0.64437,-0.19181 0.02625,-0.5553 -0.6234,-0.25175 -0.62017,-0.28499 0.03677,-0.51794 0.6542,-0.19453 0.65271,-0.16117 0.05245,-0.55344 -0.61082,-0.28091 -0.60601,-0.31396 0.06118,-0.51563 0.66266,-0.16342 0.65959,-0.13017 0.07853,-0.55034 -0.59687,-0.30944 -0.59051,-0.34223 0.08546,-0.51216 0.66964,-0.13195 0.665,-0.09887 0.10443,-0.54603 -0.58159,-0.33728 -0.57369,-0.36973 0.10955,-0.50756 0.67513,-0.10017 0.66893,-0.06736 0.13009,-0.54048 -0.56501,-0.36437 -0.55559,-0.39641 0.1334,-0.50182 0.6791,-0.06818 0.67137,-0.03569 0.15547,-0.53374 -0.54717,-0.39065 -0.53625,-0.4222 0.15695,-0.49496 0.68156,-0.03604 0.6723,-0.0039 0.18051,-0.5258 -0.52812,-0.41605 -0.51571,-0.44706 0.18015,-0.48699 0.6825,-0.0038 0.67174,0.02781 0.20514,-0.51669 -0.50788,-0.44053 -0.49403,-0.47092 0.20295,-0.47794 0.68192,0.02843 0.66967,0.0595 0.22931,-0.50643 -0.48651,-0.46402 -0.47123,-0.49372 0.22529,-0.46782 0.67982,0.0606 0.66611,0.09105 0.25297,-0.49503 -0.46405,-0.48647 -0.4474,-0.51543 0.24714,-0.45666 0.67619,0.09263 0.66108,0.12242 0.27606,-0.48254 -0.44056,-0.50784 -0.42256,-0.53598 0.26843,-0.44448 0.67107,0.12446 0.65455,0.1535 0.29855,-0.46896 -0.41609,-0.52809 -0.39678,-0.55533 0.28912,-0.43131 0.66444,0.15601 0.64658,0.18424 0.32035,-0.45434 -0.39068,-0.54714 -0.37011,-0.57346 0.30916,-0.41717 0.65634,0.18722 0.63715,0.21456 0.34146,-0.4387 -0.36441,-0.56498 -0.34262,-0.5903 0.32852,-0.40211 0.64676,0.21801 0.62631,0.24441 0.36179,-0.42208 -0.33732,-0.58157 -0.31435,-0.60581 0.34714,-0.38615 0.63574,0.24831 0.61407,0.27372 0.38132,-0.40453 -0.30948,-0.59685 -0.2854,-0.61998 0.36499,-0.36932 0.62331,0.27805 0.60046,0.30241 0.4,-0.38607 -0.28095,-0.61079 -0.2558,-0.63277 0.38202,-0.35168 0.60948,0.30718 0.58551,0.33043 0.41778,-0.36675 -0.25179,-0.62338 -0.22563,-0.64414 0.3982,-0.33324 0.5943,0.33561 0.56925,0.35772 0.43464,-0.34662 -0.22208,-0.63457 -0.19496,-0.65408 0.4135,-0.31407 0.57778,0.36331 0.55173,0.3842 0.45052,-0.3257 -0.19186,-0.64436 -0.16385,-0.66255 0.42786,-0.29419 0.55998,0.39019 0.53297,0.40982 0.4654,-0.30406 -0.16122,-0.6527 -0.13238,-0.66955 0.44128,-0.27366 0.54093,0.4162 0.51302,0.43454 0.47924,-0.28175 -0.13022,-0.65958 -0.10061,-0.67506 0.45371,-0.25251 0.52067,0.44128 0.49193,0.45828 0.49201,-0.2588 -0.09892,-0.665 -0.06862,-0.67905 0.46513,-0.2308 0.49925,0.46537 0.46973,0.481 0.50368,-0.23528 -0.0674,-0.66892 -0.03648,-0.68154 0.47551,-0.20858 0.47672,0.48843 0.44649,0.50264 0.51423,-0.21122 -0.03574,-0.67136 -0.0043,-0.68251 0.48483,-0.18589 0.45312,0.5104 0.42226,0.52317 0.52363,-0.1867 -0.004,-0.67231 0.02798,-0.68194 0.49307,-0.16278 0.42851,0.53122 0.39708,0.54253 0.53187,-0.16177 0.02776,-0.67174 0.06015,-0.67986 0.50021,-0.13932 0.40295,0.55087 0.37101,0.56067 0.53891,-0.13647 0.05945,-0.66968 0.0922,-0.67625 0.50623,-0.11555 0.37648,0.56929 0.34412,0.57756 0.54476,-0.11086 0.09101,-0.66613 0.12403,-0.67115 0.51111,-0.09151 0.34918,0.58643 0.31647,0.59318 0.54938,-0.08502 0.12237,-0.66109 0.15558,-0.66454 0.51487,-0.06727 0.3211,0.60226 0.2881,0.60746 0.55278,-0.05898 0.15345,-0.65457 0.18679,-0.65645 0.51747,-0.04288 0.2923,0.61676 0.25909,0.62038 0.55496,-0.03281 0.18418,-0.64659 0.21759,-0.6469 0.51892,-0.0184 0.26284,0.62988 0.22951,0.63192 0.55588,-0.0066 0.21452,-0.63719 0.24789,-0.63591 0.51921,0.0061 0.23281,0.64159 0.19941,0.64206 0.55557,0.01969 0.24437,-0.62633 0.27764,-0.62349 0.51834,0.03064 0.20225,0.65187 0.16886,0.65076 0.55403,0.0459 0.27367,-0.61409 0.30678,-0.60968 0.51632,0.05509 0.17123,0.66068 0.13795,0.65801 0.55124,0.07202 0.30236,-0.60048 0.33523,-0.59451 0.51314,0.07941 0.13985,0.66803 0.10671,0.66379 0.54722,0.09797 0.33039,-0.58553 0.36294,-0.57802 0.50881,0.10356 0.10814,0.67389 0.07525,0.66809 0.54199,0.1237 0.35767,-0.56928 0.38982,-0.56023 0.50336,0.12747 0.07619,0.67824 0.04362,0.6709 0.53554,0.14916 0.38415,-0.55175 0.41585,-0.5412 0.49678,0.1511 0.04408,0.68108 0.01188,0.67221 0.5279,0.17429 0.40978,-0.533 0.44094,-0.52096 0.48909,0.17439 0.01187,0.68241 -0.01988,0.67202 0.51908,0.19902 0.4345,-0.51304 0.46505,-0.49956 0.4803,0.19729 -0.02037,0.68221 -0.05159,0.67033 0.5091,0.22331 0.45824,-0.49195 0.48812,-0.47704 0.47046,0.21975 -0.05257,0.68049 -0.08318,0.66715 0.49798,0.2471 0.48096,-0.46977 0.51011,-0.45345 0.45955,0.24172 -0.08464,0.67725 -0.1146,0.66247 0.48576,0.27035 0.50261,-0.44653 0.53095,-0.42886 0.44762,0.26316 -0.11653,0.67249 -0.14576,0.65632 0.47245,0.29299 0.52314,-0.4223 0.55061,-0.4033 0.43469,0.284 -0.14815,0.66624 -0.17659,0.6487 0.45809,0.31497 0.54249,-0.39712 0.56904,-0.37685 0.4208,0.30421 -0.17945,0.6585 -0.20703,0.63965 0.4427,0.33625 0.56065,-0.37106 0.5862,-0.34956 0.40596,0.32374 -0.21035,0.64929 -0.237,0.62916 0.42633,0.35678 0.577541,-0.34417 0.60206,-0.32149 0.39022,0.34256 -0.24078,0.63863 -0.26645,0.61726 0.40901,0.37652 0.59314,-0.31651 0.61657,-0.2927 0.37361,0.3606 -0.27067,0.62655 -0.2953,0.60399 0.39077,0.39541 0.60743,-0.28815 0.6297,-0.26325 0.35617,0.37784 -0.29996,0.61307 -0.32349,0.58937 0.37166,0.41342 0.62036,-0.25914 0.64143,-0.23322 0.33792,0.39424 -0.32857,0.59822 -0.35097,0.57344 0.35172,0.43051 0.63191,-0.22955 0.65173,-0.20267 0.31893,0.40975 -0.35646,0.58204 -0.37765,0.55622 0.331,0.44664 0.64204,-0.19945 0.66057,-0.17167 0.29922,0.42436 -0.38354,0.56455 -0.4035,0.53777 0.30953,0.46178 0.65075,-0.16892 0.66795,-0.14028 0.27884,0.43802 -0.40978,0.54581 -0.42844,0.51811 0.28738,0.47588 0.658,-0.13799 0.67382,-0.10858 0.25785,0.4507 -0.43509,0.52584 -0.45244,0.4973 0.26459,0.48892 0.66378,-0.10676 0.6782,-0.07664 0.23628,0.46237 -0.45945,0.50472 -0.47541,0.47538 0.2412,0.50086 0.66809,-0.0753 0.68106,-0.04452 0.21418,0.47301 -0.48277,0.48246 -0.49733,0.4524 0.21728,0.5117 0.67089,-0.04367 0.68241,-0.01231 0.1916,0.4826 -0.50501,0.45912 -0.51815,0.4284 0.19288,0.52139 0.67221,-0.01193 0.68222,0.01993 0.1686,0.49111 -0.52613,0.43475 -0.5378,0.40346 0.16804,0.52992 0.67202,0.01982 0.68052,0.05213 0.14522,0.49852 -0.54607,0.40943 -0.55625,0.37761 0.14282,0.53726 0.67034,0.05154 0.6773,0.0842 0.12151,0.50483 -0.5648,0.38318 -0.57346,0.35092 0.1173,0.54341 0.66715,0.08313 0.67257,0.1161 0.0975,0.51 -0.58227,0.35608 -0.58939,0.32345 0.0915,0.54834 0.66248,0.11455 0.66634,0.14772 0.0733,0.51404 -0.59843,0.32819 -0.60401,0.29525 0.0655,0.55205 0.65634,0.14571 0.65861,0.17903 0.049,0.51693 -0.61326,0.29956 -0.61728,0.2664 0.0394,0.55452 0.64872,0.17654 0.64943,0.20993 0.0245,0.51867 -0.62673,0.27026 -0.62917,0.23696 z"
       inkscape:connector-curvature="0" />
    <g
       transform="translate(-63.385277,10.920062)"
       id="g1478">
      <g
         id="g1473">
        <path
           sodipodi:open="true"
           d="m 139.26046,43.880953 a 3.8858573,3.8858573 0 0 1 -4.3468,1.762846 3.8858573,3.8858573 0 0 1 -2.87656,-3.705098 3.8858573,3.8858573 0 0 1 2.78518,-3.774272 3.8858573,3.8858573 0 0 1 4.38857,1.656118"
           sodipodi:end="5.7211893"
           sodipodi:start="0.53756141"
           sodipodi:ry="3.8858573"
           sodipodi:rx="3.8858573"
           sodipodi:cy="41.891228"
           sodipodi:cx="135.92267"
           sodipodi:type="arc"
           id="path1450-3"
           style="fill:#ffffff;fill-opacity:0;stroke:#000000;stroke-width:0.26499999;stroke-miterlimit:10;stroke-dasharray:none;stroke-opacity:1" />
      </g>
      <path
         style="fill:none;stroke:#000000;stroke-width:0.22040695px;stroke-linecap:butt;stroke-linejoin:miter;stroke-opacity:1"
         d="m 139.21085,39.820547 c 0,4 0,4 0,4"
         id="path1452-6"
         inkscape:connector-curvature="0" />
    </g>
    <g
       id="g1675"
       transform="translate(-9.827381,-11.150298)">
      <path
         id="path1538-7"
         style="fill:none;stroke:#000000;stroke-width:0.26458332"
         d="m 141.71919,48.425945 0.27059,-0.02649 0.37111,0.05424 0.65368,0.28029 v 0.43828 l -0.65368,0.28029 -0.37111,0.05424 -0.27059,-0.02649 -0.12063,0.72288 0.26453,0.06281 0.33339,0.1718 0.52726,0.47735 -0.14231,0.41453 -0.70928,0.05286 -0.36861,-0.0692 -0.24733,-0.11291 -0.34881,0.64454 0.22981,0.1453 0.25954,0.27074 0.34369,0.62269 -0.2692,0.34586 -0.688,-0.18031 -0.32618,-0.18513 -0.19726,-0.18711 -0.5392,0.49636 0.17018,0.21205 0.15757,0.34034 0.12288,0.70055 -0.36691,0.23972 -0.59218,-0.39394 -0.24839,-0.28102 -0.12583,-0.24102 -0.67114,0.2944 0.0921,0.25581 0.0385,0.37307 -0.11125,0.70249 -0.42487,0.10759 -0.43218,-0.56488 -0.14368,-0.34644 -0.0408,-0.26881 -0.73037,0.06052 0.004,0.27185 -0.0847,0.36537 -0.33332,0.6283 -0.43678,-0.03619 -0.22535,-0.6746 -0.0234,-0.37432 0.0487,-0.26748 -0.71044,-0.17991 -0.0844,0.25844 -0.19875,0.31807 -0.51926,0.48603 -0.40136,-0.17605 0.006,-0.71122 0.0994,-0.36164 0.13295,-0.23716 -0.61354,-0.40085 -0.16378,0.21702 -0.29125,0.2363 -0.64894,0.2911 -0.32246,-0.29684 0.23651,-0.67077 0.21144,-0.30977 0.20276,-0.18114 -0.45014,-0.57834 -0.22537,0.15208 -0.3522,0.12893 -0.7083,0.06461 -0.2086,-0.38545 0.4415,-0.55763 0.30056,-0.22433 0.25059,-0.1055 -0.23796,-0.69316 -0.26255,0.07067 -0.37497,0.0076 -0.69091,-0.16888 -0.0721,-0.4323 0.59863,-0.38406 0.35712,-0.11458 0.27126,-0.01841 v -0.73288 l -0.27126,-0.01841 -0.35712,-0.11458 -0.59863,-0.38406 0.0721,-0.4323 0.69091,-0.16888 0.37497,0.0076 0.26255,0.07067 0.23796,-0.69316 -0.25059,-0.1055 -0.30056,-0.22433 -0.4415,-0.55763 0.2086,-0.38545 0.7083,0.06461 0.3522,0.12893 0.22537,0.15208 0.45014,-0.57834 -0.20276,-0.18114 -0.21144,-0.30977 -0.23651,-0.67077 0.32246,-0.29684 0.64894,0.2911 0.29125,0.2363 0.16378,0.21702 0.61354,-0.40085 -0.13295,-0.23716 -0.0994,-0.36164 -0.006,-0.71122 0.40136,-0.17605 0.51926,0.48603 0.19875,0.31807 0.0844,0.25844 0.71044,-0.17991 -0.0487,-0.26748 0.0234,-0.37432 0.22535,-0.6746 0.43678,-0.03619 0.33332,0.6283 0.0847,0.36537 -0.004,0.27185 0.73037,0.06052 0.0408,-0.26881 0.14368,-0.34644 0.43218,-0.56488 0.42487,0.10759 0.11125,0.70249 -0.0385,0.37307 -0.0921,0.25581 0.67114,0.2944 0.12583,-0.24102 0.24839,-0.28102 0.59218,-0.39394 0.36691,0.23972 -0.12288,0.70055 -0.15757,0.34034 -0.17018,0.21205 0.5392,0.49636 0.19726,-0.18711 0.32618,-0.18513 0.688,-0.18031 0.2692,0.34586 -0.34369,0.62269 -0.25954,0.27074 -0.22981,0.1453 0.34881,0.64454 0.24733,-0.11291 0.36861,-0.0692 0.70928,0.05286 0.14231,0.41453 -0.52726,0.47735 -0.33339,0.1718 -0.26453,0.06281 z"
         inkscape:connector-curvature="0" />
      <path
         style="fill:none;stroke:#000000;stroke-width:0.25821504px;stroke-linecap:butt;stroke-linejoin:miter;stroke-opacity:1"
         d="m 135.05286,46.815467 c 0,4.499999 0,4.499999 0,4.499999"
         id="path1518-5"
         inkscape:connector-curvature="0" />
      <path
         style="fill:none;stroke:#000000;stroke-width:0.25821504px;stroke-linecap:butt;stroke-linejoin:miter;stroke-opacity:1"
         d="m 137.71286,46.79762 c 0,4.5 0,4.5 0,4.5"
         id="path1518-7-1"
         inkscape:connector-curvature="0" />
      <path
         d="m 137.80408,51.095596 a 2.5045435,2.312516 0 0 1 -2.82623,-0.02505"
         sodipodi:open="true"
         sodipodi:end="2.1799162"
         sodipodi:start="0.98087504"
         sodipodi:ry="2.312516"
         sodipodi:rx="2.5045435"
         sodipodi:cy="49.173931"
         sodipodi:cx="136.41081"
         sodipodi:type="arc"
         id="path1643"
         style="fill:#ffffff;fill-opacity:0;stroke:#000000;stroke-width:0.25799999;stroke-miterlimit:10;stroke-dasharray:none;stroke-opacity:1" />
      <path
         transform="scale(-1)"
         d="m -134.95305,-46.815464 a 2.5045435,2.312516 0 0 1 -2.82623,-0.02505"
         sodipodi:open="true"
         sodipodi:end="2.1799162"
         sodipodi:start="0.98087504"
         sodipodi:ry="2.312516"
         sodipodi:rx="2.5045435"
         sodipodi:cy="-48.737129"
         sodipodi:cx="-136.34631"
         sodipodi:type="arc"
         id="path1643-1"
         style="fill:#ffffff;fill-opacity:0;stroke:#000000;stroke-width:0.25799999;stroke-miterlimit:10;stroke-dasharray:none;stroke-opacity:1" />
    </g>
  </g>
</svg>
