  0
SECTION
  2
HEADER
  9
$ACADVER
  1
AC1014
  9
$HANDSEED
  5
FFFF
  9
$MEASUREMENT
 70
     1
  0
ENDSEC
  0
SECTION
  2
TABLES
  0
TABLE
  2
VPORT
  5
8
330
0
100
AcDbSymbolTable
 70
     4
  0
VPORT
  5
2E
330
8
100
AcDbSymbolTableRecord
100
AcDbViewportTableRecord
  2
*ACTIVE
 70
     0
 10
0.0
 20
0.0
 11
1.0
 21
1.0
 12
210.0
 22
148.5
 13
0.0
 23
0.0
 14
10.0
 24
10.0
 15
10.0
 25
10.0
 16
0.0
 26
0.0
 36
1.0
 17
0.0
 27
0.0
 37
0.0
 40
341.0
 41
1.24
 42
50.0
 43
0.0
 44
0.0
 50
0.0
 51
0.0
 71
     0
 72
   100
 73
     1
 74
     3
 75
     0
 76
     0
 77
     0
 78
     0
  0
ENDTAB
  0
TABLE
  2
LTYPE
  5
5
330
0
100
AcDbSymbolTable
 70
     1
  0
LTYPE
  5
14
330
5
100
AcDbSymbolTableRecord
100
AcDbLinetypeTableRecord
  2
BYBLOCK
 70
     0
  3

 72
    65
 73
     0
 40
0.0
  0
LTYPE
  5
15
330
5
100
AcDbSymbolTableRecord
100
AcDbLinetypeTableRecord
  2
BYLAYER
 70
     0
  3

 72
    65
 73
     0
 40
0.0
  0
LTYPE
  5
16
330
5
100
AcDbSymbolTableRecord
100
AcDbLinetypeTableRecord
  2
CONTINUOUS
 70
     0
  3
Solid line
 72
    65
 73
     0
 40
0.0
  0
ENDTAB
  0
TABLE
  2
LAYER
  5
2
100
AcDbSymbolTable
 70
2
  0
LAYER
  5
50
100
AcDbSymbolTableRecord
100
AcDbLayerTableRecord
  2
0
 70
0
  6
CONTINUOUS
  0
LAYER
  5
51
100
AcDbSymbolTableRecord
100
AcDbLayerTableRecord
  2
Layer_1
 70
0
  6
CONTINUOUS
  0
ENDTAB
  0
TABLE
  2
STYLE
  5
3
330
0
100
AcDbSymbolTable
 70
     1
  0
STYLE
  5
11
330
3
100
AcDbSymbolTableRecord
100
AcDbTextStyleTableRecord
  2
STANDARD
 70
     0
 40
0.0
 41
1.0
 50
0.0
 71
     0
 42
2.5
  3
txt
  4

  0
ENDTAB
  0
TABLE
  2
VIEW
  5
6
330
0
100
AcDbSymbolTable
 70
     0
  0
ENDTAB
  0
TABLE
  2
UCS
  5
7
330
0
100
AcDbSymbolTable
 70
     0
  0
ENDTAB
  0
TABLE
  2
APPID
  5
9
330
0
100
AcDbSymbolTable
 70
     2
  0
APPID
  5
12
330
9
100
AcDbSymbolTableRecord
100
AcDbRegAppTableRecord
  2
ACAD
 70
     0
  0
ENDTAB
  0
TABLE
  2
DIMSTYLE
  5
A
330
0
100
AcDbSymbolTable
 70
     1
  0
DIMSTYLE
105
27
330
A
100
AcDbSymbolTableRecord
100
AcDbDimStyleTableRecord
  2
ISO-25
 70
     0
  3

  4

  5

  6

  7

 40
1.0
 41
2.5
 42
0.625
 43
3.75
 44
1.25
 45
0.0
 46
0.0
 47
0.0
 48
0.0
140
2.5
141
2.5
142
0.0
143
0.03937007874016
144
1.0
145
0.0
146
1.0
147
0.625
 71
     0
 72
     0
 73
     0
 74
     0
 75
     0
 76
     0
 77
     1
 78
     8
170
     0
171
     3
172
     1
173
     0
174
     0
175
     0
176
     0
177
     0
178
     0
270
     2
271
     2
272
     2
273
     2
274
     3
340
11
275
     0
280
     0
281
     0
282
     0
283
     0
284
     8
285
     0
286
     0
287
     3
288
     0
  0
ENDTAB
  0
TABLE
  2
BLOCK_RECORD
  5
1
330
0
100
AcDbSymbolTable
 70
     1
  0
BLOCK_RECORD
  5
1F
330
1
100
AcDbSymbolTableRecord
100
AcDbBlockTableRecord
  2
*MODEL_SPACE
  0
BLOCK_RECORD
  5
1B
330
1
100
AcDbSymbolTableRecord
100
AcDbBlockTableRecord
  2
*PAPER_SPACE
  0
ENDTAB
  0
ENDSEC
  0
SECTION
  2
BLOCKS
  0
BLOCK
  5
20
330
1F
100
AcDbEntity
  8
0
100
AcDbBlockBegin
  2
*MODEL_SPACE
 70
     0
 10
0.0
 20
0.0
 30
0.0
  3
*MODEL_SPACE
  1

  0
ENDBLK
  5
21
330
1F
100
AcDbEntity
  8
0
100
AcDbBlockEnd
  0
BLOCK
  5
1C
330
1B
100
AcDbEntity
 67
     1
  8
0
100
AcDbBlockBegin
  2
*PAPER_SPACE
  1

  0
ENDBLK
  5
1D
330
1B
100
AcDbEntity
 67
     1
  8
0
100
AcDbBlockEnd
  0
ENDSEC
  0
SECTION
  2
ENTITIES
  0
SPLINE
  5
100
100
AcDbEntity
  8
Layer_1
 62
7
100
AcDbSpline
 70
8
 71
3
 72
8
 73
4
 74
0
 40
0
 40
0
 40
0
 40
0
 40
1
 40
1
 40
1
 40
1
 10
123.912780
 20
264.210136
 30
0.0
 10
124.437060
 20
264.210136
 30
0.0
 10
124.859130
 20
263.788063
 30
0.0
 10
124.859130
 20
263.263784
 30
0.0
  0
LWPOLYLINE
  5
101
100
AcDbEntity
  8
Layer_1
 62
7
100
AcDbPolyline
 90
2
 70
0
 10
86.087214
 20
264.210136
 30
0.0
 10
123.912780
 20
264.210136
 30
0.0
  0
SPLINE
  5
102
100
AcDbEntity
  8
Layer_1
 62
7
100
AcDbSpline
 70
8
 71
3
 72
8
 73
4
 74
0
 40
0
 40
0
 40
0
 40
0
 40
1
 40
1
 40
1
 40
1
 10
124.859130
 20
235.438216
 30
0.0
 10
124.859130
 20
234.913936
 30
0.0
 10
124.437060
 20
234.491863
 30
0.0
 10
123.912780
 20
234.491863
 30
0.0
  0
LWPOLYLINE
  5
103
100
AcDbEntity
  8
Layer_1
 62
7
100
AcDbPolyline
 90
2
 70
0
 10
124.859130
 20
263.263784
 30
0.0
 10
124.859130
 20
235.438216
 30
0.0
  0
SPLINE
  5
104
100
AcDbEntity
  8
Layer_1
 62
7
100
AcDbSpline
 70
8
 71
3
 72
8
 73
4
 74
0
 40
0
 40
0
 40
0
 40
0
 40
1
 40
1
 40
1
 40
1
 10
86.087214
 20
234.491863
 30
0.0
 10
85.562935
 20
234.491863
 30
0.0
 10
85.140862
 20
234.913936
 30
0.0
 10
85.140862
 20
235.438216
 30
0.0
  0
LWPOLYLINE
  5
105
100
AcDbEntity
  8
Layer_1
 62
7
100
AcDbPolyline
 90
2
 70
0
 10
123.912780
 20
234.491863
 30
0.0
 10
86.087214
 20
234.491863
 30
0.0
  0
SPLINE
  5
106
100
AcDbEntity
  8
Layer_1
 62
7
100
AcDbSpline
 70
8
 71
3
 72
8
 73
4
 74
0
 40
0
 40
0
 40
0
 40
0
 40
1
 40
1
 40
1
 40
1
 10
85.140862
 20
263.263784
 30
0.0
 10
85.140862
 20
263.788063
 30
0.0
 10
85.562935
 20
264.210136
 30
0.0
 10
86.087214
 20
264.210136
 30
0.0
  0
LWPOLYLINE
  5
107
100
AcDbEntity
  8
Layer_1
 62
7
100
AcDbPolyline
 90
2
 70
0
 10
85.140862
 20
235.438216
 30
0.0
 10
85.140862
 20
263.263784
 30
0.0
  0
SPLINE
  5
108
100
AcDbEntity
  8
Layer_1
 62
7
100
AcDbSpline
 70
8
 71
3
 72
8
 73
4
 74
0
 40
0
 40
0
 40
0
 40
0
 40
1
 40
1
 40
1
 40
1
 10
122.968980
 20
236.979000
 30
0.0
 10
122.968980
 20
236.167704
 30
0.0
 10
122.311296
 20
235.510019
 30
0.0
 10
121.500000
 20
235.510018
 30
0.0
  0
SPLINE
  5
109
100
AcDbEntity
  8
Layer_1
 62
7
100
AcDbSpline
 70
8
 71
3
 72
8
 73
4
 74
0
 40
0
 40
0
 40
0
 40
0
 40
1
 40
1
 40
1
 40
1
 10
121.500000
 20
235.510018
 30
0.0
 10
120.688704
 20
235.510019
 30
0.0
 10
120.031020
 20
236.167704
 30
0.0
 10
120.031020
 20
236.979000
 30
0.0
  0
SPLINE
  5
10a
100
AcDbEntity
  8
Layer_1
 62
7
100
AcDbSpline
 70
8
 71
3
 72
8
 73
4
 74
0
 40
0
 40
0
 40
0
 40
0
 40
1
 40
1
 40
1
 40
1
 10
120.031020
 20
236.979000
 30
0.0
 10
120.031020
 20
237.790296
 30
0.0
 10
120.688704
 20
238.447981
 30
0.0
 10
121.500000
 20
238.447982
 30
0.0
  0
SPLINE
  5
10b
100
AcDbEntity
  8
Layer_1
 62
7
100
AcDbSpline
 70
8
 71
3
 72
8
 73
4
 74
0
 40
0
 40
0
 40
0
 40
0
 40
1
 40
1
 40
1
 40
1
 10
121.500000
 20
238.447982
 30
0.0
 10
122.311296
 20
238.447981
 30
0.0
 10
122.968980
 20
237.790296
 30
0.0
 10
122.968980
 20
236.979000
 30
0.0
  0
LWPOLYLINE
  5
10c
100
AcDbEntity
  8
Layer_1
 62
7
100
AcDbPolyline
 90
1
 70
1
 10
86.087214
 20
264.210136
 30
0.0
  0
SPLINE
  5
10d
100
AcDbEntity
  8
Layer_1
 62
7
100
AcDbSpline
 70
8
 71
3
 72
8
 73
4
 74
0
 40
0
 40
0
 40
0
 40
0
 40
1
 40
1
 40
1
 40
1
 10
89.868984
 20
261.803211
 30
0.0
 10
89.868984
 20
260.991915
 30
0.0
 10
89.211298
 20
260.334229
 30
0.0
 10
88.400002
 20
260.334229
 30
0.0
  0
SPLINE
  5
10e
100
AcDbEntity
  8
Layer_1
 62
7
100
AcDbSpline
 70
8
 71
3
 72
8
 73
4
 74
0
 40
0
 40
0
 40
0
 40
0
 40
1
 40
1
 40
1
 40
1
 10
88.400002
 20
260.334229
 30
0.0
 10
88.010404
 20
260.334229
 30
0.0
 10
87.636762
 20
260.488996
 30
0.0
 10
87.361275
 20
260.764484
 30
0.0
  0
SPLINE
  5
10f
100
AcDbEntity
  8
Layer_1
 62
7
100
AcDbSpline
 70
8
 71
3
 72
8
 73
4
 74
0
 40
0
 40
0
 40
0
 40
0
 40
1
 40
1
 40
1
 40
1
 10
87.361275
 20
260.764484
 30
0.0
 10
87.085787
 20
261.039971
 30
0.0
 10
86.931020
 20
261.413613
 30
0.0
 10
86.931020
 20
261.803211
 30
0.0
  0
SPLINE
  5
110
100
AcDbEntity
  8
Layer_1
 62
7
100
AcDbSpline
 70
8
 71
3
 72
8
 73
4
 74
0
 40
0
 40
0
 40
0
 40
0
 40
1
 40
1
 40
1
 40
1
 10
86.931020
 20
261.803211
 30
0.0
 10
86.931020
 20
262.614507
 30
0.0
 10
87.588706
 20
263.272193
 30
0.0
 10
88.400002
 20
263.272193
 30
0.0
  0
SPLINE
  5
111
100
AcDbEntity
  8
Layer_1
 62
7
100
AcDbSpline
 70
8
 71
3
 72
8
 73
4
 74
0
 40
0
 40
0
 40
0
 40
0
 40
1
 40
1
 40
1
 40
1
 10
88.400002
 20
263.272193
 30
0.0
 10
89.211298
 20
263.272193
 30
0.0
 10
89.868984
 20
262.614507
 30
0.0
 10
89.868984
 20
261.803211
 30
0.0
  0
LWPOLYLINE
  5
112
100
AcDbEntity
  8
Layer_1
 62
7
100
AcDbPolyline
 90
1
 70
1
 10
122.968980
 20
236.979000
 30
0.0
  0
SPLINE
  5
113
100
AcDbEntity
  8
Layer_1
 62
7
100
AcDbSpline
 70
8
 71
3
 72
8
 73
4
 74
0
 40
0
 40
0
 40
0
 40
0
 40
1
 40
1
 40
1
 40
1
 10
122.968980
 20
261.803211
 30
0.0
 10
122.968980
 20
260.991915
 30
0.0
 10
122.311296
 20
260.334230
 30
0.0
 10
121.500000
 20
260.334229
 30
0.0
  0
SPLINE
  5
114
100
AcDbEntity
  8
Layer_1
 62
7
100
AcDbSpline
 70
8
 71
3
 72
8
 73
4
 74
0
 40
0
 40
0
 40
0
 40
0
 40
1
 40
1
 40
1
 40
1
 10
121.500000
 20
260.334229
 30
0.0
 10
120.688704
 20
260.334230
 30
0.0
 10
120.031020
 20
260.991915
 30
0.0
 10
120.031020
 20
261.803211
 30
0.0
  0
SPLINE
  5
115
100
AcDbEntity
  8
Layer_1
 62
7
100
AcDbSpline
 70
8
 71
3
 72
8
 73
4
 74
0
 40
0
 40
0
 40
0
 40
0
 40
1
 40
1
 40
1
 40
1
 10
120.031020
 20
261.803211
 30
0.0
 10
120.031020
 20
262.614507
 30
0.0
 10
120.688704
 20
263.272192
 30
0.0
 10
121.500000
 20
263.272193
 30
0.0
  0
SPLINE
  5
116
100
AcDbEntity
  8
Layer_1
 62
7
100
AcDbSpline
 70
8
 71
3
 72
8
 73
4
 74
0
 40
0
 40
0
 40
0
 40
0
 40
1
 40
1
 40
1
 40
1
 10
121.500000
 20
263.272193
 30
0.0
 10
122.311296
 20
263.272192
 30
0.0
 10
122.968980
 20
262.614507
 30
0.0
 10
122.968980
 20
261.803211
 30
0.0
  0
LWPOLYLINE
  5
117
100
AcDbEntity
  8
Layer_1
 62
7
100
AcDbPolyline
 90
1
 70
1
 10
89.868984
 20
261.803211
 30
0.0
  0
SPLINE
  5
118
100
AcDbEntity
  8
Layer_1
 62
7
100
AcDbSpline
 70
8
 71
3
 72
8
 73
4
 74
0
 40
0
 40
0
 40
0
 40
0
 40
1
 40
1
 40
1
 40
1
 10
89.868984
 20
236.979000
 30
0.0
 10
89.868984
 20
236.167704
 30
0.0
 10
89.211298
 20
235.510018
 30
0.0
 10
88.400002
 20
235.510018
 30
0.0
  0
SPLINE
  5
119
100
AcDbEntity
  8
Layer_1
 62
7
100
AcDbSpline
 70
8
 71
3
 72
8
 73
4
 74
0
 40
0
 40
0
 40
0
 40
0
 40
1
 40
1
 40
1
 40
1
 10
88.400002
 20
235.510018
 30
0.0
 10
88.010404
 20
235.510018
 30
0.0
 10
87.636762
 20
235.664785
 30
0.0
 10
87.361275
 20
235.940273
 30
0.0
  0
SPLINE
  5
11a
100
AcDbEntity
  8
Layer_1
 62
7
100
AcDbSpline
 70
8
 71
3
 72
8
 73
4
 74
0
 40
0
 40
0
 40
0
 40
0
 40
1
 40
1
 40
1
 40
1
 10
87.361275
 20
235.940273
 30
0.0
 10
87.085787
 20
236.215760
 30
0.0
 10
86.931020
 20
236.589402
 30
0.0
 10
86.931020
 20
236.979000
 30
0.0
  0
SPLINE
  5
11b
100
AcDbEntity
  8
Layer_1
 62
7
100
AcDbSpline
 70
8
 71
3
 72
8
 73
4
 74
0
 40
0
 40
0
 40
0
 40
0
 40
1
 40
1
 40
1
 40
1
 10
86.931020
 20
236.979000
 30
0.0
 10
86.931020
 20
237.790296
 30
0.0
 10
87.588706
 20
238.447982
 30
0.0
 10
88.400002
 20
238.447982
 30
0.0
  0
SPLINE
  5
11c
100
AcDbEntity
  8
Layer_1
 62
7
100
AcDbSpline
 70
8
 71
3
 72
8
 73
4
 74
0
 40
0
 40
0
 40
0
 40
0
 40
1
 40
1
 40
1
 40
1
 10
88.400002
 20
238.447982
 30
0.0
 10
89.211298
 20
238.447982
 30
0.0
 10
89.868984
 20
237.790296
 30
0.0
 10
89.868984
 20
236.979000
 30
0.0
  0
LWPOLYLINE
  5
11d
100
AcDbEntity
  8
Layer_1
 62
7
100
AcDbPolyline
 90
1
 70
1
 10
122.968980
 20
261.803211
 30
0.0
  0
SPLINE
  5
11e
100
AcDbEntity
  8
Layer_1
 62
7
100
AcDbSpline
 70
8
 71
3
 72
8
 73
4
 74
0
 40
0
 40
0
 40
0
 40
0
 40
1
 40
1
 40
1
 40
1
 10
110.928830
 20
249.287666
 30
0.0
 10
110.928830
 20
247.715243
 30
0.0
 10
110.304187
 20
246.207222
 30
0.0
 10
109.192316
 20
245.095351
 30
0.0
  0
SPLINE
  5
11f
100
AcDbEntity
  8
Layer_1
 62
7
100
AcDbSpline
 70
8
 71
3
 72
8
 73
4
 74
0
 40
0
 40
0
 40
0
 40
0
 40
1
 40
1
 40
1
 40
1
 10
109.192316
 20
245.095351
 30
0.0
 10
108.080444
 20
243.983481
 30
0.0
 10
106.572423
 20
243.358839
 30
0.0
 10
105.000000
 20
243.358840
 30
0.0
  0
SPLINE
  5
120
100
AcDbEntity
  8
Layer_1
 62
7
100
AcDbSpline
 70
8
 71
3
 72
8
 73
4
 74
0
 40
0
 40
0
 40
0
 40
0
 40
1
 40
1
 40
1
 40
1
 10
105.000000
 20
243.358840
 30
0.0
 10
103.427578
 20
243.358840
 30
0.0
 10
101.919557
 20
243.983482
 30
0.0
 10
100.807687
 20
245.095353
 30
0.0
  0
SPLINE
  5
121
100
AcDbEntity
  8
Layer_1
 62
7
100
AcDbSpline
 70
8
 71
3
 72
8
 73
4
 74
0
 40
0
 40
0
 40
0
 40
0
 40
1
 40
1
 40
1
 40
1
 10
100.807687
 20
245.095353
 30
0.0
 10
99.695816
 20
246.207223
 30
0.0
 10
99.071174
 20
247.715244
 30
0.0
 10
99.071174
 20
249.287666
 30
0.0
  0
SPLINE
  5
122
100
AcDbEntity
  8
Layer_1
 62
7
100
AcDbSpline
 70
8
 71
3
 72
8
 73
4
 74
0
 40
0
 40
0
 40
0
 40
0
 40
1
 40
1
 40
1
 40
1
 10
99.071174
 20
249.287666
 30
0.0
 10
99.071174
 20
250.860089
 30
0.0
 10
99.695816
 20
252.368109
 30
0.0
 10
100.807687
 20
253.479979
 30
0.0
  0
SPLINE
  5
123
100
AcDbEntity
  8
Layer_1
 62
7
100
AcDbSpline
 70
8
 71
3
 72
8
 73
4
 74
0
 40
0
 40
0
 40
0
 40
0
 40
1
 40
1
 40
1
 40
1
 10
100.807687
 20
253.479979
 30
0.0
 10
101.919557
 20
254.591850
 30
0.0
 10
103.427578
 20
255.216492
 30
0.0
 10
105.000000
 20
255.216492
 30
0.0
  0
SPLINE
  5
124
100
AcDbEntity
  8
Layer_1
 62
7
100
AcDbSpline
 70
8
 71
3
 72
8
 73
4
 74
0
 40
0
 40
0
 40
0
 40
0
 40
1
 40
1
 40
1
 40
1
 10
105.000000
 20
255.216492
 30
0.0
 10
106.572423
 20
255.216493
 30
0.0
 10
108.080444
 20
254.591851
 30
0.0
 10
109.192316
 20
253.479981
 30
0.0
  0
SPLINE
  5
125
100
AcDbEntity
  8
Layer_1
 62
7
100
AcDbSpline
 70
8
 71
3
 72
8
 73
4
 74
0
 40
0
 40
0
 40
0
 40
0
 40
1
 40
1
 40
1
 40
1
 10
109.192316
 20
253.479981
 30
0.0
 10
110.304187
 20
252.368110
 30
0.0
 10
110.928830
 20
250.860089
 30
0.0
 10
110.928830
 20
249.287666
 30
0.0
  0
LWPOLYLINE
  5
126
100
AcDbEntity
  8
Layer_1
 62
7
100
AcDbPolyline
 90
1
 70
1
 10
89.868984
 20
236.979000
 30
0.0
  0
LWPOLYLINE
  5
127
100
AcDbEntity
  8
Layer_1
 62
7
100
AcDbPolyline
 90
1
 70
1
 10
110.928830
 20
249.287666
 30
0.0
  0
SPLINE
  5
128
100
AcDbEntity
  8
Layer_1
 62
7
100
AcDbSpline
 70
8
 71
3
 72
8
 73
4
 74
0
 40
0
 40
0
 40
0
 40
0
 40
1
 40
1
 40
1
 40
1
 10
81.416925
 20
263.796944
 30
0.0
 10
81.941205
 20
263.796944
 30
0.0
 10
82.363275
 20
263.374871
 30
0.0
 10
82.363275
 20
262.850591
 30
0.0
  0
LWPOLYLINE
  5
129
100
AcDbEntity
  8
Layer_1
 62
7
100
AcDbPolyline
 90
2
 70
0
 10
43.591359
 20
263.796944
 30
0.0
 10
81.416925
 20
263.796944
 30
0.0
  0
SPLINE
  5
12a
100
AcDbEntity
  8
Layer_1
 62
7
100
AcDbSpline
 70
8
 71
3
 72
8
 73
4
 74
0
 40
0
 40
0
 40
0
 40
0
 40
1
 40
1
 40
1
 40
1
 10
82.363275
 20
235.025021
 30
0.0
 10
82.363275
 20
234.500742
 30
0.0
 10
81.941205
 20
234.078669
 30
0.0
 10
81.416925
 20
234.078669
 30
0.0
  0
LWPOLYLINE
  5
12b
100
AcDbEntity
  8
Layer_1
 62
7
100
AcDbPolyline
 90
2
 70
0
 10
82.363275
 20
262.850591
 30
0.0
 10
82.363275
 20
235.025021
 30
0.0
  0
SPLINE
  5
12c
100
AcDbEntity
  8
Layer_1
 62
7
100
AcDbSpline
 70
8
 71
3
 72
8
 73
4
 74
0
 40
0
 40
0
 40
0
 40
0
 40
1
 40
1
 40
1
 40
1
 10
43.591359
 20
234.078669
 30
0.0
 10
43.067080
 20
234.078669
 30
0.0
 10
42.645007
 20
234.500742
 30
0.0
 10
42.645007
 20
235.025021
 30
0.0
  0
LWPOLYLINE
  5
12d
100
AcDbEntity
  8
Layer_1
 62
7
100
AcDbPolyline
 90
2
 70
0
 10
81.416925
 20
234.078669
 30
0.0
 10
43.591359
 20
234.078669
 30
0.0
  0
SPLINE
  5
12e
100
AcDbEntity
  8
Layer_1
 62
7
100
AcDbSpline
 70
8
 71
3
 72
8
 73
4
 74
0
 40
0
 40
0
 40
0
 40
0
 40
1
 40
1
 40
1
 40
1
 10
42.645007
 20
262.850591
 30
0.0
 10
42.645007
 20
263.374871
 30
0.0
 10
43.067080
 20
263.796944
 30
0.0
 10
43.591359
 20
263.796944
 30
0.0
  0
LWPOLYLINE
  5
12f
100
AcDbEntity
  8
Layer_1
 62
7
100
AcDbPolyline
 90
2
 70
0
 10
42.645007
 20
235.025021
 30
0.0
 10
42.645007
 20
262.850591
 30
0.0
  0
SPLINE
  5
130
100
AcDbEntity
  8
Layer_1
 62
7
100
AcDbSpline
 70
8
 71
3
 72
8
 73
4
 74
0
 40
0
 40
0
 40
0
 40
0
 40
1
 40
1
 40
1
 40
1
 10
80.473135
 20
236.565812
 30
0.0
 10
80.473135
 20
235.754516
 30
0.0
 10
79.815451
 20
235.096831
 30
0.0
 10
79.004155
 20
235.096830
 30
0.0
  0
SPLINE
  5
131
100
AcDbEntity
  8
Layer_1
 62
7
100
AcDbSpline
 70
8
 71
3
 72
8
 73
4
 74
0
 40
0
 40
0
 40
0
 40
0
 40
1
 40
1
 40
1
 40
1
 10
79.004155
 20
235.096830
 30
0.0
 10
78.192859
 20
235.096831
 30
0.0
 10
77.535175
 20
235.754516
 30
0.0
 10
77.535175
 20
236.565812
 30
0.0
  0
SPLINE
  5
132
100
AcDbEntity
  8
Layer_1
 62
7
100
AcDbSpline
 70
8
 71
3
 72
8
 73
4
 74
0
 40
0
 40
0
 40
0
 40
0
 40
1
 40
1
 40
1
 40
1
 10
77.535175
 20
236.565812
 30
0.0
 10
77.535176
 20
237.377107
 30
0.0
 10
78.192860
 20
238.034792
 30
0.0
 10
79.004155
 20
238.034793
 30
0.0
  0
SPLINE
  5
133
100
AcDbEntity
  8
Layer_1
 62
7
100
AcDbSpline
 70
8
 71
3
 72
8
 73
4
 74
0
 40
0
 40
0
 40
0
 40
0
 40
1
 40
1
 40
1
 40
1
 10
79.004155
 20
238.034793
 30
0.0
 10
79.815450
 20
238.034792
 30
0.0
 10
80.473134
 20
237.377107
 30
0.0
 10
80.473135
 20
236.565812
 30
0.0
  0
LWPOLYLINE
  5
134
100
AcDbEntity
  8
Layer_1
 62
7
100
AcDbPolyline
 90
1
 70
1
 10
43.591359
 20
263.796944
 30
0.0
  0
SPLINE
  5
135
100
AcDbEntity
  8
Layer_1
 62
7
100
AcDbSpline
 70
8
 71
3
 72
8
 73
4
 74
0
 40
0
 40
0
 40
0
 40
0
 40
1
 40
1
 40
1
 40
1
 10
47.373129
 20
261.390023
 30
0.0
 10
47.373129
 20
260.578727
 30
0.0
 10
46.715443
 20
259.921041
 30
0.0
 10
45.904147
 20
259.921041
 30
0.0
  0
SPLINE
  5
136
100
AcDbEntity
  8
Layer_1
 62
7
100
AcDbSpline
 70
8
 71
3
 72
8
 73
4
 74
0
 40
0
 40
0
 40
0
 40
0
 40
1
 40
1
 40
1
 40
1
 10
45.904147
 20
259.921041
 30
0.0
 10
45.514549
 20
259.921041
 30
0.0
 10
45.140907
 20
260.075808
 30
0.0
 10
44.865420
 20
260.351296
 30
0.0
  0
SPLINE
  5
137
100
AcDbEntity
  8
Layer_1
 62
7
100
AcDbSpline
 70
8
 71
3
 72
8
 73
4
 74
0
 40
0
 40
0
 40
0
 40
0
 40
1
 40
1
 40
1
 40
1
 10
44.865420
 20
260.351296
 30
0.0
 10
44.589932
 20
260.626783
 30
0.0
 10
44.435165
 20
261.000425
 30
0.0
 10
44.435165
 20
261.390023
 30
0.0
  0
SPLINE
  5
138
100
AcDbEntity
  8
Layer_1
 62
7
100
AcDbSpline
 70
8
 71
3
 72
8
 73
4
 74
0
 40
0
 40
0
 40
0
 40
0
 40
1
 40
1
 40
1
 40
1
 10
44.435165
 20
261.390023
 30
0.0
 10
44.435165
 20
262.201319
 30
0.0
 10
45.092851
 20
262.859005
 30
0.0
 10
45.904147
 20
262.859005
 30
0.0
  0
SPLINE
  5
139
100
AcDbEntity
  8
Layer_1
 62
7
100
AcDbSpline
 70
8
 71
3
 72
8
 73
4
 74
0
 40
0
 40
0
 40
0
 40
0
 40
1
 40
1
 40
1
 40
1
 10
45.904147
 20
262.859005
 30
0.0
 10
46.715443
 20
262.859005
 30
0.0
 10
47.373129
 20
262.201319
 30
0.0
 10
47.373129
 20
261.390023
 30
0.0
  0
LWPOLYLINE
  5
13a
100
AcDbEntity
  8
Layer_1
 62
7
100
AcDbPolyline
 90
1
 70
1
 10
80.473135
 20
236.565812
 30
0.0
  0
SPLINE
  5
13b
100
AcDbEntity
  8
Layer_1
 62
7
100
AcDbSpline
 70
8
 71
3
 72
8
 73
4
 74
0
 40
0
 40
0
 40
0
 40
0
 40
1
 40
1
 40
1
 40
1
 10
80.473135
 20
261.390023
 30
0.0
 10
80.473135
 20
260.578727
 30
0.0
 10
79.815451
 20
259.921042
 30
0.0
 10
79.004155
 20
259.921041
 30
0.0
  0
SPLINE
  5
13c
100
AcDbEntity
  8
Layer_1
 62
7
100
AcDbSpline
 70
8
 71
3
 72
8
 73
4
 74
0
 40
0
 40
0
 40
0
 40
0
 40
1
 40
1
 40
1
 40
1
 10
79.004155
 20
259.921041
 30
0.0
 10
78.192859
 20
259.921042
 30
0.0
 10
77.535175
 20
260.578727
 30
0.0
 10
77.535175
 20
261.390023
 30
0.0
  0
SPLINE
  5
13d
100
AcDbEntity
  8
Layer_1
 62
7
100
AcDbSpline
 70
8
 71
3
 72
8
 73
4
 74
0
 40
0
 40
0
 40
0
 40
0
 40
1
 40
1
 40
1
 40
1
 10
77.535175
 20
261.390023
 30
0.0
 10
77.535175
 20
262.201319
 30
0.0
 10
78.192859
 20
262.859004
 30
0.0
 10
79.004155
 20
262.859005
 30
0.0
  0
SPLINE
  5
13e
100
AcDbEntity
  8
Layer_1
 62
7
100
AcDbSpline
 70
8
 71
3
 72
8
 73
4
 74
0
 40
0
 40
0
 40
0
 40
0
 40
1
 40
1
 40
1
 40
1
 10
79.004155
 20
262.859005
 30
0.0
 10
79.815451
 20
262.859004
 30
0.0
 10
80.473135
 20
262.201319
 30
0.0
 10
80.473135
 20
261.390023
 30
0.0
  0
LWPOLYLINE
  5
13f
100
AcDbEntity
  8
Layer_1
 62
7
100
AcDbPolyline
 90
1
 70
1
 10
47.373129
 20
261.390023
 30
0.0
  0
SPLINE
  5
140
100
AcDbEntity
  8
Layer_1
 62
7
100
AcDbSpline
 70
8
 71
3
 72
8
 73
4
 74
0
 40
0
 40
0
 40
0
 40
0
 40
1
 40
1
 40
1
 40
1
 10
47.373129
 20
236.565812
 30
0.0
 10
47.373129
 20
235.754516
 30
0.0
 10
46.715443
 20
235.096830
 30
0.0
 10
45.904147
 20
235.096830
 30
0.0
  0
SPLINE
  5
141
100
AcDbEntity
  8
Layer_1
 62
7
100
AcDbSpline
 70
8
 71
3
 72
8
 73
4
 74
0
 40
0
 40
0
 40
0
 40
0
 40
1
 40
1
 40
1
 40
1
 10
45.904147
 20
235.096830
 30
0.0
 10
45.514549
 20
235.096830
 30
0.0
 10
45.140907
 20
235.251597
 30
0.0
 10
44.865420
 20
235.527085
 30
0.0
  0
SPLINE
  5
142
100
AcDbEntity
  8
Layer_1
 62
7
100
AcDbSpline
 70
8
 71
3
 72
8
 73
4
 74
0
 40
0
 40
0
 40
0
 40
0
 40
1
 40
1
 40
1
 40
1
 10
44.865420
 20
235.527085
 30
0.0
 10
44.589932
 20
235.802572
 30
0.0
 10
44.435165
 20
236.176214
 30
0.0
 10
44.435165
 20
236.565812
 30
0.0
  0
SPLINE
  5
143
100
AcDbEntity
  8
Layer_1
 62
7
100
AcDbSpline
 70
8
 71
3
 72
8
 73
4
 74
0
 40
0
 40
0
 40
0
 40
0
 40
1
 40
1
 40
1
 40
1
 10
44.435165
 20
236.565812
 30
0.0
 10
44.435166
 20
237.377108
 30
0.0
 10
45.092851
 20
238.034793
 30
0.0
 10
45.904147
 20
238.034793
 30
0.0
  0
SPLINE
  5
144
100
AcDbEntity
  8
Layer_1
 62
7
100
AcDbSpline
 70
8
 71
3
 72
8
 73
4
 74
0
 40
0
 40
0
 40
0
 40
0
 40
1
 40
1
 40
1
 40
1
 10
45.904147
 20
238.034793
 30
0.0
 10
46.715443
 20
238.034793
 30
0.0
 10
47.373128
 20
237.377108
 30
0.0
 10
47.373129
 20
236.565812
 30
0.0
  0
LWPOLYLINE
  5
145
100
AcDbEntity
  8
Layer_1
 62
7
100
AcDbPolyline
 90
1
 70
1
 10
80.473135
 20
261.390023
 30
0.0
  0
SPLINE
  5
146
100
AcDbEntity
  8
Layer_1
 62
7
100
AcDbSpline
 70
8
 71
3
 72
8
 73
4
 74
0
 40
0
 40
0
 40
0
 40
0
 40
1
 40
1
 40
1
 40
1
 10
67.444835
 20
248.937806
 30
0.0
 10
67.444835
 20
247.627454
 30
0.0
 10
66.924300
 20
246.370770
 30
0.0
 10
65.997741
 20
245.444211
 30
0.0
  0
SPLINE
  5
147
100
AcDbEntity
  8
Layer_1
 62
7
100
AcDbSpline
 70
8
 71
3
 72
8
 73
4
 74
0
 40
0
 40
0
 40
0
 40
0
 40
1
 40
1
 40
1
 40
1
 10
65.997741
 20
245.444211
 30
0.0
 10
65.071181
 20
244.517652
 30
0.0
 10
63.814497
 20
243.997117
 30
0.0
 10
62.504145
 20
243.997117
 30
0.0
  0
SPLINE
  5
148
100
AcDbEntity
  8
Layer_1
 62
7
100
AcDbSpline
 70
8
 71
3
 72
8
 73
4
 74
0
 40
0
 40
0
 40
0
 40
0
 40
1
 40
1
 40
1
 40
1
 10
62.504145
 20
243.997117
 30
0.0
 10
61.193793
 20
243.997117
 30
0.0
 10
59.937109
 20
244.517652
 30
0.0
 10
59.010549
 20
245.444211
 30
0.0
  0
SPLINE
  5
149
100
AcDbEntity
  8
Layer_1
 62
7
100
AcDbSpline
 70
8
 71
3
 72
8
 73
4
 74
0
 40
0
 40
0
 40
0
 40
0
 40
1
 40
1
 40
1
 40
1
 10
59.010549
 20
245.444211
 30
0.0
 10
58.083990
 20
246.370770
 30
0.0
 10
57.563455
 20
247.627454
 30
0.0
 10
57.563455
 20
248.937806
 30
0.0
  0
SPLINE
  5
14a
100
AcDbEntity
  8
Layer_1
 62
7
100
AcDbSpline
 70
8
 71
3
 72
8
 73
4
 74
0
 40
0
 40
0
 40
0
 40
0
 40
1
 40
1
 40
1
 40
1
 10
57.563455
 20
248.937806
 30
0.0
 10
57.563455
 20
250.248158
 30
0.0
 10
58.083991
 20
251.504842
 30
0.0
 10
59.010550
 20
252.431401
 30
0.0
  0
SPLINE
  5
14b
100
AcDbEntity
  8
Layer_1
 62
7
100
AcDbSpline
 70
8
 71
3
 72
8
 73
4
 74
0
 40
0
 40
0
 40
0
 40
0
 40
1
 40
1
 40
1
 40
1
 10
59.010550
 20
252.431401
 30
0.0
 10
59.937109
 20
253.357959
 30
0.0
 10
61.193793
 20
253.878495
 30
0.0
 10
62.504145
 20
253.878494
 30
0.0
  0
SPLINE
  5
14c
100
AcDbEntity
  8
Layer_1
 62
7
100
AcDbSpline
 70
8
 71
3
 72
8
 73
4
 74
0
 40
0
 40
0
 40
0
 40
0
 40
1
 40
1
 40
1
 40
1
 10
62.504145
 20
253.878494
 30
0.0
 10
63.814497
 20
253.878495
 30
0.0
 10
65.071181
 20
253.357959
 30
0.0
 10
65.997740
 20
252.431401
 30
0.0
  0
SPLINE
  5
14d
100
AcDbEntity
  8
Layer_1
 62
7
100
AcDbSpline
 70
8
 71
3
 72
8
 73
4
 74
0
 40
0
 40
0
 40
0
 40
0
 40
1
 40
1
 40
1
 40
1
 10
65.997740
 20
252.431401
 30
0.0
 10
66.924299
 20
251.504842
 30
0.0
 10
67.444835
 20
250.248158
 30
0.0
 10
67.444835
 20
248.937806
 30
0.0
  0
LWPOLYLINE
  5
14e
100
AcDbEntity
  8
Layer_1
 62
7
100
AcDbPolyline
 90
1
 70
1
 10
47.373129
 20
236.565812
 30
0.0
  0
LWPOLYLINE
  5
14f
100
AcDbEntity
  8
Layer_1
 62
7
100
AcDbPolyline
 90
1
 70
1
 10
67.444835
 20
248.937806
 30
0.0
  0
SPLINE
  5
150
100
AcDbEntity
  8
Layer_1
 62
7
100
AcDbSpline
 70
8
 71
3
 72
8
 73
4
 74
0
 40
0
 40
0
 40
0
 40
0
 40
1
 40
1
 40
1
 40
1
 10
186.651650
 20
228.709999
 30
0.0
 10
187.175930
 20
228.709999
 30
0.0
 10
187.598000
 20
228.287925
 30
0.0
 10
187.598000
 20
227.763645
 30
0.0
  0
LWPOLYLINE
  5
151
100
AcDbEntity
  8
Layer_1
 62
7
100
AcDbPolyline
 90
2
 70
0
 10
38.544353
 20
228.709999
 30
0.0
 10
186.651650
 20
228.709999
 30
0.0
  0
SPLINE
  5
152
100
AcDbEntity
  8
Layer_1
 62
7
100
AcDbSpline
 70
8
 71
3
 72
8
 73
4
 74
0
 40
0
 40
0
 40
0
 40
0
 40
1
 40
1
 40
1
 40
1
 10
187.598000
 20
129.656350
 30
0.0
 10
187.598000
 20
129.132070
 30
0.0
 10
187.175930
 20
128.710000
 30
0.0
 10
186.651650
 20
128.710000
 30
0.0
  0
LWPOLYLINE
  5
153
100
AcDbEntity
  8
Layer_1
 62
7
100
AcDbPolyline
 90
2
 70
0
 10
187.598000
 20
227.763645
 30
0.0
 10
187.598000
 20
129.656350
 30
0.0
  0
SPLINE
  5
154
100
AcDbEntity
  8
Layer_1
 62
7
100
AcDbSpline
 70
8
 71
3
 72
8
 73
4
 74
0
 40
0
 40
0
 40
0
 40
0
 40
1
 40
1
 40
1
 40
1
 10
38.544353
 20
128.710000
 30
0.0
 10
38.020073
 20
128.710000
 30
0.0
 10
37.598000
 20
129.132070
 30
0.0
 10
37.598000
 20
129.656350
 30
0.0
  0
LWPOLYLINE
  5
155
100
AcDbEntity
  8
Layer_1
 62
7
100
AcDbPolyline
 90
2
 70
0
 10
186.651650
 20
128.710000
 30
0.0
 10
38.544353
 20
128.710000
 30
0.0
  0
SPLINE
  5
156
100
AcDbEntity
  8
Layer_1
 62
7
100
AcDbSpline
 70
8
 71
3
 72
8
 73
4
 74
0
 40
0
 40
0
 40
0
 40
0
 40
1
 40
1
 40
1
 40
1
 10
37.598000
 20
227.763645
 30
0.0
 10
37.598000
 20
228.287925
 30
0.0
 10
38.020073
 20
228.709999
 30
0.0
 10
38.544353
 20
228.709999
 30
0.0
  0
LWPOLYLINE
  5
157
100
AcDbEntity
  8
Layer_1
 62
7
100
AcDbPolyline
 90
2
 70
0
 10
37.598000
 20
129.656350
 30
0.0
 10
37.598000
 20
227.763645
 30
0.0
  0
SPLINE
  5
158
100
AcDbEntity
  8
Layer_1
 62
7
100
AcDbSpline
 70
8
 71
3
 72
8
 73
4
 74
0
 40
0
 40
0
 40
0
 40
0
 40
1
 40
1
 40
1
 40
1
 10
171.764050
 20
181.268760
 30
0.0
 10
171.764050
 20
180.048764
 30
0.0
 10
171.279409
 20
178.878736
 30
0.0
 10
170.416741
 20
178.016069
 30
0.0
  0
SPLINE
  5
159
100
AcDbEntity
  8
Layer_1
 62
7
100
AcDbSpline
 70
8
 71
3
 72
8
 73
4
 74
0
 40
0
 40
0
 40
0
 40
0
 40
1
 40
1
 40
1
 40
1
 10
170.416741
 20
178.016069
 30
0.0
 10
169.554074
 20
177.153401
 30
0.0
 10
168.384046
 20
176.668760
 30
0.0
 10
167.164050
 20
176.668760
 30
0.0
  0
SPLINE
  5
15a
100
AcDbEntity
  8
Layer_1
 62
7
100
AcDbSpline
 70
8
 71
3
 72
8
 73
4
 74
0
 40
0
 40
0
 40
0
 40
0
 40
1
 40
1
 40
1
 40
1
 10
167.164050
 20
176.668760
 30
0.0
 10
165.944054
 20
176.668760
 30
0.0
 10
164.774026
 20
177.153401
 30
0.0
 10
163.911359
 20
178.016069
 30
0.0
  0
SPLINE
  5
15b
100
AcDbEntity
  8
Layer_1
 62
7
100
AcDbSpline
 70
8
 71
3
 72
8
 73
4
 74
0
 40
0
 40
0
 40
0
 40
0
 40
1
 40
1
 40
1
 40
1
 10
163.911359
 20
178.016069
 30
0.0
 10
163.048691
 20
178.878736
 30
0.0
 10
162.564050
 20
180.048764
 30
0.0
 10
162.564050
 20
181.268760
 30
0.0
  0
SPLINE
  5
15c
100
AcDbEntity
  8
Layer_1
 62
7
100
AcDbSpline
 70
8
 71
3
 72
8
 73
4
 74
0
 40
0
 40
0
 40
0
 40
0
 40
1
 40
1
 40
1
 40
1
 10
162.564050
 20
181.268760
 30
0.0
 10
162.564050
 20
182.488756
 30
0.0
 10
163.048691
 20
183.658784
 30
0.0
 10
163.911359
 20
184.521451
 30
0.0
  0
SPLINE
  5
15d
100
AcDbEntity
  8
Layer_1
 62
7
100
AcDbSpline
 70
8
 71
3
 72
8
 73
4
 74
0
 40
0
 40
0
 40
0
 40
0
 40
1
 40
1
 40
1
 40
1
 10
163.911359
 20
184.521451
 30
0.0
 10
164.774026
 20
185.384119
 30
0.0
 10
165.944054
 20
185.868760
 30
0.0
 10
167.164050
 20
185.868760
 30
0.0
  0
SPLINE
  5
15e
100
AcDbEntity
  8
Layer_1
 62
7
100
AcDbSpline
 70
8
 71
3
 72
8
 73
4
 74
0
 40
0
 40
0
 40
0
 40
0
 40
1
 40
1
 40
1
 40
1
 10
167.164050
 20
185.868760
 30
0.0
 10
168.384046
 20
185.868760
 30
0.0
 10
169.554074
 20
185.384119
 30
0.0
 10
170.416741
 20
184.521451
 30
0.0
  0
SPLINE
  5
15f
100
AcDbEntity
  8
Layer_1
 62
7
100
AcDbSpline
 70
8
 71
3
 72
8
 73
4
 74
0
 40
0
 40
0
 40
0
 40
0
 40
1
 40
1
 40
1
 40
1
 10
170.416741
 20
184.521451
 30
0.0
 10
171.279409
 20
183.658784
 30
0.0
 10
171.764050
 20
182.488756
 30
0.0
 10
171.764050
 20
181.268760
 30
0.0
  0
LWPOLYLINE
  5
160
100
AcDbEntity
  8
Layer_1
 62
7
100
AcDbPolyline
 90
1
 70
1
 10
38.544353
 20
228.709999
 30
0.0
  0
SPLINE
  5
161
100
AcDbEntity
  8
Layer_1
 62
7
100
AcDbSpline
 70
8
 71
3
 72
8
 73
4
 74
0
 40
0
 40
0
 40
0
 40
0
 40
1
 40
1
 40
1
 40
1
 10
124.654500
 20
179.098960
 30
0.0
 10
124.654500
 20
177.507661
 30
0.0
 10
124.022359
 20
175.981538
 30
0.0
 10
122.897141
 20
174.856319
 30
0.0
  0
SPLINE
  5
162
100
AcDbEntity
  8
Layer_1
 62
7
100
AcDbSpline
 70
8
 71
3
 72
8
 73
4
 74
0
 40
0
 40
0
 40
0
 40
0
 40
1
 40
1
 40
1
 40
1
 10
122.897141
 20
174.856319
 30
0.0
 10
121.771922
 20
173.731101
 30
0.0
 10
120.245799
 20
173.098960
 30
0.0
 10
118.654500
 20
173.098960
 30
0.0
  0
SPLINE
  5
163
100
AcDbEntity
  8
Layer_1
 62
7
100
AcDbSpline
 70
8
 71
3
 72
8
 73
4
 74
0
 40
0
 40
0
 40
0
 40
0
 40
1
 40
1
 40
1
 40
1
 10
118.654500
 20
173.098960
 30
0.0
 10
117.063201
 20
173.098960
 30
0.0
 10
115.537078
 20
173.731101
 30
0.0
 10
114.411859
 20
174.856319
 30
0.0
  0
SPLINE
  5
164
100
AcDbEntity
  8
Layer_1
 62
7
100
AcDbSpline
 70
8
 71
3
 72
8
 73
4
 74
0
 40
0
 40
0
 40
0
 40
0
 40
1
 40
1
 40
1
 40
1
 10
114.411859
 20
174.856319
 30
0.0
 10
113.286641
 20
175.981538
 30
0.0
 10
112.654500
 20
177.507661
 30
0.0
 10
112.654500
 20
179.098960
 30
0.0
  0
SPLINE
  5
165
100
AcDbEntity
  8
Layer_1
 62
7
100
AcDbSpline
 70
8
 71
3
 72
8
 73
4
 74
0
 40
0
 40
0
 40
0
 40
0
 40
1
 40
1
 40
1
 40
1
 10
112.654500
 20
179.098960
 30
0.0
 10
112.654500
 20
180.690259
 30
0.0
 10
113.286641
 20
182.216382
 30
0.0
 10
114.411859
 20
183.341601
 30
0.0
  0
SPLINE
  5
166
100
AcDbEntity
  8
Layer_1
 62
7
100
AcDbSpline
 70
8
 71
3
 72
8
 73
4
 74
0
 40
0
 40
0
 40
0
 40
0
 40
1
 40
1
 40
1
 40
1
 10
114.411859
 20
183.341601
 30
0.0
 10
115.537078
 20
184.466819
 30
0.0
 10
117.063201
 20
185.098960
 30
0.0
 10
118.654500
 20
185.098960
 30
0.0
  0
SPLINE
  5
167
100
AcDbEntity
  8
Layer_1
 62
7
100
AcDbSpline
 70
8
 71
3
 72
8
 73
4
 74
0
 40
0
 40
0
 40
0
 40
0
 40
1
 40
1
 40
1
 40
1
 10
118.654500
 20
185.098960
 30
0.0
 10
120.245799
 20
185.098960
 30
0.0
 10
121.771922
 20
184.466819
 30
0.0
 10
122.897141
 20
183.341601
 30
0.0
  0
SPLINE
  5
168
100
AcDbEntity
  8
Layer_1
 62
7
100
AcDbSpline
 70
8
 71
3
 72
8
 73
4
 74
0
 40
0
 40
0
 40
0
 40
0
 40
1
 40
1
 40
1
 40
1
 10
122.897141
 20
183.341601
 30
0.0
 10
124.022359
 20
182.216382
 30
0.0
 10
124.654500
 20
180.690259
 30
0.0
 10
124.654500
 20
179.098960
 30
0.0
  0
LWPOLYLINE
  5
169
100
AcDbEntity
  8
Layer_1
 62
7
100
AcDbPolyline
 90
1
 70
1
 10
171.764050
 20
181.268760
 30
0.0
  0
SPLINE
  5
16a
100
AcDbEntity
  8
Layer_1
 62
7
100
AcDbSpline
 70
8
 71
3
 72
8
 73
4
 74
0
 40
0
 40
0
 40
0
 40
0
 40
1
 40
1
 40
1
 40
1
 10
175.362990
 20
200.441557
 30
0.0
 10
175.817982
 20
200.441559
 30
0.0
 10
176.254338
 20
200.260815
 30
0.0
 10
176.576067
 20
199.939088
 30
0.0
  0
SPLINE
  5
16b
100
AcDbEntity
  8
Layer_1
 62
7
100
AcDbSpline
 70
8
 71
3
 72
8
 73
4
 74
0
 40
0
 40
0
 40
0
 40
0
 40
1
 40
1
 40
1
 40
1
 10
176.576067
 20
199.939088
 30
0.0
 10
176.897795
 20
199.617361
 30
0.0
 10
177.078540
 20
199.181005
 30
0.0
 10
177.078540
 20
198.726013
 30
0.0
  0
SPLINE
  5
16c
100
AcDbEntity
  8
Layer_1
 62
7
100
AcDbSpline
 70
8
 71
3
 72
8
 73
4
 74
0
 40
0
 40
0
 40
0
 40
0
 40
1
 40
1
 40
1
 40
1
 10
177.078540
 20
198.726013
 30
0.0
 10
177.078540
 20
198.271021
 30
0.0
 10
176.897795
 20
197.834665
 30
0.0
 10
176.576067
 20
197.512938
 30
0.0
  0
SPLINE
  5
16d
100
AcDbEntity
  8
Layer_1
 62
7
100
AcDbSpline
 70
8
 71
3
 72
8
 73
4
 74
0
 40
0
 40
0
 40
0
 40
0
 40
1
 40
1
 40
1
 40
1
 10
176.576067
 20
197.512938
 30
0.0
 10
176.254338
 20
197.191211
 30
0.0
 10
175.817982
 20
197.010467
 30
0.0
 10
175.362990
 20
197.010469
 30
0.0
  0
SPLINE
  5
16e
100
AcDbEntity
  8
Layer_1
 62
7
100
AcDbSpline
 70
8
 71
3
 72
8
 73
4
 74
0
 40
0
 40
0
 40
0
 40
0
 40
1
 40
1
 40
1
 40
1
 10
175.362990
 20
197.010469
 30
0.0
 10
174.415523
 20
197.010471
 30
0.0
 10
173.647450
 20
197.778546
 30
0.0
 10
173.647450
 20
198.726013
 30
0.0
  0
SPLINE
  5
16f
100
AcDbEntity
  8
Layer_1
 62
7
100
AcDbSpline
 70
8
 71
3
 72
8
 73
4
 74
0
 40
0
 40
0
 40
0
 40
0
 40
1
 40
1
 40
1
 40
1
 10
173.647450
 20
198.726013
 30
0.0
 10
173.647450
 20
199.673480
 30
0.0
 10
174.415523
 20
200.441555
 30
0.0
 10
175.362990
 20
200.441557
 30
0.0
  0
LWPOLYLINE
  5
170
100
AcDbEntity
  8
Layer_1
 62
7
100
AcDbPolyline
 90
1
 70
1
 10
124.654500
 20
179.098960
 30
0.0
  0
SPLINE
  5
171
100
AcDbEntity
  8
Layer_1
 62
7
100
AcDbSpline
 70
8
 71
3
 72
8
 73
4
 74
0
 40
0
 40
0
 40
0
 40
0
 40
1
 40
1
 40
1
 40
1
 10
175.362990
 20
165.441560
 30
0.0
 10
175.817983
 20
165.441562
 30
0.0
 10
176.254340
 20
165.260817
 30
0.0
 10
176.576069
 20
164.939089
 30
0.0
  0
SPLINE
  5
172
100
AcDbEntity
  8
Layer_1
 62
7
100
AcDbSpline
 70
8
 71
3
 72
8
 73
4
 74
0
 40
0
 40
0
 40
0
 40
0
 40
1
 40
1
 40
1
 40
1
 10
176.576069
 20
164.939089
 30
0.0
 10
176.897797
 20
164.617360
 30
0.0
 10
177.078542
 20
164.181003
 30
0.0
 10
177.078540
 20
163.726010
 30
0.0
  0
SPLINE
  5
173
100
AcDbEntity
  8
Layer_1
 62
7
100
AcDbSpline
 70
8
 71
3
 72
8
 73
4
 74
0
 40
0
 40
0
 40
0
 40
0
 40
1
 40
1
 40
1
 40
1
 10
177.078540
 20
163.726010
 30
0.0
 10
177.078539
 20
163.271019
 30
0.0
 10
176.897793
 20
162.834664
 30
0.0
 10
176.576065
 20
162.512938
 30
0.0
  0
SPLINE
  5
174
100
AcDbEntity
  8
Layer_1
 62
7
100
AcDbSpline
 70
8
 71
3
 72
8
 73
4
 74
0
 40
0
 40
0
 40
0
 40
0
 40
1
 40
1
 40
1
 40
1
 10
176.576065
 20
162.512938
 30
0.0
 10
176.254337
 20
162.191211
 30
0.0
 10
175.817981
 20
162.010468
 30
0.0
 10
175.362990
 20
162.010470
 30
0.0
  0
SPLINE
  5
175
100
AcDbEntity
  8
Layer_1
 62
7
100
AcDbSpline
 70
8
 71
3
 72
8
 73
4
 74
0
 40
0
 40
0
 40
0
 40
0
 40
1
 40
1
 40
1
 40
1
 10
175.362990
 20
162.010470
 30
0.0
 10
174.415524
 20
162.010472
 30
0.0
 10
173.647452
 20
162.778544
 30
0.0
 10
173.647450
 20
163.726010
 30
0.0
  0
SPLINE
  5
176
100
AcDbEntity
  8
Layer_1
 62
7
100
AcDbSpline
 70
8
 71
3
 72
8
 73
4
 74
0
 40
0
 40
0
 40
0
 40
0
 40
1
 40
1
 40
1
 40
1
 10
173.647450
 20
163.726010
 30
0.0
 10
173.647448
 20
164.181001
 30
0.0
 10
173.828191
 20
164.617357
 30
0.0
 10
174.149918
 20
164.939085
 30
0.0
  0
SPLINE
  5
177
100
AcDbEntity
  8
Layer_1
 62
7
100
AcDbSpline
 70
8
 71
3
 72
8
 73
4
 74
0
 40
0
 40
0
 40
0
 40
0
 40
1
 40
1
 40
1
 40
1
 10
174.149918
 20
164.939085
 30
0.0
 10
174.471644
 20
165.260813
 30
0.0
 10
174.907999
 20
165.441559
 30
0.0
 10
175.362990
 20
165.441560
 30
0.0
  0
LWPOLYLINE
  5
178
100
AcDbEntity
  8
Layer_1
 62
7
100
AcDbPolyline
 90
1
 70
1
 10
175.362990
 20
200.441557
 30
0.0
  0
LWPOLYLINE
  5
179
100
AcDbEntity
  8
Layer_1
 62
7
100
AcDbPolyline
 90
1
 70
1
 10
175.362990
 20
165.441560
 30
0.0
  0
SPLINE
  5
17a
100
AcDbEntity
  8
Layer_1
 62
7
100
AcDbSpline
 70
8
 71
3
 72
8
 73
4
 74
0
 40
0
 40
0
 40
0
 40
0
 40
1
 40
1
 40
1
 40
1
 10
185.772310
 20
126.317000
 30
0.0
 10
186.296590
 20
126.317000
 30
0.0
 10
186.718660
 20
125.894930
 30
0.0
 10
186.718660
 20
125.370650
 30
0.0
  0
LWPOLYLINE
  5
17b
100
AcDbEntity
  8
Layer_1
 62
7
100
AcDbPolyline
 90
2
 70
0
 10
37.665016
 20
126.317000
 30
0.0
 10
185.772310
 20
126.317000
 30
0.0
  0
SPLINE
  5
17c
100
AcDbEntity
  8
Layer_1
 62
7
100
AcDbSpline
 70
8
 71
3
 72
8
 73
4
 74
0
 40
0
 40
0
 40
0
 40
0
 40
1
 40
1
 40
1
 40
1
 10
186.718660
 20
27.263360
 30
0.0
 10
186.718660
 20
26.739080
 30
0.0
 10
186.296590
 20
26.317000
 30
0.0
 10
185.772310
 20
26.317000
 30
0.0
  0
LWPOLYLINE
  5
17d
100
AcDbEntity
  8
Layer_1
 62
7
100
AcDbPolyline
 90
2
 70
0
 10
186.718660
 20
125.370650
 30
0.0
 10
186.718660
 20
27.263360
 30
0.0
  0
SPLINE
  5
17e
100
AcDbEntity
  8
Layer_1
 62
7
100
AcDbSpline
 70
8
 71
3
 72
8
 73
4
 74
0
 40
0
 40
0
 40
0
 40
0
 40
1
 40
1
 40
1
 40
1
 10
37.665016
 20
26.317000
 30
0.0
 10
37.140736
 20
26.317000
 30
0.0
 10
36.718662
 20
26.739080
 30
0.0
 10
36.718662
 20
27.263360
 30
0.0
  0
LWPOLYLINE
  5
17f
100
AcDbEntity
  8
Layer_1
 62
7
100
AcDbPolyline
 90
2
 70
0
 10
185.772310
 20
26.317000
 30
0.0
 10
37.665016
 20
26.317000
 30
0.0
  0
SPLINE
  5
180
100
AcDbEntity
  8
Layer_1
 62
7
100
AcDbSpline
 70
8
 71
3
 72
8
 73
4
 74
0
 40
0
 40
0
 40
0
 40
0
 40
1
 40
1
 40
1
 40
1
 10
36.718662
 20
125.370650
 30
0.0
 10
36.718662
 20
125.894930
 30
0.0
 10
37.140736
 20
126.317000
 30
0.0
 10
37.665016
 20
126.317000
 30
0.0
  0
LWPOLYLINE
  5
181
100
AcDbEntity
  8
Layer_1
 62
7
100
AcDbPolyline
 90
2
 70
0
 10
36.718662
 20
27.263360
 30
0.0
 10
36.718662
 20
125.370650
 30
0.0
  0
SPLINE
  5
182
100
AcDbEntity
  8
Layer_1
 62
7
100
AcDbSpline
 70
8
 71
3
 72
8
 73
4
 74
0
 40
0
 40
0
 40
0
 40
0
 40
1
 40
1
 40
1
 40
1
 10
135.739920
 20
64.370470
 30
0.0
 10
135.739920
 20
63.559166
 30
0.0
 10
135.083889
 20
62.901474
 30
0.0
 10
134.274630
 20
62.901470
 30
0.0
  0
SPLINE
  5
183
100
AcDbEntity
  8
Layer_1
 62
7
100
AcDbSpline
 70
8
 71
3
 72
8
 73
4
 74
0
 40
0
 40
0
 40
0
 40
0
 40
1
 40
1
 40
1
 40
1
 10
134.274630
 20
62.901470
 30
0.0
 10
133.886008
 20
62.901469
 30
0.0
 10
133.513304
 20
63.056238
 30
0.0
 10
133.238506
 20
63.331729
 30
0.0
  0
SPLINE
  5
184
100
AcDbEntity
  8
Layer_1
 62
7
100
AcDbSpline
 70
8
 71
3
 72
8
 73
4
 74
0
 40
0
 40
0
 40
0
 40
0
 40
1
 40
1
 40
1
 40
1
 10
133.238506
 20
63.331729
 30
0.0
 10
132.963709
 20
63.607220
 30
0.0
 10
132.809330
 20
63.980866
 30
0.0
 10
132.809330
 20
64.370470
 30
0.0
  0
SPLINE
  5
185
100
AcDbEntity
  8
Layer_1
 62
7
100
AcDbSpline
 70
8
 71
3
 72
8
 73
4
 74
0
 40
0
 40
0
 40
0
 40
0
 40
1
 40
1
 40
1
 40
1
 10
132.809330
 20
64.370470
 30
0.0
 10
132.809330
 20
64.760074
 30
0.0
 10
132.963709
 20
65.133720
 30
0.0
 10
133.238506
 20
65.409211
 30
0.0
  0
SPLINE
  5
186
100
AcDbEntity
  8
Layer_1
 62
7
100
AcDbSpline
 70
8
 71
3
 72
8
 73
4
 74
0
 40
0
 40
0
 40
0
 40
0
 40
1
 40
1
 40
1
 40
1
 10
133.238506
 20
65.409211
 30
0.0
 10
133.513304
 20
65.684702
 30
0.0
 10
133.886008
 20
65.839471
 30
0.0
 10
134.274630
 20
65.839470
 30
0.0
  0
SPLINE
  5
187
100
AcDbEntity
  8
Layer_1
 62
7
100
AcDbSpline
 70
8
 71
3
 72
8
 73
4
 74
0
 40
0
 40
0
 40
0
 40
0
 40
1
 40
1
 40
1
 40
1
 10
134.274630
 20
65.839470
 30
0.0
 10
135.083889
 20
65.839466
 30
0.0
 10
135.739920
 20
65.181774
 30
0.0
 10
135.739920
 20
64.370470
 30
0.0
  0
LWPOLYLINE
  5
188
100
AcDbEntity
  8
Layer_1
 62
7
100
AcDbPolyline
 90
1
 70
1
 10
37.665016
 20
126.317000
 30
0.0
  0
SPLINE
  5
189
100
AcDbEntity
  8
Layer_1
 62
7
100
AcDbSpline
 70
8
 71
3
 72
8
 73
4
 74
0
 40
0
 40
0
 40
0
 40
0
 40
1
 40
1
 40
1
 40
1
 10
102.722930
 20
89.194990
 30
0.0
 10
102.722930
 20
88.383686
 30
0.0
 10
102.066899
 20
87.725994
 30
0.0
 10
101.257640
 20
87.725990
 30
0.0
  0
SPLINE
  5
18a
100
AcDbEntity
  8
Layer_1
 62
7
100
AcDbSpline
 70
8
 71
3
 72
8
 73
4
 74
0
 40
0
 40
0
 40
0
 40
0
 40
1
 40
1
 40
1
 40
1
 10
101.257640
 20
87.725990
 30
0.0
 10
100.869018
 20
87.725989
 30
0.0
 10
100.496314
 20
87.880758
 30
0.0
 10
100.221516
 20
88.156249
 30
0.0
  0
SPLINE
  5
18b
100
AcDbEntity
  8
Layer_1
 62
7
100
AcDbSpline
 70
8
 71
3
 72
8
 73
4
 74
0
 40
0
 40
0
 40
0
 40
0
 40
1
 40
1
 40
1
 40
1
 10
100.221516
 20
88.156249
 30
0.0
 10
99.946719
 20
88.431740
 30
0.0
 10
99.792340
 20
88.805386
 30
0.0
 10
99.792340
 20
89.194990
 30
0.0
  0
SPLINE
  5
18c
100
AcDbEntity
  8
Layer_1
 62
7
100
AcDbSpline
 70
8
 71
3
 72
8
 73
4
 74
0
 40
0
 40
0
 40
0
 40
0
 40
1
 40
1
 40
1
 40
1
 10
99.792340
 20
89.194990
 30
0.0
 10
99.792340
 20
89.584594
 30
0.0
 10
99.946719
 20
89.958240
 30
0.0
 10
100.221516
 20
90.233731
 30
0.0
  0
SPLINE
  5
18d
100
AcDbEntity
  8
Layer_1
 62
7
100
AcDbSpline
 70
8
 71
3
 72
8
 73
4
 74
0
 40
0
 40
0
 40
0
 40
0
 40
1
 40
1
 40
1
 40
1
 10
100.221516
 20
90.233731
 30
0.0
 10
100.496314
 20
90.509222
 30
0.0
 10
100.869018
 20
90.663991
 30
0.0
 10
101.257640
 20
90.663990
 30
0.0
  0
SPLINE
  5
18e
100
AcDbEntity
  8
Layer_1
 62
7
100
AcDbSpline
 70
8
 71
3
 72
8
 73
4
 74
0
 40
0
 40
0
 40
0
 40
0
 40
1
 40
1
 40
1
 40
1
 10
101.257640
 20
90.663990
 30
0.0
 10
102.066899
 20
90.663986
 30
0.0
 10
102.722930
 20
90.006294
 30
0.0
 10
102.722930
 20
89.194990
 30
0.0
  0
LWPOLYLINE
  5
18f
100
AcDbEntity
  8
Layer_1
 62
7
100
AcDbPolyline
 90
1
 70
1
 10
135.739920
 20
64.370470
 30
0.0
  0
SPLINE
  5
190
100
AcDbEntity
  8
Layer_1
 62
7
100
AcDbSpline
 70
8
 71
3
 72
8
 73
4
 74
0
 40
0
 40
0
 40
0
 40
0
 40
1
 40
1
 40
1
 40
1
 10
135.739920
 20
89.194990
 30
0.0
 10
135.739920
 20
88.383686
 30
0.0
 10
135.083889
 20
87.725994
 30
0.0
 10
134.274630
 20
87.725990
 30
0.0
  0
SPLINE
  5
191
100
AcDbEntity
  8
Layer_1
 62
7
100
AcDbSpline
 70
8
 71
3
 72
8
 73
4
 74
0
 40
0
 40
0
 40
0
 40
0
 40
1
 40
1
 40
1
 40
1
 10
134.274630
 20
87.725990
 30
0.0
 10
133.886008
 20
87.725989
 30
0.0
 10
133.513304
 20
87.880758
 30
0.0
 10
133.238506
 20
88.156249
 30
0.0
  0
SPLINE
  5
192
100
AcDbEntity
  8
Layer_1
 62
7
100
AcDbSpline
 70
8
 71
3
 72
8
 73
4
 74
0
 40
0
 40
0
 40
0
 40
0
 40
1
 40
1
 40
1
 40
1
 10
133.238506
 20
88.156249
 30
0.0
 10
132.963709
 20
88.431740
 30
0.0
 10
132.809330
 20
88.805386
 30
0.0
 10
132.809330
 20
89.194990
 30
0.0
  0
SPLINE
  5
193
100
AcDbEntity
  8
Layer_1
 62
7
100
AcDbSpline
 70
8
 71
3
 72
8
 73
4
 74
0
 40
0
 40
0
 40
0
 40
0
 40
1
 40
1
 40
1
 40
1
 10
132.809330
 20
89.194990
 30
0.0
 10
132.809330
 20
89.584594
 30
0.0
 10
132.963709
 20
89.958240
 30
0.0
 10
133.238506
 20
90.233731
 30
0.0
  0
SPLINE
  5
194
100
AcDbEntity
  8
Layer_1
 62
7
100
AcDbSpline
 70
8
 71
3
 72
8
 73
4
 74
0
 40
0
 40
0
 40
0
 40
0
 40
1
 40
1
 40
1
 40
1
 10
133.238506
 20
90.233731
 30
0.0
 10
133.513304
 20
90.509222
 30
0.0
 10
133.886008
 20
90.663991
 30
0.0
 10
134.274630
 20
90.663990
 30
0.0
  0
SPLINE
  5
195
100
AcDbEntity
  8
Layer_1
 62
7
100
AcDbSpline
 70
8
 71
3
 72
8
 73
4
 74
0
 40
0
 40
0
 40
0
 40
0
 40
1
 40
1
 40
1
 40
1
 10
134.274630
 20
90.663990
 30
0.0
 10
135.083889
 20
90.663986
 30
0.0
 10
135.739920
 20
90.006294
 30
0.0
 10
135.739920
 20
89.194990
 30
0.0
  0
LWPOLYLINE
  5
196
100
AcDbEntity
  8
Layer_1
 62
7
100
AcDbPolyline
 90
1
 70
1
 10
102.722930
 20
89.194990
 30
0.0
  0
SPLINE
  5
197
100
AcDbEntity
  8
Layer_1
 62
7
100
AcDbSpline
 70
8
 71
3
 72
8
 73
4
 74
0
 40
0
 40
0
 40
0
 40
0
 40
1
 40
1
 40
1
 40
1
 10
102.722930
 20
64.370470
 30
0.0
 10
102.722930
 20
63.559166
 30
0.0
 10
102.066899
 20
62.901474
 30
0.0
 10
101.257640
 20
62.901470
 30
0.0
  0
SPLINE
  5
198
100
AcDbEntity
  8
Layer_1
 62
7
100
AcDbSpline
 70
8
 71
3
 72
8
 73
4
 74
0
 40
0
 40
0
 40
0
 40
0
 40
1
 40
1
 40
1
 40
1
 10
101.257640
 20
62.901470
 30
0.0
 10
100.869018
 20
62.901469
 30
0.0
 10
100.496314
 20
63.056238
 30
0.0
 10
100.221516
 20
63.331729
 30
0.0
  0
SPLINE
  5
199
100
AcDbEntity
  8
Layer_1
 62
7
100
AcDbSpline
 70
8
 71
3
 72
8
 73
4
 74
0
 40
0
 40
0
 40
0
 40
0
 40
1
 40
1
 40
1
 40
1
 10
100.221516
 20
63.331729
 30
0.0
 10
99.946719
 20
63.607220
 30
0.0
 10
99.792340
 20
63.980866
 30
0.0
 10
99.792340
 20
64.370470
 30
0.0
  0
SPLINE
  5
19a
100
AcDbEntity
  8
Layer_1
 62
7
100
AcDbSpline
 70
8
 71
3
 72
8
 73
4
 74
0
 40
0
 40
0
 40
0
 40
0
 40
1
 40
1
 40
1
 40
1
 10
99.792340
 20
64.370470
 30
0.0
 10
99.792340
 20
64.760074
 30
0.0
 10
99.946719
 20
65.133720
 30
0.0
 10
100.221516
 20
65.409211
 30
0.0
  0
SPLINE
  5
19b
100
AcDbEntity
  8
Layer_1
 62
7
100
AcDbSpline
 70
8
 71
3
 72
8
 73
4
 74
0
 40
0
 40
0
 40
0
 40
0
 40
1
 40
1
 40
1
 40
1
 10
100.221516
 20
65.409211
 30
0.0
 10
100.496314
 20
65.684702
 30
0.0
 10
100.869018
 20
65.839471
 30
0.0
 10
101.257640
 20
65.839470
 30
0.0
  0
SPLINE
  5
19c
100
AcDbEntity
  8
Layer_1
 62
7
100
AcDbSpline
 70
8
 71
3
 72
8
 73
4
 74
0
 40
0
 40
0
 40
0
 40
0
 40
1
 40
1
 40
1
 40
1
 10
101.257640
 20
65.839470
 30
0.0
 10
102.066899
 20
65.839466
 30
0.0
 10
102.722930
 20
65.181774
 30
0.0
 10
102.722930
 20
64.370470
 30
0.0
  0
LWPOLYLINE
  5
19d
100
AcDbEntity
  8
Layer_1
 62
7
100
AcDbPolyline
 90
1
 70
1
 10
135.739920
 20
89.194990
 30
0.0
  0
LWPOLYLINE
  5
19e
100
AcDbEntity
  8
Layer_1
 62
7
100
AcDbPolyline
 90
1
 70
1
 10
102.722930
 20
64.370470
 30
0.0
  0
LWPOLYLINE
  5
19f
100
AcDbEntity
  8
Layer_1
 62
7
100
AcDbPolyline
 90
2
 70
0
 10
59.757280
 20
103.322460
 30
0.0
 10
59.460620
 20
103.042200
 30
0.0
  0
LWPOLYLINE
  5
1a0
100
AcDbEntity
  8
Layer_1
 62
7
100
AcDbPolyline
 90
2
 70
0
 10
85.367700
 20
105.575820
 30
0.0
 10
85.726790
 20
105.769750
 30
0.0
  0
LWPOLYLINE
  5
1a1
100
AcDbEntity
  8
Layer_1
 62
7
100
AcDbPolyline
 90
2
 70
0
 10
86.123840
 20
105.864130
 30
0.0
 10
86.531780
 20
105.852530
 30
0.0
  0
LWPOLYLINE
  5
1a2
100
AcDbEntity
  8
Layer_1
 62
7
100
AcDbPolyline
 90
2
 70
0
 10
58.792570
 20
105.852540
 30
0.0
 10
59.183620
 20
105.735750
 30
0.0
  0
LWPOLYLINE
  5
1a3
100
AcDbEntity
  8
Layer_1
 62
7
100
AcDbPolyline
 90
2
 70
0
 10
57.001030
 20
104.557030
 30
0.0
 10
57.117820
 20
104.948070
 30
0.0
  0
LWPOLYLINE
  5
1a4
100
AcDbEntity
  8
Layer_1
 62
7
100
AcDbPolyline
 90
2
 70
0
 10
85.644710
 20
102.882280
 30
0.0
 10
85.297210
 20
103.096290
 30
0.0
  0
LWPOLYLINE
  5
1a5
100
AcDbEntity
  8
Layer_1
 62
7
100
AcDbPolyline
 90
2
 70
0
 10
58.384630
 20
105.864130
 30
0.0
 10
58.792570
 20
105.852530
 30
0.0
  0
LWPOLYLINE
  5
1a6
100
AcDbEntity
  8
Layer_1
 62
7
100
AcDbPolyline
 90
2
 70
0
 10
57.083820
 20
103.752040
 30
0.0
 10
56.989420
 20
104.149090
 30
0.0
  0
LWPOLYLINE
  5
1a7
100
AcDbEntity
  8
Layer_1
 62
7
100
AcDbPolyline
 90
2
 70
0
 10
84.857030
 20
104.948070
 30
0.0
 10
85.071040
 20
105.295560
 30
0.0
  0
LWPOLYLINE
  5
1a8
100
AcDbEntity
  8
Layer_1
 62
7
100
AcDbPolyline
 90
2
 70
0
 10
43.846898
 20
55.052390
 30
0.0
 10
44.237938
 20
54.935600
 30
0.0
  0
LWPOLYLINE
  5
1a9
100
AcDbEntity
  8
Layer_1
 62
7
100
AcDbPolyline
 90
2
 70
0
 10
85.297210
 20
103.096290
 30
0.0
 10
85.016960
 20
103.392950
 30
0.0
  0
LWPOLYLINE
  5
1aa
100
AcDbEntity
  8
Layer_1
 62
7
100
AcDbPolyline
 90
2
 70
0
 10
42.043758
 20
53.348940
 30
0.0
 10
42.055358
 20
53.756880
 30
0.0
  0
LWPOLYLINE
  5
1ab
100
AcDbEntity
  8
Layer_1
 62
7
100
AcDbPolyline
 90
2
 70
0
 10
59.531110
 20
105.521730
 30
0.0
 10
59.811370
 20
105.225070
 30
0.0
  0
LWPOLYLINE
  5
1ac
100
AcDbEntity
  8
Layer_1
 62
7
100
AcDbPolyline
 90
2
 70
0
 10
87.827290
 20
104.061000
 30
0.0
 10
87.710500
 20
103.669950
 30
0.0
  0
LWPOLYLINE
  5
1ad
100
AcDbEntity
  8
Layer_1
 62
7
100
AcDbPolyline
 90
2
 70
0
 10
43.438948
 20
55.063980
 30
0.0
 10
43.846898
 20
55.052380
 30
0.0
  0
LWPOLYLINE
  5
1ae
100
AcDbEntity
  8
Layer_1
 62
7
100
AcDbPolyline
 90
2
 70
0
 10
44.585428
 20
54.721590
 30
0.0
 10
44.865688
 20
54.424920
 30
0.0
  0
LWPOLYLINE
  5
1af
100
AcDbEntity
  8
Layer_1
 62
7
100
AcDbPolyline
 90
2
 70
0
 10
42.138138
 20
52.951890
 30
0.0
 10
42.043738
 20
53.348940
 30
0.0
  0
LWPOLYLINE
  5
1b0
100
AcDbEntity
  8
Layer_1
 62
7
100
AcDbPolyline
 90
2
 70
0
 10
42.172138
 20
54.147920
 30
0.0
 10
42.386158
 20
54.495410
 30
0.0
  0
LWPOLYLINE
  5
1b1
100
AcDbEntity
  8
Layer_1
 62
7
100
AcDbPolyline
 90
2
 70
0
 10
45.059870
 20
54.565990
 30
0.0
 10
45.154270
 20
54.168940
 30
0.0
  0
LWPOLYLINE
  5
1b2
100
AcDbEntity
  8
Layer_1
 62
7
100
AcDbPolyline
 90
2
 70
0
 10
44.237938
 20
54.935600
 30
0.0
 10
44.585428
 20
54.721590
 30
0.0
  0
LWPOLYLINE
  5
1b3
100
AcDbEntity
  8
Layer_1
 62
7
100
AcDbPolyline
 90
2
 70
0
 10
42.386158
 20
54.495410
 30
0.0
 10
42.682818
 20
54.775670
 30
0.0
  0
LWPOLYLINE
  5
1b4
100
AcDbEntity
  8
Layer_1
 62
7
100
AcDbPolyline
 90
2
 70
0
 10
86.922820
 20
105.735750
 30
0.0
 10
87.270310
 20
105.521730
 30
0.0
  0
LWPOLYLINE
  5
1b5
100
AcDbEntity
  8
Layer_1
 62
7
100
AcDbPolyline
 90
2
 70
0
 10
86.531780
 20
105.852540
 30
0.0
 10
86.922820
 20
105.735750
 30
0.0
  0
LWPOLYLINE
  5
1b6
100
AcDbEntity
  8
Layer_1
 62
7
100
AcDbPolyline
 90
2
 70
0
 10
42.959818
 20
52.082130
 30
0.0
 10
42.612328
 20
52.296140
 30
0.0
  0
LWPOLYLINE
  5
1b7
100
AcDbEntity
  8
Layer_1
 62
7
100
AcDbPolyline
 90
2
 70
0
 10
44.514938
 20
52.242050
 30
0.0
 10
44.155848
 20
52.048120
 30
0.0
  0
LWPOLYLINE
  5
1b8
100
AcDbEntity
  8
Layer_1
 62
7
100
AcDbPolyline
 90
2
 70
0
 10
44.865940
 20
54.925070
 30
0.0
 10
45.059870
 20
54.565990
 30
0.0
  0
LWPOLYLINE
  5
1b9
100
AcDbEntity
  8
Layer_1
 62
7
100
AcDbPolyline
 90
2
 70
0
 10
42.612328
 20
52.296140
 30
0.0
 10
42.332068
 20
52.592800
 30
0.0
  0
LWPOLYLINE
  5
1ba
100
AcDbEntity
  8
Layer_1
 62
7
100
AcDbPolyline
 90
2
 70
0
 10
57.987580
 20
105.769750
 30
0.0
 10
58.384630
 20
105.864150
 30
0.0
  0
LWPOLYLINE
  5
1bb
100
AcDbEntity
  8
Layer_1
 62
7
100
AcDbPolyline
 90
2
 70
0
 10
87.270310
 20
105.521730
 30
0.0
 10
87.550570
 20
105.225070
 30
0.0
  0
LWPOLYLINE
  5
1bc
100
AcDbEntity
  8
Layer_1
 62
7
100
AcDbPolyline
 90
2
 70
0
 10
58.704480
 20
102.753890
 30
0.0
 10
58.296540
 20
102.765490
 30
0.0
  0
LWPOLYLINE
  5
1bd
100
AcDbEntity
  8
Layer_1
 62
7
100
AcDbPolyline
 90
2
 70
0
 10
43.758808
 20
51.953740
 30
0.0
 10
43.350858
 20
51.965340
 30
0.0
  0
LWPOLYLINE
  5
1be
100
AcDbEntity
  8
Layer_1
 62
7
100
AcDbPolyline
 90
2
 70
0
 10
84.740240
 20
104.557030
 30
0.0
 10
84.857030
 20
104.948070
 30
0.0
  0
LWPOLYLINE
  5
1bf
100
AcDbEntity
  8
Layer_1
 62
7
100
AcDbPolyline
 90
3
 70
0
 10
59.460620
 20
103.042200
 30
0.0
 10
59.101530
 20
102.848270
 30
0.0
 10
58.704480
 20
102.753870
 30
0.0
  0
LWPOLYLINE
  5
1c0
100
AcDbEntity
  8
Layer_1
 62
7
100
AcDbPolyline
 90
2
 70
0
 10
85.071040
 20
105.295560
 30
0.0
 10
85.367700
 20
105.575820
 30
0.0
  0
LWPOLYLINE
  5
1c1
100
AcDbEntity
  8
Layer_1
 62
7
100
AcDbPolyline
 90
2
 70
0
 10
57.277740
 20
103.392950
 30
0.0
 10
57.083820
 20
103.752040
 30
0.0
  0
LWPOLYLINE
  5
1c2
100
AcDbEntity
  8
Layer_1
 62
7
100
AcDbPolyline
 90
2
 70
0
 10
43.350858
 20
51.965340
 30
0.0
 10
42.959818
 20
52.082130
 30
0.0
  0
LWPOLYLINE
  5
1c3
100
AcDbEntity
  8
Layer_1
 62
7
100
AcDbPolyline
 90
2
 70
0
 10
57.558000
 20
103.096290
 30
0.0
 10
57.277740
 20
103.392950
 30
0.0
  0
LWPOLYLINE
  5
1c4
100
AcDbEntity
  8
Layer_1
 62
7
100
AcDbPolyline
 90
2
 70
0
 10
45.025608
 20
52.869800
 30
0.0
 10
44.811598
 20
52.522310
 30
0.0
  0
LWPOLYLINE
  5
1c5
100
AcDbEntity
  8
Layer_1
 62
7
100
AcDbPolyline
 90
3
 70
0
 10
57.331830
 20
105.295560
 30
0.0
 10
57.628490
 20
105.575820
 30
0.0
 10
57.987580
 20
105.769750
 30
0.0
  0
LWPOLYLINE
  5
1c6
100
AcDbEntity
  8
Layer_1
 62
7
100
AcDbPolyline
 90
2
 70
0
 10
60.088080
 20
104.061000
 30
0.0
 10
59.971290
 20
103.669950
 30
0.0
  0
LWPOLYLINE
  5
1c7
100
AcDbEntity
  8
Layer_1
 62
7
100
AcDbPolyline
 90
3
 70
0
 10
87.199830
 20
103.042200
 30
0.0
 10
87.496480
 20
103.322460
 30
0.0
 10
87.710500
 20
103.669950
 30
0.0
  0
LWPOLYLINE
  5
1c8
100
AcDbEntity
  8
Layer_1
 62
7
100
AcDbPolyline
 90
3
 70
0
 10
57.558000
 20
103.096290
 30
0.0
 10
57.905500
 20
102.882280
 30
0.0
 10
58.296540
 20
102.765490
 30
0.0
  0
LWPOLYLINE
  5
1c9
100
AcDbEntity
  8
Layer_1
 62
7
100
AcDbPolyline
 90
2
 70
0
 10
59.757280
 20
103.322460
 30
0.0
 10
59.971290
 20
103.669950
 30
0.0
  0
LWPOLYLINE
  5
1ca
100
AcDbEntity
  8
Layer_1
 62
7
100
AcDbPolyline
 90
4
 70
0
 10
60.088080
 20
104.061000
 30
0.0
 10
60.099680
 20
104.468940
 30
0.0
 10
60.005270
 20
104.865980
 30
0.0
 10
59.811370
 20
105.225070
 30
0.0
  0
LWPOLYLINE
  5
1cb
100
AcDbEntity
  8
Layer_1
 62
7
100
AcDbPolyline
 90
2
 70
0
 10
59.531110
 20
105.521730
 30
0.0
 10
59.183620
 20
105.735750
 30
0.0
  0
LWPOLYLINE
  5
1cc
100
AcDbEntity
  8
Layer_1
 62
7
100
AcDbPolyline
 90
2
 70
0
 10
57.331830
 20
105.295560
 30
0.0
 10
57.117820
 20
104.948070
 30
0.0
  0
LWPOLYLINE
  5
1cd
100
AcDbEntity
  8
Layer_1
 62
7
100
AcDbPolyline
 90
2
 70
0
 10
57.001030
 20
104.557030
 30
0.0
 10
56.989430
 20
104.149090
 30
0.0
  0
LWPOLYLINE
  5
1ce
100
AcDbEntity
  8
Layer_1
 62
7
100
AcDbPolyline
 90
5
 70
0
 10
85.644710
 20
102.882280
 30
0.0
 10
86.035750
 20
102.765490
 30
0.0
 10
86.443690
 20
102.753890
 30
0.0
 10
86.840740
 20
102.848290
 30
0.0
 10
87.199830
 20
103.042200
 30
0.0
  0
LWPOLYLINE
  5
1cf
100
AcDbEntity
  8
Layer_1
 62
7
100
AcDbPolyline
 90
3
 70
0
 10
43.438948
 20
55.063980
 30
0.0
 10
43.041908
 20
54.969580
 30
0.0
 10
42.682818
 20
54.775670
 30
0.0
  0
LWPOLYLINE
  5
1d0
100
AcDbEntity
  8
Layer_1
 62
7
100
AcDbPolyline
 90
2
 70
0
 10
42.172138
 20
54.147920
 30
0.0
 10
42.055348
 20
53.756880
 30
0.0
  0
LWPOLYLINE
  5
1d1
100
AcDbEntity
  8
Layer_1
 62
7
100
AcDbPolyline
 90
2
 70
0
 10
42.138138
 20
52.951890
 30
0.0
 10
42.332068
 20
52.592800
 30
0.0
  0
LWPOLYLINE
  5
1d2
100
AcDbEntity
  8
Layer_1
 62
7
100
AcDbPolyline
 90
2
 70
0
 10
43.758808
 20
51.953740
 30
0.0
 10
44.155848
 20
52.048140
 30
0.0
  0
LWPOLYLINE
  5
1d3
100
AcDbEntity
  8
Layer_1
 62
7
100
AcDbPolyline
 90
2
 70
0
 10
44.514938
 20
52.242050
 30
0.0
 10
44.811598
 20
52.522310
 30
0.0
  0
LWPOLYLINE
  5
1d4
100
AcDbEntity
  8
Layer_1
 62
7
100
AcDbPolyline
 90
2
 70
0
 10
45.025860
 20
53.369950
 30
0.0
 10
45.142650
 20
53.761000
 30
0.0
  0
LWPOLYLINE
  5
1d5
100
AcDbEntity
  8
Layer_1
 62
7
100
AcDbPolyline
 90
2
 70
0
 10
45.142650
 20
51.761180
 30
0.0
 10
45.154250
 20
52.169120
 30
0.0
  0
LWPOLYLINE
  5
1d6
100
AcDbEntity
  8
Layer_1
 62
7
100
AcDbPolyline
 90
4
 70
0
 10
87.827290
 20
104.061000
 30
0.0
 10
87.838890
 20
104.468940
 30
0.0
 10
87.744480
 20
104.865980
 30
0.0
 10
87.550570
 20
105.225070
 30
0.0
  0
LWPOLYLINE
  5
1d7
100
AcDbEntity
  8
Layer_1
 62
7
100
AcDbPolyline
 90
2
 70
0
 10
86.123840
 20
105.864130
 30
0.0
 10
85.726790
 20
105.769730
 30
0.0
  0
LWPOLYLINE
  5
1d8
100
AcDbEntity
  8
Layer_1
 62
7
100
AcDbPolyline
 90
4
 70
0
 10
84.740240
 20
104.557030
 30
0.0
 10
84.728640
 20
104.149090
 30
0.0
 10
84.823040
 20
103.752040
 30
0.0
 10
85.016960
 20
103.392950
 30
0.0
  0
SPLINE
  5
1d9
100
AcDbEntity
  8
Layer_1
 62
7
100
AcDbSpline
 70
8
 71
3
 72
8
 73
4
 74
0
 40
0
 40
0
 40
0
 40
0
 40
1
 40
1
 40
1
 40
1
 10
186.651650
 20
228.710003
 30
0.0
 10
187.175930
 20
228.710003
 30
0.0
 10
187.598000
 20
228.287923
 30
0.0
 10
187.598000
 20
227.763643
 30
0.0
  0
LWPOLYLINE
  5
1da
100
AcDbEntity
  8
Layer_1
 62
7
100
AcDbPolyline
 90
2
 70
0
 10
38.544360
 20
228.710003
 30
0.0
 10
186.651650
 20
228.710003
 30
0.0
  0
SPLINE
  5
1db
100
AcDbEntity
  8
Layer_1
 62
7
100
AcDbSpline
 70
8
 71
3
 72
8
 73
4
 74
0
 40
0
 40
0
 40
0
 40
0
 40
1
 40
1
 40
1
 40
1
 10
187.598000
 20
129.656353
 30
0.0
 10
187.598000
 20
129.132073
 30
0.0
 10
187.175930
 20
128.710003
 30
0.0
 10
186.651650
 20
128.710003
 30
0.0
  0
LWPOLYLINE
  5
1dc
100
AcDbEntity
  8
Layer_1
 62
7
100
AcDbPolyline
 90
2
 70
0
 10
187.598000
 20
227.763643
 30
0.0
 10
187.598000
 20
129.656353
 30
0.0
  0
SPLINE
  5
1dd
100
AcDbEntity
  8
Layer_1
 62
7
100
AcDbSpline
 70
8
 71
3
 72
8
 73
4
 74
0
 40
0
 40
0
 40
0
 40
0
 40
1
 40
1
 40
1
 40
1
 10
38.544360
 20
128.710003
 30
0.0
 10
38.020080
 20
128.710003
 30
0.0
 10
37.598000
 20
129.132073
 30
0.0
 10
37.598000
 20
129.656353
 30
0.0
  0
LWPOLYLINE
  5
1de
100
AcDbEntity
  8
Layer_1
 62
7
100
AcDbPolyline
 90
2
 70
0
 10
186.651650
 20
128.710003
 30
0.0
 10
38.544360
 20
128.710003
 30
0.0
  0
SPLINE
  5
1df
100
AcDbEntity
  8
Layer_1
 62
7
100
AcDbSpline
 70
8
 71
3
 72
8
 73
4
 74
0
 40
0
 40
0
 40
0
 40
0
 40
1
 40
1
 40
1
 40
1
 10
37.598000
 20
227.763643
 30
0.0
 10
37.598000
 20
228.287923
 30
0.0
 10
38.020080
 20
228.710003
 30
0.0
 10
38.544360
 20
228.710003
 30
0.0
  0
LWPOLYLINE
  5
1e0
100
AcDbEntity
  8
Layer_1
 62
7
100
AcDbPolyline
 90
2
 70
0
 10
37.598000
 20
129.656353
 30
0.0
 10
37.598000
 20
227.763643
 30
0.0
  0
SPLINE
  5
1e1
100
AcDbEntity
  8
Layer_1
 62
7
100
AcDbSpline
 70
8
 71
3
 72
8
 73
4
 74
0
 40
0
 40
0
 40
0
 40
0
 40
1
 40
1
 40
1
 40
1
 10
52.097250
 20
219.316753
 30
0.0
 10
52.097252
 20
218.527300
 30
0.0
 10
51.783645
 20
217.770180
 30
0.0
 10
51.225418
 20
217.211952
 30
0.0
  0
SPLINE
  5
1e2
100
AcDbEntity
  8
Layer_1
 62
7
100
AcDbSpline
 70
8
 71
3
 72
8
 73
4
 74
0
 40
0
 40
0
 40
0
 40
0
 40
1
 40
1
 40
1
 40
1
 10
51.225418
 20
217.211952
 30
0.0
 10
50.667192
 20
216.653723
 30
0.0
 10
49.910073
 20
216.340114
 30
0.0
 10
49.120620
 20
216.340113
 30
0.0
  0
SPLINE
  5
1e3
100
AcDbEntity
  8
Layer_1
 62
7
100
AcDbSpline
 70
8
 71
3
 72
8
 73
4
 74
0
 40
0
 40
0
 40
0
 40
0
 40
1
 40
1
 40
1
 40
1
 10
49.120620
 20
216.340113
 30
0.0
 10
48.331165
 20
216.340111
 30
0.0
 10
47.574044
 20
216.653720
 30
0.0
 10
47.015815
 20
217.211948
 30
0.0
  0
SPLINE
  5
1e4
100
AcDbEntity
  8
Layer_1
 62
7
100
AcDbSpline
 70
8
 71
3
 72
8
 73
4
 74
0
 40
0
 40
0
 40
0
 40
0
 40
1
 40
1
 40
1
 40
1
 10
47.015815
 20
217.211948
 30
0.0
 10
46.457587
 20
217.770177
 30
0.0
 10
46.143978
 20
218.527298
 30
0.0
 10
46.143980
 20
219.316753
 30
0.0
  0
SPLINE
  5
1e5
100
AcDbEntity
  8
Layer_1
 62
7
100
AcDbSpline
 70
8
 71
3
 72
8
 73
4
 74
0
 40
0
 40
0
 40
0
 40
0
 40
1
 40
1
 40
1
 40
1
 10
46.143980
 20
219.316753
 30
0.0
 10
46.143981
 20
220.106206
 30
0.0
 10
46.457590
 20
220.863325
 30
0.0
 10
47.015819
 20
221.421551
 30
0.0
  0
SPLINE
  5
1e6
100
AcDbEntity
  8
Layer_1
 62
7
100
AcDbSpline
 70
8
 71
3
 72
8
 73
4
 74
0
 40
0
 40
0
 40
0
 40
0
 40
1
 40
1
 40
1
 40
1
 10
47.015819
 20
221.421551
 30
0.0
 10
47.574047
 20
221.979778
 30
0.0
 10
48.331167
 20
222.293385
 30
0.0
 10
49.120620
 20
222.293383
 30
0.0
  0
SPLINE
  5
1e7
100
AcDbEntity
  8
Layer_1
 62
7
100
AcDbSpline
 70
8
 71
3
 72
8
 73
4
 74
0
 40
0
 40
0
 40
0
 40
0
 40
1
 40
1
 40
1
 40
1
 10
49.120620
 20
222.293383
 30
0.0
 10
50.764567
 20
222.293382
 30
0.0
 10
52.097249
 20
220.960700
 30
0.0
 10
52.097250
 20
219.316753
 30
0.0
  0
LWPOLYLINE
  5
1e8
100
AcDbEntity
  8
Layer_1
 62
7
100
AcDbPolyline
 90
1
 70
1
 10
38.544360
 20
228.710003
 30
0.0
  0
SPLINE
  5
1e9
100
AcDbEntity
  8
Layer_1
 62
7
100
AcDbSpline
 70
8
 71
3
 72
8
 73
4
 74
0
 40
0
 40
0
 40
0
 40
0
 40
1
 40
1
 40
1
 40
1
 10
181.990250
 20
219.316793
 30
0.0
 10
181.990249
 20
217.672846
 30
0.0
 10
180.657567
 20
216.340164
 30
0.0
 10
179.013620
 20
216.340163
 30
0.0
  0
SPLINE
  5
1ea
100
AcDbEntity
  8
Layer_1
 62
7
100
AcDbSpline
 70
8
 71
3
 72
8
 73
4
 74
0
 40
0
 40
0
 40
0
 40
0
 40
1
 40
1
 40
1
 40
1
 10
179.013620
 20
216.340163
 30
0.0
 10
177.369673
 20
216.340164
 30
0.0
 10
176.036991
 20
217.672846
 30
0.0
 10
176.036990
 20
219.316793
 30
0.0
  0
SPLINE
  5
1eb
100
AcDbEntity
  8
Layer_1
 62
7
100
AcDbSpline
 70
8
 71
3
 72
8
 73
4
 74
0
 40
0
 40
0
 40
0
 40
0
 40
1
 40
1
 40
1
 40
1
 10
176.036990
 20
219.316793
 30
0.0
 10
176.036991
 20
220.960740
 30
0.0
 10
177.369673
 20
222.293422
 30
0.0
 10
179.013620
 20
222.293423
 30
0.0
  0
SPLINE
  5
1ec
100
AcDbEntity
  8
Layer_1
 62
7
100
AcDbSpline
 70
8
 71
3
 72
8
 73
4
 74
0
 40
0
 40
0
 40
0
 40
0
 40
1
 40
1
 40
1
 40
1
 10
179.013620
 20
222.293423
 30
0.0
 10
180.657567
 20
222.293422
 30
0.0
 10
181.990249
 20
220.960740
 30
0.0
 10
181.990250
 20
219.316793
 30
0.0
  0
LWPOLYLINE
  5
1ed
100
AcDbEntity
  8
Layer_1
 62
7
100
AcDbPolyline
 90
1
 70
1
 10
52.097250
 20
219.316753
 30
0.0
  0
SPLINE
  5
1ee
100
AcDbEntity
  8
Layer_1
 62
7
100
AcDbSpline
 70
8
 71
3
 72
8
 73
4
 74
0
 40
0
 40
0
 40
0
 40
0
 40
1
 40
1
 40
1
 40
1
 10
52.097340
 20
139.670433
 30
0.0
 10
52.097339
 20
138.026486
 30
0.0
 10
50.764657
 20
136.693804
 30
0.0
 10
49.120710
 20
136.693803
 30
0.0
  0
SPLINE
  5
1ef
100
AcDbEntity
  8
Layer_1
 62
7
100
AcDbSpline
 70
8
 71
3
 72
8
 73
4
 74
0
 40
0
 40
0
 40
0
 40
0
 40
1
 40
1
 40
1
 40
1
 10
49.120710
 20
136.693803
 30
0.0
 10
47.476763
 20
136.693804
 30
0.0
 10
46.144081
 20
138.026486
 30
0.0
 10
46.144080
 20
139.670433
 30
0.0
  0
SPLINE
  5
1f0
100
AcDbEntity
  8
Layer_1
 62
7
100
AcDbSpline
 70
8
 71
3
 72
8
 73
4
 74
0
 40
0
 40
0
 40
0
 40
0
 40
1
 40
1
 40
1
 40
1
 10
46.144080
 20
139.670433
 30
0.0
 10
46.144081
 20
141.314380
 30
0.0
 10
47.476763
 20
142.647062
 30
0.0
 10
49.120710
 20
142.647063
 30
0.0
  0
SPLINE
  5
1f1
100
AcDbEntity
  8
Layer_1
 62
7
100
AcDbSpline
 70
8
 71
3
 72
8
 73
4
 74
0
 40
0
 40
0
 40
0
 40
0
 40
1
 40
1
 40
1
 40
1
 10
49.120710
 20
142.647063
 30
0.0
 10
50.764657
 20
142.647062
 30
0.0
 10
52.097339
 20
141.314380
 30
0.0
 10
52.097340
 20
139.670433
 30
0.0
  0
LWPOLYLINE
  5
1f2
100
AcDbEntity
  8
Layer_1
 62
7
100
AcDbPolyline
 90
1
 70
1
 10
181.990250
 20
219.316793
 30
0.0
  0
SPLINE
  5
1f3
100
AcDbEntity
  8
Layer_1
 62
7
100
AcDbSpline
 70
8
 71
3
 72
8
 73
4
 74
0
 40
0
 40
0
 40
0
 40
0
 40
1
 40
1
 40
1
 40
1
 10
181.990350
 20
140.300803
 30
0.0
 10
181.990349
 20
139.511350
 30
0.0
 10
181.676740
 20
138.754231
 30
0.0
 10
181.118511
 20
138.196005
 30
0.0
  0
SPLINE
  5
1f4
100
AcDbEntity
  8
Layer_1
 62
7
100
AcDbSpline
 70
8
 71
3
 72
8
 73
4
 74
0
 40
0
 40
0
 40
0
 40
0
 40
1
 40
1
 40
1
 40
1
 10
181.118511
 20
138.196005
 30
0.0
 10
180.560283
 20
137.637778
 30
0.0
 10
179.803163
 20
137.324171
 30
0.0
 10
179.013710
 20
137.324173
 30
0.0
  0
SPLINE
  5
1f5
100
AcDbEntity
  8
Layer_1
 62
7
100
AcDbSpline
 70
8
 71
3
 72
8
 73
4
 74
0
 40
0
 40
0
 40
0
 40
0
 40
1
 40
1
 40
1
 40
1
 10
179.013710
 20
137.324173
 30
0.0
 10
177.369763
 20
137.324174
 30
0.0
 10
176.037081
 20
138.656856
 30
0.0
 10
176.037080
 20
140.300803
 30
0.0
  0
SPLINE
  5
1f6
100
AcDbEntity
  8
Layer_1
 62
7
100
AcDbSpline
 70
8
 71
3
 72
8
 73
4
 74
0
 40
0
 40
0
 40
0
 40
0
 40
1
 40
1
 40
1
 40
1
 10
176.037080
 20
140.300803
 30
0.0
 10
176.037081
 20
141.944750
 30
0.0
 10
177.369763
 20
143.277432
 30
0.0
 10
179.013710
 20
143.277433
 30
0.0
  0
SPLINE
  5
1f7
100
AcDbEntity
  8
Layer_1
 62
7
100
AcDbSpline
 70
8
 71
3
 72
8
 73
4
 74
0
 40
0
 40
0
 40
0
 40
0
 40
1
 40
1
 40
1
 40
1
 10
179.013710
 20
143.277433
 30
0.0
 10
179.803163
 20
143.277435
 30
0.0
 10
180.560283
 20
142.963828
 30
0.0
 10
181.118511
 20
142.405601
 30
0.0
  0
SPLINE
  5
1f8
100
AcDbEntity
  8
Layer_1
 62
7
100
AcDbSpline
 70
8
 71
3
 72
8
 73
4
 74
0
 40
0
 40
0
 40
0
 40
0
 40
1
 40
1
 40
1
 40
1
 10
181.118511
 20
142.405601
 30
0.0
 10
181.676740
 20
141.847375
 30
0.0
 10
181.990349
 20
141.090256
 30
0.0
 10
181.990350
 20
140.300803
 30
0.0
  0
LWPOLYLINE
  5
1f9
100
AcDbEntity
  8
Layer_1
 62
7
100
AcDbPolyline
 90
1
 70
1
 10
52.097340
 20
139.670433
 30
0.0
  0
LWPOLYLINE
  5
1fa
100
AcDbEntity
  8
Layer_1
 62
7
100
AcDbPolyline
 90
1
 70
1
 10
181.990350
 20
140.300803
 30
0.0
  0
SPLINE
  5
1fb
100
AcDbEntity
  8
Layer_1
 62
7
100
AcDbSpline
 70
8
 71
3
 72
8
 73
4
 74
0
 40
0
 40
0
 40
0
 40
0
 40
1
 40
1
 40
1
 40
1
 10
185.772310
 20
126.317004
 30
0.0
 10
186.296590
 20
126.317004
 30
0.0
 10
186.718660
 20
125.894924
 30
0.0
 10
186.718660
 20
125.370644
 30
0.0
  0
LWPOLYLINE
  5
1fc
100
AcDbEntity
  8
Layer_1
 62
7
100
AcDbPolyline
 90
2
 70
0
 10
37.665020
 20
126.317004
 30
0.0
 10
185.772310
 20
126.317004
 30
0.0
  0
SPLINE
  5
1fd
100
AcDbEntity
  8
Layer_1
 62
7
100
AcDbSpline
 70
8
 71
3
 72
8
 73
4
 74
0
 40
0
 40
0
 40
0
 40
0
 40
1
 40
1
 40
1
 40
1
 10
186.718660
 20
27.263354
 30
0.0
 10
186.718660
 20
26.739074
 30
0.0
 10
186.296590
 20
26.317004
 30
0.0
 10
185.772310
 20
26.317004
 30
0.0
  0
LWPOLYLINE
  5
1fe
100
AcDbEntity
  8
Layer_1
 62
7
100
AcDbPolyline
 90
2
 70
0
 10
186.718660
 20
125.370644
 30
0.0
 10
186.718660
 20
27.263354
 30
0.0
  0
SPLINE
  5
1ff
100
AcDbEntity
  8
Layer_1
 62
7
100
AcDbSpline
 70
8
 71
3
 72
8
 73
4
 74
0
 40
0
 40
0
 40
0
 40
0
 40
1
 40
1
 40
1
 40
1
 10
37.665020
 20
26.317004
 30
0.0
 10
37.140740
 20
26.317004
 30
0.0
 10
36.718660
 20
26.739074
 30
0.0
 10
36.718660
 20
27.263354
 30
0.0
  0
LWPOLYLINE
  5
200
100
AcDbEntity
  8
Layer_1
 62
7
100
AcDbPolyline
 90
2
 70
0
 10
185.772310
 20
26.317004
 30
0.0
 10
37.665020
 20
26.317004
 30
0.0
  0
SPLINE
  5
201
100
AcDbEntity
  8
Layer_1
 62
7
100
AcDbSpline
 70
8
 71
3
 72
8
 73
4
 74
0
 40
0
 40
0
 40
0
 40
0
 40
1
 40
1
 40
1
 40
1
 10
36.718660
 20
125.370644
 30
0.0
 10
36.718660
 20
125.894924
 30
0.0
 10
37.140740
 20
126.317004
 30
0.0
 10
37.665020
 20
126.317004
 30
0.0
  0
LWPOLYLINE
  5
202
100
AcDbEntity
  8
Layer_1
 62
7
100
AcDbPolyline
 90
2
 70
0
 10
36.718660
 20
27.263354
 30
0.0
 10
36.718660
 20
125.370644
 30
0.0
  0
SPLINE
  5
203
100
AcDbEntity
  8
Layer_1
 62
7
100
AcDbSpline
 70
8
 71
3
 72
8
 73
4
 74
0
 40
0
 40
0
 40
0
 40
0
 40
1
 40
1
 40
1
 40
1
 10
51.217910
 20
116.923754
 30
0.0
 10
51.217912
 20
116.134301
 30
0.0
 10
50.904305
 20
115.377181
 30
0.0
 10
50.346078
 20
114.818953
 30
0.0
  0
SPLINE
  5
204
100
AcDbEntity
  8
Layer_1
 62
7
100
AcDbSpline
 70
8
 71
3
 72
8
 73
4
 74
0
 40
0
 40
0
 40
0
 40
0
 40
1
 40
1
 40
1
 40
1
 10
50.346078
 20
114.818953
 30
0.0
 10
49.787852
 20
114.260724
 30
0.0
 10
49.030733
 20
113.947115
 30
0.0
 10
48.241280
 20
113.947114
 30
0.0
  0
SPLINE
  5
205
100
AcDbEntity
  8
Layer_1
 62
7
100
AcDbSpline
 70
8
 71
3
 72
8
 73
4
 74
0
 40
0
 40
0
 40
0
 40
0
 40
1
 40
1
 40
1
 40
1
 10
48.241280
 20
113.947114
 30
0.0
 10
47.451825
 20
113.947112
 30
0.0
 10
46.694704
 20
114.260721
 30
0.0
 10
46.136475
 20
114.818949
 30
0.0
  0
SPLINE
  5
206
100
AcDbEntity
  8
Layer_1
 62
7
100
AcDbSpline
 70
8
 71
3
 72
8
 73
4
 74
0
 40
0
 40
0
 40
0
 40
0
 40
1
 40
1
 40
1
 40
1
 10
46.136475
 20
114.818949
 30
0.0
 10
45.578247
 20
115.377178
 30
0.0
 10
45.264638
 20
116.134299
 30
0.0
 10
45.264640
 20
116.923754
 30
0.0
  0
SPLINE
  5
207
100
AcDbEntity
  8
Layer_1
 62
7
100
AcDbSpline
 70
8
 71
3
 72
8
 73
4
 74
0
 40
0
 40
0
 40
0
 40
0
 40
1
 40
1
 40
1
 40
1
 10
45.264640
 20
116.923754
 30
0.0
 10
45.264641
 20
117.713207
 30
0.0
 10
45.578250
 20
118.470326
 30
0.0
 10
46.136479
 20
119.028552
 30
0.0
  0
SPLINE
  5
208
100
AcDbEntity
  8
Layer_1
 62
7
100
AcDbSpline
 70
8
 71
3
 72
8
 73
4
 74
0
 40
0
 40
0
 40
0
 40
0
 40
1
 40
1
 40
1
 40
1
 10
46.136479
 20
119.028552
 30
0.0
 10
46.694707
 20
119.586779
 30
0.0
 10
47.451827
 20
119.900386
 30
0.0
 10
48.241280
 20
119.900384
 30
0.0
  0
SPLINE
  5
209
100
AcDbEntity
  8
Layer_1
 62
7
100
AcDbSpline
 70
8
 71
3
 72
8
 73
4
 74
0
 40
0
 40
0
 40
0
 40
0
 40
1
 40
1
 40
1
 40
1
 10
48.241280
 20
119.900384
 30
0.0
 10
49.885227
 20
119.900383
 30
0.0
 10
51.217909
 20
118.567701
 30
0.0
 10
51.217910
 20
116.923754
 30
0.0
  0
LWPOLYLINE
  5
20a
100
AcDbEntity
  8
Layer_1
 62
7
100
AcDbPolyline
 90
1
 70
1
 10
37.665020
 20
126.317004
 30
0.0
  0
SPLINE
  5
20b
100
AcDbEntity
  8
Layer_1
 62
7
100
AcDbSpline
 70
8
 71
3
 72
8
 73
4
 74
0
 40
0
 40
0
 40
0
 40
0
 40
1
 40
1
 40
1
 40
1
 10
181.110910
 20
116.923794
 30
0.0
 10
181.110909
 20
115.279847
 30
0.0
 10
179.778227
 20
113.947165
 30
0.0
 10
178.134280
 20
113.947164
 30
0.0
  0
SPLINE
  5
20c
100
AcDbEntity
  8
Layer_1
 62
7
100
AcDbSpline
 70
8
 71
3
 72
8
 73
4
 74
0
 40
0
 40
0
 40
0
 40
0
 40
1
 40
1
 40
1
 40
1
 10
178.134280
 20
113.947164
 30
0.0
 10
176.490333
 20
113.947165
 30
0.0
 10
175.157651
 20
115.279847
 30
0.0
 10
175.157650
 20
116.923794
 30
0.0
  0
SPLINE
  5
20d
100
AcDbEntity
  8
Layer_1
 62
7
100
AcDbSpline
 70
8
 71
3
 72
8
 73
4
 74
0
 40
0
 40
0
 40
0
 40
0
 40
1
 40
1
 40
1
 40
1
 10
175.157650
 20
116.923794
 30
0.0
 10
175.157651
 20
118.567741
 30
0.0
 10
176.490333
 20
119.900423
 30
0.0
 10
178.134280
 20
119.900424
 30
0.0
  0
SPLINE
  5
20e
100
AcDbEntity
  8
Layer_1
 62
7
100
AcDbSpline
 70
8
 71
3
 72
8
 73
4
 74
0
 40
0
 40
0
 40
0
 40
0
 40
1
 40
1
 40
1
 40
1
 10
178.134280
 20
119.900424
 30
0.0
 10
179.778227
 20
119.900423
 30
0.0
 10
181.110909
 20
118.567741
 30
0.0
 10
181.110910
 20
116.923794
 30
0.0
  0
LWPOLYLINE
  5
20f
100
AcDbEntity
  8
Layer_1
 62
7
100
AcDbPolyline
 90
1
 70
1
 10
51.217910
 20
116.923754
 30
0.0
  0
SPLINE
  5
210
100
AcDbEntity
  8
Layer_1
 62
7
100
AcDbSpline
 70
8
 71
3
 72
8
 73
4
 74
0
 40
0
 40
0
 40
0
 40
0
 40
1
 40
1
 40
1
 40
1
 10
51.218000
 20
37.277434
 30
0.0
 10
51.217999
 20
35.633487
 30
0.0
 10
49.885317
 20
34.300805
 30
0.0
 10
48.241370
 20
34.300804
 30
0.0
  0
SPLINE
  5
211
100
AcDbEntity
  8
Layer_1
 62
7
100
AcDbSpline
 70
8
 71
3
 72
8
 73
4
 74
0
 40
0
 40
0
 40
0
 40
0
 40
1
 40
1
 40
1
 40
1
 10
48.241370
 20
34.300804
 30
0.0
 10
46.597423
 20
34.300805
 30
0.0
 10
45.264741
 20
35.633487
 30
0.0
 10
45.264740
 20
37.277434
 30
0.0
  0
SPLINE
  5
212
100
AcDbEntity
  8
Layer_1
 62
7
100
AcDbSpline
 70
8
 71
3
 72
8
 73
4
 74
0
 40
0
 40
0
 40
0
 40
0
 40
1
 40
1
 40
1
 40
1
 10
45.264740
 20
37.277434
 30
0.0
 10
45.264741
 20
38.921381
 30
0.0
 10
46.597423
 20
40.254063
 30
0.0
 10
48.241370
 20
40.254064
 30
0.0
  0
SPLINE
  5
213
100
AcDbEntity
  8
Layer_1
 62
7
100
AcDbSpline
 70
8
 71
3
 72
8
 73
4
 74
0
 40
0
 40
0
 40
0
 40
0
 40
1
 40
1
 40
1
 40
1
 10
48.241370
 20
40.254064
 30
0.0
 10
49.885317
 20
40.254063
 30
0.0
 10
51.217999
 20
38.921381
 30
0.0
 10
51.218000
 20
37.277434
 30
0.0
  0
LWPOLYLINE
  5
214
100
AcDbEntity
  8
Layer_1
 62
7
100
AcDbPolyline
 90
1
 70
1
 10
181.110910
 20
116.923794
 30
0.0
  0
SPLINE
  5
215
100
AcDbEntity
  8
Layer_1
 62
7
100
AcDbSpline
 70
8
 71
3
 72
8
 73
4
 74
0
 40
0
 40
0
 40
0
 40
0
 40
1
 40
1
 40
1
 40
1
 10
181.111010
 20
37.907804
 30
0.0
 10
181.111009
 20
37.118351
 30
0.0
 10
180.797400
 20
36.361232
 30
0.0
 10
180.239171
 20
35.803006
 30
0.0
  0
SPLINE
  5
216
100
AcDbEntity
  8
Layer_1
 62
7
100
AcDbSpline
 70
8
 71
3
 72
8
 73
4
 74
0
 40
0
 40
0
 40
0
 40
0
 40
1
 40
1
 40
1
 40
1
 10
180.239171
 20
35.803006
 30
0.0
 10
179.680943
 20
35.244779
 30
0.0
 10
178.923823
 20
34.931172
 30
0.0
 10
178.134370
 20
34.931174
 30
0.0
  0
SPLINE
  5
217
100
AcDbEntity
  8
Layer_1
 62
7
100
AcDbSpline
 70
8
 71
3
 72
8
 73
4
 74
0
 40
0
 40
0
 40
0
 40
0
 40
1
 40
1
 40
1
 40
1
 10
178.134370
 20
34.931174
 30
0.0
 10
176.490423
 20
34.931175
 30
0.0
 10
175.157741
 20
36.263857
 30
0.0
 10
175.157740
 20
37.907804
 30
0.0
  0
SPLINE
  5
218
100
AcDbEntity
  8
Layer_1
 62
7
100
AcDbSpline
 70
8
 71
3
 72
8
 73
4
 74
0
 40
0
 40
0
 40
0
 40
0
 40
1
 40
1
 40
1
 40
1
 10
175.157740
 20
37.907804
 30
0.0
 10
175.157741
 20
39.551751
 30
0.0
 10
176.490423
 20
40.884433
 30
0.0
 10
178.134370
 20
40.884434
 30
0.0
  0
SPLINE
  5
219
100
AcDbEntity
  8
Layer_1
 62
7
100
AcDbSpline
 70
8
 71
3
 72
8
 73
4
 74
0
 40
0
 40
0
 40
0
 40
0
 40
1
 40
1
 40
1
 40
1
 10
178.134370
 20
40.884434
 30
0.0
 10
178.923823
 20
40.884436
 30
0.0
 10
179.680943
 20
40.570829
 30
0.0
 10
180.239171
 20
40.012602
 30
0.0
  0
SPLINE
  5
21a
100
AcDbEntity
  8
Layer_1
 62
7
100
AcDbSpline
 70
8
 71
3
 72
8
 73
4
 74
0
 40
0
 40
0
 40
0
 40
0
 40
1
 40
1
 40
1
 40
1
 10
180.239171
 20
40.012602
 30
0.0
 10
180.797400
 20
39.454376
 30
0.0
 10
181.111009
 20
38.697257
 30
0.0
 10
181.111010
 20
37.907804
 30
0.0
  0
LWPOLYLINE
  5
21b
100
AcDbEntity
  8
Layer_1
 62
7
100
AcDbPolyline
 90
1
 70
1
 10
51.218000
 20
37.277434
 30
0.0
  0
SPLINE
  5
21c
100
AcDbEntity
  8
Layer_1
 62
7
100
AcDbSpline
 70
8
 71
3
 72
8
 73
4
 74
0
 40
0
 40
0
 40
0
 40
0
 40
1
 40
1
 40
1
 40
1
 10
152.950010
 20
85.500000
 30
0.0
 10
152.950010
 20
85.115433
 30
0.0
 10
152.797242
 20
84.746618
 30
0.0
 10
152.525312
 20
84.474688
 30
0.0
  0
SPLINE
  5
21d
100
AcDbEntity
  8
Layer_1
 62
7
100
AcDbSpline
 70
8
 71
3
 72
8
 73
4
 74
0
 40
0
 40
0
 40
0
 40
0
 40
1
 40
1
 40
1
 40
1
 10
152.525312
 20
84.474688
 30
0.0
 10
152.253382
 20
84.202758
 30
0.0
 10
151.884567
 20
84.049990
 30
0.0
 10
151.500000
 20
84.049990
 30
0.0
  0
SPLINE
  5
21e
100
AcDbEntity
  8
Layer_1
 62
7
100
AcDbSpline
 70
8
 71
3
 72
8
 73
4
 74
0
 40
0
 40
0
 40
0
 40
0
 40
1
 40
1
 40
1
 40
1
 10
151.500000
 20
84.049990
 30
0.0
 10
151.115433
 20
84.049990
 30
0.0
 10
150.746618
 20
84.202758
 30
0.0
 10
150.474688
 20
84.474688
 30
0.0
  0
SPLINE
  5
21f
100
AcDbEntity
  8
Layer_1
 62
7
100
AcDbSpline
 70
8
 71
3
 72
8
 73
4
 74
0
 40
0
 40
0
 40
0
 40
0
 40
1
 40
1
 40
1
 40
1
 10
150.474688
 20
84.474688
 30
0.0
 10
150.202758
 20
84.746618
 30
0.0
 10
150.049990
 20
85.115433
 30
0.0
 10
150.049990
 20
85.500000
 30
0.0
  0
SPLINE
  5
220
100
AcDbEntity
  8
Layer_1
 62
7
100
AcDbSpline
 70
8
 71
3
 72
8
 73
4
 74
0
 40
0
 40
0
 40
0
 40
0
 40
1
 40
1
 40
1
 40
1
 10
150.049990
 20
85.500000
 30
0.0
 10
150.049990
 20
85.884567
 30
0.0
 10
150.202758
 20
86.253382
 30
0.0
 10
150.474688
 20
86.525312
 30
0.0
  0
SPLINE
  5
221
100
AcDbEntity
  8
Layer_1
 62
7
100
AcDbSpline
 70
8
 71
3
 72
8
 73
4
 74
0
 40
0
 40
0
 40
0
 40
0
 40
1
 40
1
 40
1
 40
1
 10
150.474688
 20
86.525312
 30
0.0
 10
150.746618
 20
86.797242
 30
0.0
 10
151.115433
 20
86.950010
 30
0.0
 10
151.500000
 20
86.950010
 30
0.0
  0
SPLINE
  5
222
100
AcDbEntity
  8
Layer_1
 62
7
100
AcDbSpline
 70
8
 71
3
 72
8
 73
4
 74
0
 40
0
 40
0
 40
0
 40
0
 40
1
 40
1
 40
1
 40
1
 10
151.500000
 20
86.950010
 30
0.0
 10
151.884567
 20
86.950010
 30
0.0
 10
152.253382
 20
86.797242
 30
0.0
 10
152.525312
 20
86.525312
 30
0.0
  0
SPLINE
  5
223
100
AcDbEntity
  8
Layer_1
 62
7
100
AcDbSpline
 70
8
 71
3
 72
8
 73
4
 74
0
 40
0
 40
0
 40
0
 40
0
 40
1
 40
1
 40
1
 40
1
 10
152.525312
 20
86.525312
 30
0.0
 10
152.797242
 20
86.253382
 30
0.0
 10
152.950010
 20
85.884567
 30
0.0
 10
152.950010
 20
85.500000
 30
0.0
  0
LWPOLYLINE
  5
224
100
AcDbEntity
  8
Layer_1
 62
7
100
AcDbPolyline
 90
1
 70
1
 10
181.111010
 20
37.907804
 30
0.0
  0
SPLINE
  5
225
100
AcDbEntity
  8
Layer_1
 62
7
100
AcDbSpline
 70
8
 71
3
 72
8
 73
4
 74
0
 40
0
 40
0
 40
0
 40
0
 40
1
 40
1
 40
1
 40
1
 10
179.450010
 20
85.500000
 30
0.0
 10
179.450010
 20
85.115433
 30
0.0
 10
179.297242
 20
84.746618
 30
0.0
 10
179.025312
 20
84.474688
 30
0.0
  0
SPLINE
  5
226
100
AcDbEntity
  8
Layer_1
 62
7
100
AcDbSpline
 70
8
 71
3
 72
8
 73
4
 74
0
 40
0
 40
0
 40
0
 40
0
 40
1
 40
1
 40
1
 40
1
 10
179.025312
 20
84.474688
 30
0.0
 10
178.753382
 20
84.202758
 30
0.0
 10
178.384567
 20
84.049990
 30
0.0
 10
178.000000
 20
84.049990
 30
0.0
  0
SPLINE
  5
227
100
AcDbEntity
  8
Layer_1
 62
7
100
AcDbSpline
 70
8
 71
3
 72
8
 73
4
 74
0
 40
0
 40
0
 40
0
 40
0
 40
1
 40
1
 40
1
 40
1
 10
178.000000
 20
84.049990
 30
0.0
 10
177.615433
 20
84.049990
 30
0.0
 10
177.246618
 20
84.202758
 30
0.0
 10
176.974688
 20
84.474688
 30
0.0
  0
SPLINE
  5
228
100
AcDbEntity
  8
Layer_1
 62
7
100
AcDbSpline
 70
8
 71
3
 72
8
 73
4
 74
0
 40
0
 40
0
 40
0
 40
0
 40
1
 40
1
 40
1
 40
1
 10
176.974688
 20
84.474688
 30
0.0
 10
176.702758
 20
84.746618
 30
0.0
 10
176.549990
 20
85.115433
 30
0.0
 10
176.549990
 20
85.500000
 30
0.0
  0
SPLINE
  5
229
100
AcDbEntity
  8
Layer_1
 62
7
100
AcDbSpline
 70
8
 71
3
 72
8
 73
4
 74
0
 40
0
 40
0
 40
0
 40
0
 40
1
 40
1
 40
1
 40
1
 10
176.549990
 20
85.500000
 30
0.0
 10
176.549990
 20
85.884567
 30
0.0
 10
176.702758
 20
86.253382
 30
0.0
 10
176.974688
 20
86.525312
 30
0.0
  0
SPLINE
  5
22a
100
AcDbEntity
  8
Layer_1
 62
7
100
AcDbSpline
 70
8
 71
3
 72
8
 73
4
 74
0
 40
0
 40
0
 40
0
 40
0
 40
1
 40
1
 40
1
 40
1
 10
176.974688
 20
86.525312
 30
0.0
 10
177.246618
 20
86.797242
 30
0.0
 10
177.615433
 20
86.950010
 30
0.0
 10
178.000000
 20
86.950010
 30
0.0
  0
SPLINE
  5
22b
100
AcDbEntity
  8
Layer_1
 62
7
100
AcDbSpline
 70
8
 71
3
 72
8
 73
4
 74
0
 40
0
 40
0
 40
0
 40
0
 40
1
 40
1
 40
1
 40
1
 10
178.000000
 20
86.950010
 30
0.0
 10
178.384567
 20
86.950010
 30
0.0
 10
178.753382
 20
86.797242
 30
0.0
 10
179.025312
 20
86.525312
 30
0.0
  0
SPLINE
  5
22c
100
AcDbEntity
  8
Layer_1
 62
7
100
AcDbSpline
 70
8
 71
3
 72
8
 73
4
 74
0
 40
0
 40
0
 40
0
 40
0
 40
1
 40
1
 40
1
 40
1
 10
179.025312
 20
86.525312
 30
0.0
 10
179.297242
 20
86.253382
 30
0.0
 10
179.450010
 20
85.884567
 30
0.0
 10
179.450010
 20
85.500000
 30
0.0
  0
LWPOLYLINE
  5
22d
100
AcDbEntity
  8
Layer_1
 62
7
100
AcDbPolyline
 90
1
 70
1
 10
152.950010
 20
85.500000
 30
0.0
  0
SPLINE
  5
22e
100
AcDbEntity
  8
Layer_1
 62
7
100
AcDbSpline
 70
8
 71
3
 72
8
 73
4
 74
0
 40
0
 40
0
 40
0
 40
0
 40
1
 40
1
 40
1
 40
1
 10
152.950010
 20
55.500000
 30
0.0
 10
152.950010
 20
55.115433
 30
0.0
 10
152.797242
 20
54.746618
 30
0.0
 10
152.525312
 20
54.474688
 30
0.0
  0
SPLINE
  5
22f
100
AcDbEntity
  8
Layer_1
 62
7
100
AcDbSpline
 70
8
 71
3
 72
8
 73
4
 74
0
 40
0
 40
0
 40
0
 40
0
 40
1
 40
1
 40
1
 40
1
 10
152.525312
 20
54.474688
 30
0.0
 10
152.253382
 20
54.202758
 30
0.0
 10
151.884567
 20
54.049990
 30
0.0
 10
151.500000
 20
54.049990
 30
0.0
  0
SPLINE
  5
230
100
AcDbEntity
  8
Layer_1
 62
7
100
AcDbSpline
 70
8
 71
3
 72
8
 73
4
 74
0
 40
0
 40
0
 40
0
 40
0
 40
1
 40
1
 40
1
 40
1
 10
151.500000
 20
54.049990
 30
0.0
 10
151.115433
 20
54.049990
 30
0.0
 10
150.746618
 20
54.202758
 30
0.0
 10
150.474688
 20
54.474688
 30
0.0
  0
SPLINE
  5
231
100
AcDbEntity
  8
Layer_1
 62
7
100
AcDbSpline
 70
8
 71
3
 72
8
 73
4
 74
0
 40
0
 40
0
 40
0
 40
0
 40
1
 40
1
 40
1
 40
1
 10
150.474688
 20
54.474688
 30
0.0
 10
150.202758
 20
54.746618
 30
0.0
 10
150.049990
 20
55.115433
 30
0.0
 10
150.049990
 20
55.500000
 30
0.0
  0
SPLINE
  5
232
100
AcDbEntity
  8
Layer_1
 62
7
100
AcDbSpline
 70
8
 71
3
 72
8
 73
4
 74
0
 40
0
 40
0
 40
0
 40
0
 40
1
 40
1
 40
1
 40
1
 10
150.049990
 20
55.500000
 30
0.0
 10
150.049990
 20
55.884567
 30
0.0
 10
150.202758
 20
56.253382
 30
0.0
 10
150.474688
 20
56.525312
 30
0.0
  0
SPLINE
  5
233
100
AcDbEntity
  8
Layer_1
 62
7
100
AcDbSpline
 70
8
 71
3
 72
8
 73
4
 74
0
 40
0
 40
0
 40
0
 40
0
 40
1
 40
1
 40
1
 40
1
 10
150.474688
 20
56.525312
 30
0.0
 10
150.746618
 20
56.797242
 30
0.0
 10
151.115433
 20
56.950010
 30
0.0
 10
151.500000
 20
56.950010
 30
0.0
  0
SPLINE
  5
234
100
AcDbEntity
  8
Layer_1
 62
7
100
AcDbSpline
 70
8
 71
3
 72
8
 73
4
 74
0
 40
0
 40
0
 40
0
 40
0
 40
1
 40
1
 40
1
 40
1
 10
151.500000
 20
56.950010
 30
0.0
 10
151.884567
 20
56.950010
 30
0.0
 10
152.253382
 20
56.797242
 30
0.0
 10
152.525312
 20
56.525312
 30
0.0
  0
SPLINE
  5
235
100
AcDbEntity
  8
Layer_1
 62
7
100
AcDbSpline
 70
8
 71
3
 72
8
 73
4
 74
0
 40
0
 40
0
 40
0
 40
0
 40
1
 40
1
 40
1
 40
1
 10
152.525312
 20
56.525312
 30
0.0
 10
152.797242
 20
56.253382
 30
0.0
 10
152.950010
 20
55.884567
 30
0.0
 10
152.950010
 20
55.500000
 30
0.0
  0
LWPOLYLINE
  5
236
100
AcDbEntity
  8
Layer_1
 62
7
100
AcDbPolyline
 90
1
 70
1
 10
179.450010
 20
85.500000
 30
0.0
  0
SPLINE
  5
237
100
AcDbEntity
  8
Layer_1
 62
7
100
AcDbSpline
 70
8
 71
3
 72
8
 73
4
 74
0
 40
0
 40
0
 40
0
 40
0
 40
1
 40
1
 40
1
 40
1
 10
179.450010
 20
55.500000
 30
0.0
 10
179.450010
 20
55.115433
 30
0.0
 10
179.297242
 20
54.746618
 30
0.0
 10
179.025312
 20
54.474688
 30
0.0
  0
SPLINE
  5
238
100
AcDbEntity
  8
Layer_1
 62
7
100
AcDbSpline
 70
8
 71
3
 72
8
 73
4
 74
0
 40
0
 40
0
 40
0
 40
0
 40
1
 40
1
 40
1
 40
1
 10
179.025312
 20
54.474688
 30
0.0
 10
178.753382
 20
54.202758
 30
0.0
 10
178.384567
 20
54.049990
 30
0.0
 10
178.000000
 20
54.049990
 30
0.0
  0
SPLINE
  5
239
100
AcDbEntity
  8
Layer_1
 62
7
100
AcDbSpline
 70
8
 71
3
 72
8
 73
4
 74
0
 40
0
 40
0
 40
0
 40
0
 40
1
 40
1
 40
1
 40
1
 10
178.000000
 20
54.049990
 30
0.0
 10
177.615433
 20
54.049990
 30
0.0
 10
177.246618
 20
54.202758
 30
0.0
 10
176.974688
 20
54.474688
 30
0.0
  0
SPLINE
  5
23a
100
AcDbEntity
  8
Layer_1
 62
7
100
AcDbSpline
 70
8
 71
3
 72
8
 73
4
 74
0
 40
0
 40
0
 40
0
 40
0
 40
1
 40
1
 40
1
 40
1
 10
176.974688
 20
54.474688
 30
0.0
 10
176.702758
 20
54.746618
 30
0.0
 10
176.549990
 20
55.115433
 30
0.0
 10
176.549990
 20
55.500000
 30
0.0
  0
SPLINE
  5
23b
100
AcDbEntity
  8
Layer_1
 62
7
100
AcDbSpline
 70
8
 71
3
 72
8
 73
4
 74
0
 40
0
 40
0
 40
0
 40
0
 40
1
 40
1
 40
1
 40
1
 10
176.549990
 20
55.500000
 30
0.0
 10
176.549990
 20
55.884567
 30
0.0
 10
176.702758
 20
56.253382
 30
0.0
 10
176.974688
 20
56.525312
 30
0.0
  0
SPLINE
  5
23c
100
AcDbEntity
  8
Layer_1
 62
7
100
AcDbSpline
 70
8
 71
3
 72
8
 73
4
 74
0
 40
0
 40
0
 40
0
 40
0
 40
1
 40
1
 40
1
 40
1
 10
176.974688
 20
56.525312
 30
0.0
 10
177.246618
 20
56.797242
 30
0.0
 10
177.615433
 20
56.950010
 30
0.0
 10
178.000000
 20
56.950010
 30
0.0
  0
SPLINE
  5
23d
100
AcDbEntity
  8
Layer_1
 62
7
100
AcDbSpline
 70
8
 71
3
 72
8
 73
4
 74
0
 40
0
 40
0
 40
0
 40
0
 40
1
 40
1
 40
1
 40
1
 10
178.000000
 20
56.950010
 30
0.0
 10
178.384567
 20
56.950010
 30
0.0
 10
178.753382
 20
56.797242
 30
0.0
 10
179.025312
 20
56.525312
 30
0.0
  0
SPLINE
  5
23e
100
AcDbEntity
  8
Layer_1
 62
7
100
AcDbSpline
 70
8
 71
3
 72
8
 73
4
 74
0
 40
0
 40
0
 40
0
 40
0
 40
1
 40
1
 40
1
 40
1
 10
179.025312
 20
56.525312
 30
0.0
 10
179.297242
 20
56.253382
 30
0.0
 10
179.450010
 20
55.884567
 30
0.0
 10
179.450010
 20
55.500000
 30
0.0
  0
LWPOLYLINE
  5
23f
100
AcDbEntity
  8
Layer_1
 62
7
100
AcDbPolyline
 90
1
 70
1
 10
152.950010
 20
55.500000
 30
0.0
  0
LWPOLYLINE
  5
240
100
AcDbEntity
  8
Layer_1
 62
7
100
AcDbPolyline
 90
1
 70
1
 10
179.450010
 20
55.500000
 30
0.0
  0
LWPOLYLINE
  5
241
100
AcDbEntity
  8
Layer_1
 62
7
100
AcDbPolyline
 90
2
 70
0
 10
44.811608
 20
52.522310
 30
0.0
 10
44.514948
 20
52.242050
 30
0.0
  0
LWPOLYLINE
  5
242
100
AcDbEntity
  8
Layer_1
 62
7
100
AcDbPolyline
 90
2
 70
0
 10
43.846898
 20
55.052390
 30
0.0
 10
44.237948
 20
54.935600
 30
0.0
  0
LWPOLYLINE
  5
243
100
AcDbEntity
  8
Layer_1
 62
7
100
AcDbPolyline
 90
2
 70
0
 10
42.055358
 20
53.756880
 30
0.0
 10
42.172148
 20
54.147920
 30
0.0
  0
LWPOLYLINE
  5
244
100
AcDbEntity
  8
Layer_1
 62
7
100
AcDbPolyline
 90
2
 70
0
 10
43.438958
 20
55.063980
 30
0.0
 10
43.846898
 20
55.052380
 30
0.0
  0
LWPOLYLINE
  5
245
100
AcDbEntity
  8
Layer_1
 62
7
100
AcDbPolyline
 90
2
 70
0
 10
42.138148
 20
52.951890
 30
0.0
 10
42.043748
 20
53.348940
 30
0.0
  0
LWPOLYLINE
  5
246
100
AcDbEntity
  8
Layer_1
 62
7
100
AcDbPolyline
 90
2
 70
0
 10
44.585438
 20
54.721580
 30
0.0
 10
44.865698
 20
54.424920
 30
0.0
  0
LWPOLYLINE
  5
247
100
AcDbEntity
  8
Layer_1
 62
7
100
AcDbPolyline
 90
2
 70
0
 10
43.041908
 20
54.969600
 30
0.0
 10
43.438958
 20
55.064000
 30
0.0
  0
LWPOLYLINE
  5
248
100
AcDbEntity
  8
Layer_1
 62
7
100
AcDbPolyline
 90
2
 70
0
 10
43.758808
 20
51.953740
 30
0.0
 10
43.350868
 20
51.965340
 30
0.0
  0
LWPOLYLINE
  5
249
100
AcDbEntity
  8
Layer_1
 62
7
100
AcDbPolyline
 90
3
 70
0
 10
44.514948
 20
52.242050
 30
0.0
 10
44.155858
 20
52.048120
 30
0.0
 10
43.758808
 20
51.953720
 30
0.0
  0
LWPOLYLINE
  5
24a
100
AcDbEntity
  8
Layer_1
 62
7
100
AcDbPolyline
 90
2
 70
0
 10
42.332068
 20
52.592800
 30
0.0
 10
42.138148
 20
52.951890
 30
0.0
  0
LWPOLYLINE
  5
24b
100
AcDbEntity
  8
Layer_1
 62
7
100
AcDbPolyline
 90
2
 70
0
 10
42.612328
 20
52.296140
 30
0.0
 10
42.332068
 20
52.592800
 30
0.0
  0
LWPOLYLINE
  5
24c
100
AcDbEntity
  8
Layer_1
 62
7
100
AcDbPolyline
 90
3
 70
0
 10
42.386158
 20
54.495410
 30
0.0
 10
42.682818
 20
54.775670
 30
0.0
 10
43.041908
 20
54.969600
 30
0.0
  0
LWPOLYLINE
  5
24d
100
AcDbEntity
  8
Layer_1
 62
7
100
AcDbPolyline
 90
2
 70
0
 10
45.142408
 20
53.260850
 30
0.0
 10
45.025618
 20
52.869800
 30
0.0
  0
LWPOLYLINE
  5
24e
100
AcDbEntity
  8
Layer_1
 62
7
100
AcDbPolyline
 90
3
 70
0
 10
42.612328
 20
52.296140
 30
0.0
 10
42.959828
 20
52.082130
 30
0.0
 10
43.350868
 20
51.965340
 30
0.0
  0
LWPOLYLINE
  5
24f
100
AcDbEntity
  8
Layer_1
 62
7
100
AcDbPolyline
 90
2
 70
0
 10
44.811608
 20
52.522310
 30
0.0
 10
45.025618
 20
52.869800
 30
0.0
  0
LWPOLYLINE
  5
250
100
AcDbEntity
  8
Layer_1
 62
7
100
AcDbPolyline
 90
4
 70
0
 10
45.142408
 20
53.260850
 30
0.0
 10
45.154008
 20
53.668790
 30
0.0
 10
45.059598
 20
54.065830
 30
0.0
 10
44.865698
 20
54.424920
 30
0.0
  0
LWPOLYLINE
  5
251
100
AcDbEntity
  8
Layer_1
 62
7
100
AcDbPolyline
 90
2
 70
0
 10
44.585438
 20
54.721580
 30
0.0
 10
44.237948
 20
54.935600
 30
0.0
  0
LWPOLYLINE
  5
252
100
AcDbEntity
  8
Layer_1
 62
7
100
AcDbPolyline
 90
2
 70
0
 10
42.386158
 20
54.495410
 30
0.0
 10
42.172148
 20
54.147920
 30
0.0
  0
LWPOLYLINE
  5
253
100
AcDbEntity
  8
Layer_1
 62
7
100
AcDbPolyline
 90
2
 70
0
 10
42.055358
 20
53.756880
 30
0.0
 10
42.043758
 20
53.348940
 30
0.0
  0
ENDSEC
  0
SECTION
  2
OBJECTS
  0
DICTIONARY
  5
C
330
0
100
AcDbDictionary
  3
ACAD_GROUP
350
D
  3
ACAD_MLINESTYLE
350
17
  0
DICTIONARY
  5
D
330
C
100
AcDbDictionary
  0
DICTIONARY
  5
1A
330
C
100
AcDbDictionary
  0
DICTIONARY
  5
17
330
C
100
AcDbDictionary
  3
STANDARD
350
18
  0
DICTIONARY
  5
19
330
C
100
AcDbDictionary
  0
ENDSEC
  0
EOF
